%TF.GenerationSoftware,KiCad,Pcbnew,9.0.2+dfsg-1*%
%TF.CreationDate,2025-11-03T11:46:04-05:00*%
%TF.ProjectId,4x12,34783132-2e6b-4696-9361-645f70636258,rev?*%
%TF.SameCoordinates,Original*%
%TF.FileFunction,Copper,L2,Bot*%
%TF.FilePolarity,Positive*%
%FSLAX46Y46*%
G04 Gerber Fmt 4.6, Leading zero omitted, Abs format (unit mm)*
G04 Created by KiCad (PCBNEW 9.0.2+dfsg-1) date 2025-11-03 11:46:04*
%MOMM*%
%LPD*%
G01*
G04 APERTURE LIST*
G04 Aperture macros list*
%AMRoundRect*
0 Rectangle with rounded corners*
0 $1 Rounding radius*
0 $2 $3 $4 $5 $6 $7 $8 $9 X,Y pos of 4 corners*
0 Add a 4 corners polygon primitive as box body*
4,1,4,$2,$3,$4,$5,$6,$7,$8,$9,$2,$3,0*
0 Add four circle primitives for the rounded corners*
1,1,$1+$1,$2,$3*
1,1,$1+$1,$4,$5*
1,1,$1+$1,$6,$7*
1,1,$1+$1,$8,$9*
0 Add four rect primitives between the rounded corners*
20,1,$1+$1,$2,$3,$4,$5,0*
20,1,$1+$1,$4,$5,$6,$7,0*
20,1,$1+$1,$6,$7,$8,$9,0*
20,1,$1+$1,$8,$9,$2,$3,0*%
%AMOutline5P*
0 Free polygon, 5 corners , with rotation*
0 The origin of the aperture is its center*
0 number of corners: always 5*
0 $1 to $10 corner X, Y*
0 $11 Rotation angle, in degrees counterclockwise*
0 create outline with 5 corners*
4,1,5,$1,$2,$3,$4,$5,$6,$7,$8,$9,$10,$1,$2,$11*%
%AMOutline6P*
0 Free polygon, 6 corners , with rotation*
0 The origin of the aperture is its center*
0 number of corners: always 6*
0 $1 to $12 corner X, Y*
0 $13 Rotation angle, in degrees counterclockwise*
0 create outline with 6 corners*
4,1,6,$1,$2,$3,$4,$5,$6,$7,$8,$9,$10,$11,$12,$1,$2,$13*%
%AMOutline7P*
0 Free polygon, 7 corners , with rotation*
0 The origin of the aperture is its center*
0 number of corners: always 7*
0 $1 to $14 corner X, Y*
0 $15 Rotation angle, in degrees counterclockwise*
0 create outline with 7 corners*
4,1,7,$1,$2,$3,$4,$5,$6,$7,$8,$9,$10,$11,$12,$13,$14,$1,$2,$15*%
%AMOutline8P*
0 Free polygon, 8 corners , with rotation*
0 The origin of the aperture is its center*
0 number of corners: always 8*
0 $1 to $16 corner X, Y*
0 $17 Rotation angle, in degrees counterclockwise*
0 create outline with 8 corners*
4,1,8,$1,$2,$3,$4,$5,$6,$7,$8,$9,$10,$11,$12,$13,$14,$15,$16,$1,$2,$17*%
%AMFreePoly0*
4,1,23,0.500000,-0.750000,0.000000,-0.750000,0.000000,-0.745722,-0.065263,-0.745722,-0.191342,-0.711940,-0.304381,-0.646677,-0.396677,-0.554381,-0.461940,-0.441342,-0.495722,-0.315263,-0.495722,-0.250000,-0.500000,-0.250000,-0.500000,0.250000,-0.495722,0.250000,-0.495722,0.315263,-0.461940,0.441342,-0.396677,0.554381,-0.304381,0.646677,-0.191342,0.711940,-0.065263,0.745722,0.000000,0.745722,
0.000000,0.750000,0.500000,0.750000,0.500000,-0.750000,0.500000,-0.750000,$1*%
%AMFreePoly1*
4,1,23,0.000000,0.745722,0.065263,0.745722,0.191342,0.711940,0.304381,0.646677,0.396677,0.554381,0.461940,0.441342,0.495722,0.315263,0.495722,0.250000,0.500000,0.250000,0.500000,-0.250000,0.495722,-0.250000,0.495722,-0.315263,0.461940,-0.441342,0.396677,-0.554381,0.304381,-0.646677,0.191342,-0.711940,0.065263,-0.745722,0.000000,-0.745722,0.000000,-0.750000,-0.500000,-0.750000,
-0.500000,0.750000,0.000000,0.750000,0.000000,0.745722,0.000000,0.745722,$1*%
G04 Aperture macros list end*
%TA.AperFunction,SMDPad,CuDef*%
%ADD10RoundRect,0.240000X-0.959988X-0.960012X0.960012X-0.959988X0.959988X0.960012X-0.960012X0.959988X0*%
%TD*%
%TA.AperFunction,SMDPad,CuDef*%
%ADD11RoundRect,0.240000X0.959988X0.960012X-0.960012X0.959988X-0.959988X-0.960012X0.960012X-0.959988X0*%
%TD*%
%TA.AperFunction,ComponentPad*%
%ADD12RoundRect,0.250000X-0.500003X-0.499997X0.499997X-0.500003X0.500003X0.499997X-0.499997X0.500003X0*%
%TD*%
%TA.AperFunction,SMDPad,CuDef*%
%ADD13RoundRect,0.225000X-0.225002X-0.374999X0.224998X-0.375001X0.225002X0.374999X-0.224998X0.375001X0*%
%TD*%
%TA.AperFunction,ComponentPad*%
%ADD14C,1.600000*%
%TD*%
%TA.AperFunction,ComponentPad*%
%ADD15R,1.700000X1.700000*%
%TD*%
%TA.AperFunction,ComponentPad*%
%ADD16C,1.700000*%
%TD*%
%TA.AperFunction,ComponentPad*%
%ADD17C,1.752600*%
%TD*%
%TA.AperFunction,ComponentPad*%
%ADD18R,1.752600X1.752600*%
%TD*%
%TA.AperFunction,SMDPad,CuDef*%
%ADD19R,1.700000X0.820000*%
%TD*%
%TA.AperFunction,SMDPad,CuDef*%
%ADD20Outline5P,-0.850000X0.410000X0.850000X0.410000X0.850000X0.000000X0.440000X-0.410000X-0.850000X-0.410000X0.000000*%
%TD*%
%TA.AperFunction,SMDPad,CuDef*%
%ADD21Outline5P,-0.850000X0.410000X0.440000X0.410000X0.850000X0.000000X0.850000X-0.410000X-0.850000X-0.410000X0.000000*%
%TD*%
%TA.AperFunction,SMDPad,CuDef*%
%ADD22RoundRect,0.150000X0.587500X0.150000X-0.587500X0.150000X-0.587500X-0.150000X0.587500X-0.150000X0*%
%TD*%
%TA.AperFunction,SMDPad,CuDef*%
%ADD23RoundRect,0.200000X-0.300000X-0.925000X0.300000X-0.925000X0.300000X0.925000X-0.300000X0.925000X0*%
%TD*%
%TA.AperFunction,SMDPad,CuDef*%
%ADD24RoundRect,0.228261X-0.821745X-0.821733X0.821733X-0.821745X0.821745X0.821733X-0.821733X0.821745X0*%
%TD*%
%TA.AperFunction,SMDPad,CuDef*%
%ADD25RoundRect,0.250000X0.092760X0.512642X-0.400578X0.333081X-0.092760X-0.512642X0.400578X-0.333081X0*%
%TD*%
%TA.AperFunction,SMDPad,CuDef*%
%ADD26RoundRect,0.250000X0.900006X0.899994X-0.899994X0.900006X-0.900006X-0.899994X0.899994X-0.900006X0*%
%TD*%
%TA.AperFunction,SMDPad,CuDef*%
%ADD27FreePoly0,270.000000*%
%TD*%
%TA.AperFunction,SMDPad,CuDef*%
%ADD28FreePoly1,270.000000*%
%TD*%
%TA.AperFunction,SMDPad,CuDef*%
%ADD29RoundRect,0.250000X0.262500X0.450000X-0.262500X0.450000X-0.262500X-0.450000X0.262500X-0.450000X0*%
%TD*%
%TA.AperFunction,SMDPad,CuDef*%
%ADD30RoundRect,0.250000X-0.450000X0.262500X-0.450000X-0.262500X0.450000X-0.262500X0.450000X0.262500X0*%
%TD*%
%TA.AperFunction,ViaPad*%
%ADD31C,0.600000*%
%TD*%
%TA.AperFunction,Conductor*%
%ADD32C,0.250000*%
%TD*%
%TA.AperFunction,Conductor*%
%ADD33C,0.200000*%
%TD*%
G04 APERTURE END LIST*
D10*
%TO.P,REF\u002A\u002A,1*%
%TO.N,H15*%
X147970228Y-65731522D03*
%TO.P,REF\u002A\u002A,2*%
%TO.N,P3*%
X159970245Y-67931352D03*
%TD*%
D11*
%TO.P,REF\u002A\u002A,1*%
%TO.N,H20*%
X61275602Y-93771395D03*
%TO.P,REF\u002A\u002A,2*%
%TO.N,P0*%
X48348626Y-96311533D03*
%TD*%
%TO.P,REF\u002A\u002A,1*%
%TO.N,H010*%
X255835118Y-54771425D03*
%TO.P,REF\u002A\u002A,2*%
%TO.N,P6*%
X242908142Y-57311563D03*
%TD*%
D10*
%TO.P,REF\u002A\u002A,1*%
%TO.N,H09*%
X225794013Y-46231560D03*
%TO.P,REF\u002A\u002A,2*%
%TO.N,P6*%
X237794030Y-48431390D03*
%TD*%
D11*
%TO.P,REF\u002A\u002A,1*%
%TO.N,H13*%
X119643333Y-74271387D03*
%TO.P,REF\u002A\u002A,2*%
%TO.N,P2*%
X106716357Y-76811525D03*
%TD*%
%TO.P,REF\u002A\u002A,1*%
%TO.N,H00*%
X61275118Y-54771425D03*
%TO.P,REF\u002A\u002A,2*%
%TO.N,P0*%
X48348142Y-57311563D03*
%TD*%
D10*
%TO.P,REF\u002A\u002A,1*%
%TO.N,H07*%
X186882013Y-46231561D03*
%TO.P,REF\u002A\u002A,2*%
%TO.N,P4*%
X198882030Y-48431391D03*
%TD*%
D12*
%TO.P,D14,1*%
%TO.N,P1*%
X167116439Y-80381508D03*
D13*
X169276433Y-80381490D03*
%TO.P,D14,2*%
%TO.N,H16*%
X172576441Y-80381460D03*
D14*
X174736435Y-80381442D03*
%TD*%
D15*
%TO.P,REF\u002A\u002A,1*%
%TO.N,G*%
X26613801Y-46241089D03*
D16*
%TO.P,REF\u002A\u002A,2*%
%TO.N,3V*%
X29153801Y-46241089D03*
%TO.P,REF\u002A\u002A,3*%
%TO.N,SCL*%
X31693801Y-46241089D03*
%TO.P,REF\u002A\u002A,4*%
%TO.N,SDA*%
X34233801Y-46241088D03*
%TD*%
D11*
%TO.P,REF\u002A\u002A,1*%
%TO.N,H07*%
X197467118Y-54771426D03*
%TO.P,REF\u002A\u002A,2*%
%TO.N,P4*%
X184540142Y-57311564D03*
%TD*%
%TO.P,REF\u002A\u002A,1*%
%TO.N,H05*%
X158555118Y-54771425D03*
%TO.P,REF\u002A\u002A,2*%
%TO.N,P3*%
X145628142Y-57311563D03*
%TD*%
D10*
%TO.P,REF\u002A\u002A,1*%
%TO.N,H11*%
X70146229Y-65731522D03*
%TO.P,REF\u002A\u002A,2*%
%TO.N,P0*%
X82146246Y-67931352D03*
%TD*%
D12*
%TO.P,D14,1*%
%TO.N,P6*%
X69836200Y-60881507D03*
D13*
X71996194Y-60881489D03*
%TO.P,D14,2*%
%TO.N,H01*%
X75296202Y-60881459D03*
D14*
X77456196Y-60881441D03*
%TD*%
D12*
%TO.P,D14,1*%
%TO.N,P2*%
X147660200Y-60881507D03*
D13*
X149820194Y-60881489D03*
%TO.P,D14,2*%
%TO.N,H05*%
X153120202Y-60881459D03*
D14*
X155280196Y-60881441D03*
%TD*%
D11*
%TO.P,REF\u002A\u002A,1*%
%TO.N,H311*%
X275291602Y-113227395D03*
%TO.P,REF\u002A\u002A,2*%
%TO.N,P7*%
X262364626Y-115767533D03*
%TD*%
D10*
%TO.P,REF\u002A\u002A,1*%
%TO.N,H011*%
X264706014Y-46231559D03*
%TO.P,REF\u002A\u002A,2*%
%TO.N,P7*%
X276706031Y-48431389D03*
%TD*%
%TO.P,REF\u002A\u002A,1*%
%TO.N,H29*%
X225794497Y-85231530D03*
%TO.P,REF\u002A\u002A,2*%
%TO.N,P6*%
X237794514Y-87431360D03*
%TD*%
D17*
%TO.P,,22*%
%TO.N,P6*%
X38043800Y-48781089D03*
%TD*%
D10*
%TO.P,REF\u002A\u002A,1*%
%TO.N,H08*%
X206338013Y-46231559D03*
%TO.P,REF\u002A\u002A,2*%
%TO.N,P5*%
X218338030Y-48431389D03*
%TD*%
D17*
%TO.P,,23*%
%TO.N,P5*%
X38043800Y-46241089D03*
%TD*%
D11*
%TO.P,REF\u002A\u002A,1*%
%TO.N,H15*%
X158555333Y-74271387D03*
%TO.P,REF\u002A\u002A,2*%
%TO.N,P3*%
X145628357Y-76811525D03*
%TD*%
%TO.P,REF\u002A\u002A,1*%
%TO.N,H11*%
X80731334Y-74271387D03*
%TO.P,REF\u002A\u002A,2*%
%TO.N,P0*%
X67804358Y-76811525D03*
%TD*%
D10*
%TO.P,REF\u002A\u002A,1*%
%TO.N,H06*%
X167426013Y-46231561D03*
%TO.P,REF\u002A\u002A,2*%
%TO.N,P4*%
X179426030Y-48431391D03*
%TD*%
D12*
%TO.P,D14,1*%
%TO.N,P6*%
X128204200Y-60881507D03*
D13*
X130364194Y-60881489D03*
%TO.P,D14,2*%
%TO.N,H04*%
X133664202Y-60881459D03*
D14*
X135824196Y-60881441D03*
%TD*%
D10*
%TO.P,REF\u002A\u002A,1*%
%TO.N,H25*%
X147970497Y-85231530D03*
%TO.P,REF\u002A\u002A,2*%
%TO.N,P3*%
X159970514Y-87431360D03*
%TD*%
D11*
%TO.P,REF\u002A\u002A,1*%
%TO.N,H18*%
X216923333Y-74271387D03*
%TO.P,REF\u002A\u002A,2*%
%TO.N,P5*%
X203996357Y-76811525D03*
%TD*%
%TO.P,REF\u002A\u002A,1*%
%TO.N,H011*%
X275291119Y-54771424D03*
%TO.P,REF\u002A\u002A,2*%
%TO.N,P7*%
X262364143Y-57311562D03*
%TD*%
D12*
%TO.P,D14,1*%
%TO.N,P7*%
X186572439Y-80381506D03*
D13*
X188732433Y-80381488D03*
%TO.P,D14,2*%
%TO.N,H17*%
X192032441Y-80381458D03*
D14*
X194192435Y-80381440D03*
%TD*%
D11*
%TO.P,REF\u002A\u002A,1*%
%TO.N,H04*%
X139099118Y-54771425D03*
%TO.P,REF\u002A\u002A,2*%
%TO.N,P2*%
X126172142Y-57311563D03*
%TD*%
D10*
%TO.P,REF\u002A\u002A,1*%
%TO.N,H28*%
X206338497Y-85231530D03*
%TO.P,REF\u002A\u002A,2*%
%TO.N,P5*%
X218338514Y-87431360D03*
%TD*%
D12*
%TO.P,D14,1*%
%TO.N,P3*%
X50380439Y-80381507D03*
D13*
X52540433Y-80381489D03*
%TO.P,D14,2*%
%TO.N,H10*%
X55840441Y-80381459D03*
D14*
X58000435Y-80381441D03*
%TD*%
D12*
%TO.P,D14,1*%
%TO.N,P3*%
X167116653Y-119337513D03*
D13*
X169276647Y-119337495D03*
%TO.P,D14,2*%
%TO.N,H36*%
X172576655Y-119337465D03*
D14*
X174736649Y-119337447D03*
%TD*%
D10*
%TO.P,REF\u002A\u002A,1*%
%TO.N,H30*%
X50690497Y-104687530D03*
%TO.P,REF\u002A\u002A,2*%
%TO.N,P0*%
X62690514Y-106887360D03*
%TD*%
%TO.P,REF\u002A\u002A,1*%
%TO.N,H35*%
X147970497Y-104687530D03*
%TO.P,REF\u002A\u002A,2*%
%TO.N,P3*%
X159970514Y-106887360D03*
%TD*%
D12*
%TO.P,D14,1*%
%TO.N,P0*%
X225484200Y-60881507D03*
D13*
X227644194Y-60881489D03*
%TO.P,D14,2*%
%TO.N,H09*%
X230944202Y-60881459D03*
D14*
X233104196Y-60881441D03*
%TD*%
D17*
%TO.P,,19*%
%TO.N,CONN_C*%
X38043801Y-56401088D03*
%TD*%
D10*
%TO.P,REF\u002A\u002A,1*%
%TO.N,H10*%
X50690228Y-65731522D03*
%TO.P,REF\u002A\u002A,2*%
%TO.N,P0*%
X62690245Y-67931352D03*
%TD*%
D11*
%TO.P,REF\u002A\u002A,1*%
%TO.N,H33*%
X119643602Y-113227395D03*
%TO.P,REF\u002A\u002A,2*%
%TO.N,P2*%
X106716626Y-115767533D03*
%TD*%
D17*
%TO.P,,20*%
%TO.N,CONN_B*%
X38043801Y-53861089D03*
%TD*%
D12*
%TO.P,D14,1*%
%TO.N,P5*%
X108748652Y-119337513D03*
D13*
X110908646Y-119337495D03*
%TO.P,D14,2*%
%TO.N,H33*%
X114208654Y-119337465D03*
D14*
X116368648Y-119337447D03*
%TD*%
D10*
%TO.P,REF\u002A\u002A,1*%
%TO.N,H16*%
X167426229Y-65731522D03*
%TO.P,REF\u002A\u002A,2*%
%TO.N,P4*%
X179426246Y-67931352D03*
%TD*%
%TO.P,REF\u002A\u002A,1*%
%TO.N,H38*%
X206338497Y-104687531D03*
%TO.P,REF\u002A\u002A,2*%
%TO.N,P5*%
X218338514Y-106887361D03*
%TD*%
%TO.P,REF\u002A\u002A,1*%
%TO.N,H18*%
X206338228Y-65731522D03*
%TO.P,REF\u002A\u002A,2*%
%TO.N,P5*%
X218338245Y-67931352D03*
%TD*%
%TO.P,REF\u002A\u002A,1*%
%TO.N,H110*%
X245250228Y-65731522D03*
%TO.P,REF\u002A\u002A,2*%
%TO.N,P6*%
X257250245Y-67931352D03*
%TD*%
D12*
%TO.P,D14,1*%
%TO.N,P5*%
X147660440Y-80381507D03*
D13*
X149820434Y-80381489D03*
%TO.P,D14,2*%
%TO.N,H15*%
X153120442Y-80381459D03*
D14*
X155280436Y-80381441D03*
%TD*%
D12*
%TO.P,D14,1*%
%TO.N,P2*%
X69836653Y-119337514D03*
D13*
X71996647Y-119337496D03*
%TO.P,D14,2*%
%TO.N,H31*%
X75296655Y-119337466D03*
D14*
X77456649Y-119337448D03*
%TD*%
D18*
%TO.P,,1*%
%TO.N,5V*%
X22803800Y-43701089D03*
%TD*%
D17*
%TO.P,,3*%
%TO.N,3V*%
X22803801Y-48781088D03*
%TD*%
D12*
%TO.P,D14,1*%
%TO.N,P0*%
X108748201Y-60881507D03*
D13*
X110908195Y-60881489D03*
%TO.P,D14,2*%
%TO.N,H03*%
X114208203Y-60881459D03*
D14*
X116368197Y-60881441D03*
%TD*%
D11*
%TO.P,REF\u002A\u002A,1*%
%TO.N,H32*%
X100187602Y-113227395D03*
%TO.P,REF\u002A\u002A,2*%
%TO.N,P1*%
X87260626Y-115767533D03*
%TD*%
%TO.P,REF\u002A\u002A,1*%
%TO.N,H28*%
X216923602Y-93771395D03*
%TO.P,REF\u002A\u002A,2*%
%TO.N,P5*%
X203996626Y-96311533D03*
%TD*%
D12*
%TO.P,D14,1*%
%TO.N,P4*%
X264396439Y-80381507D03*
D13*
X266556433Y-80381489D03*
%TO.P,D14,2*%
%TO.N,H111*%
X269856441Y-80381459D03*
D14*
X272016435Y-80381441D03*
%TD*%
D12*
%TO.P,D14,1*%
%TO.N,P4*%
X108748652Y-99881512D03*
D13*
X110908646Y-99881494D03*
%TO.P,D14,2*%
%TO.N,H23*%
X114208654Y-99881464D03*
D14*
X116368648Y-99881446D03*
%TD*%
D10*
%TO.P,REF\u002A\u002A,1*%
%TO.N,H111*%
X264706228Y-65731522D03*
%TO.P,REF\u002A\u002A,2*%
%TO.N,P7*%
X276706245Y-67931352D03*
%TD*%
D17*
%TO.P,,5*%
%TO.N,P2*%
X22803800Y-53861089D03*
%TD*%
D10*
%TO.P,REF\u002A\u002A,1*%
%TO.N,H12*%
X89602228Y-65731522D03*
%TO.P,REF\u002A\u002A,2*%
%TO.N,P1*%
X101602245Y-67931352D03*
%TD*%
D11*
%TO.P,REF\u002A\u002A,1*%
%TO.N,H06*%
X178011118Y-54771426D03*
%TO.P,REF\u002A\u002A,2*%
%TO.N,P4*%
X165084142Y-57311564D03*
%TD*%
%TO.P,REF\u002A\u002A,1*%
%TO.N,H211*%
X275291602Y-93771395D03*
%TO.P,REF\u002A\u002A,2*%
%TO.N,P7*%
X262364626Y-96311533D03*
%TD*%
D10*
%TO.P,REF\u002A\u002A,1*%
%TO.N,H27*%
X186882498Y-85231530D03*
%TO.P,REF\u002A\u002A,2*%
%TO.N,P5*%
X198882515Y-87431360D03*
%TD*%
D11*
%TO.P,REF\u002A\u002A,1*%
%TO.N,H26*%
X178011602Y-93771395D03*
%TO.P,REF\u002A\u002A,2*%
%TO.N,P4*%
X165084626Y-96311533D03*
%TD*%
D10*
%TO.P,REF\u002A\u002A,1*%
%TO.N,H31*%
X70146497Y-104687530D03*
%TO.P,REF\u002A\u002A,2*%
%TO.N,P1*%
X82146514Y-106887360D03*
%TD*%
%TO.P,REF\u002A\u002A,1*%
%TO.N,H24*%
X128514497Y-85231529D03*
%TO.P,REF\u002A\u002A,2*%
%TO.N,P3*%
X140514514Y-87431359D03*
%TD*%
D12*
%TO.P,D14,1*%
%TO.N,P5*%
X244940439Y-80381507D03*
D13*
X247100433Y-80381489D03*
%TO.P,D14,2*%
%TO.N,H110*%
X250400441Y-80381459D03*
D14*
X252560435Y-80381441D03*
%TD*%
D10*
%TO.P,REF\u002A\u002A,1*%
%TO.N,H02*%
X89602013Y-46231560D03*
%TO.P,REF\u002A\u002A,2*%
%TO.N,P1*%
X101602030Y-48431390D03*
%TD*%
D12*
%TO.P,D14,1*%
%TO.N,P7*%
X147660652Y-119337513D03*
D13*
X149820646Y-119337495D03*
%TO.P,D14,2*%
%TO.N,H35*%
X153120654Y-119337465D03*
D14*
X155280648Y-119337447D03*
%TD*%
D11*
%TO.P,REF\u002A\u002A,1*%
%TO.N,H38*%
X216923602Y-113227396D03*
%TO.P,REF\u002A\u002A,2*%
%TO.N,P5*%
X203996626Y-115767534D03*
%TD*%
D10*
%TO.P,REF\u002A\u002A,1*%
%TO.N,H17*%
X186882228Y-65731522D03*
%TO.P,REF\u002A\u002A,2*%
%TO.N,P4*%
X198882245Y-67931352D03*
%TD*%
D12*
%TO.P,D14,1*%
%TO.N,P0*%
X167116200Y-60881508D03*
D13*
X169276194Y-60881490D03*
%TO.P,D14,2*%
%TO.N,H06*%
X172576202Y-60881460D03*
D14*
X174736196Y-60881442D03*
%TD*%
D12*
%TO.P,D14,1*%
%TO.N,P4*%
X50380653Y-99881513D03*
D13*
X52540647Y-99881495D03*
%TO.P,D14,2*%
%TO.N,H20*%
X55840655Y-99881465D03*
D14*
X58000649Y-99881447D03*
%TD*%
D11*
%TO.P,REF\u002A\u002A,1*%
%TO.N,H25*%
X158555602Y-93771395D03*
%TO.P,REF\u002A\u002A,2*%
%TO.N,P3*%
X145628626Y-96311533D03*
%TD*%
D10*
%TO.P,REF\u002A\u002A,1*%
%TO.N,H00*%
X50690013Y-46231560D03*
%TO.P,REF\u002A\u002A,2*%
%TO.N,P0*%
X62690030Y-48431390D03*
%TD*%
D11*
%TO.P,REF\u002A\u002A,1*%
%TO.N,H12*%
X100187333Y-74271387D03*
%TO.P,REF\u002A\u002A,2*%
%TO.N,P1*%
X87260357Y-76811525D03*
%TD*%
D12*
%TO.P,D14,1*%
%TO.N,P1*%
X225484439Y-80381507D03*
D13*
X227644433Y-80381489D03*
%TO.P,D14,2*%
%TO.N,H19*%
X230944441Y-80381459D03*
D14*
X233104435Y-80381441D03*
%TD*%
D12*
%TO.P,D14,1*%
%TO.N,P3*%
X89292200Y-60881507D03*
D13*
X91452194Y-60881489D03*
%TO.P,D14,2*%
%TO.N,H02*%
X94752202Y-60881459D03*
D14*
X96912196Y-60881441D03*
%TD*%
D12*
%TO.P,D14,1*%
%TO.N,P1*%
X128204652Y-119337513D03*
D13*
X130364646Y-119337495D03*
%TO.P,D14,2*%
%TO.N,H34*%
X133664654Y-119337465D03*
D14*
X135824648Y-119337447D03*
%TD*%
D10*
%TO.P,REF\u002A\u002A,1*%
%TO.N,H21*%
X70146498Y-85231530D03*
%TO.P,REF\u002A\u002A,2*%
%TO.N,P1*%
X82146515Y-87431360D03*
%TD*%
D12*
%TO.P,D14,1*%
%TO.N,P6*%
X206028652Y-99881513D03*
D13*
X208188646Y-99881495D03*
%TO.P,D14,2*%
%TO.N,H28*%
X211488654Y-99881465D03*
D14*
X213648648Y-99881447D03*
%TD*%
D11*
%TO.P,REF\u002A\u002A,1*%
%TO.N,H36*%
X178011602Y-113227395D03*
%TO.P,REF\u002A\u002A,2*%
%TO.N,P4*%
X165084626Y-115767533D03*
%TD*%
%TO.P,REF\u002A\u002A,1*%
%TO.N,H10*%
X61275333Y-74271387D03*
%TO.P,REF\u002A\u002A,2*%
%TO.N,P0*%
X48348357Y-76811525D03*
%TD*%
D17*
%TO.P,,4*%
%TO.N,P3*%
X22803800Y-51321090D03*
%TD*%
%TO.P,,24*%
%TO.N,P4*%
X38043800Y-43701089D03*
%TD*%
D10*
%TO.P,REF\u002A\u002A,1*%
%TO.N,H36*%
X167426497Y-104687530D03*
%TO.P,REF\u002A\u002A,2*%
%TO.N,P4*%
X179426514Y-106887360D03*
%TD*%
D12*
%TO.P,D14,1*%
%TO.N,P2*%
X167116653Y-99881513D03*
D13*
X169276647Y-99881495D03*
%TO.P,D14,2*%
%TO.N,H26*%
X172576655Y-99881465D03*
D14*
X174736649Y-99881447D03*
%TD*%
D17*
%TO.P,,7*%
%TO.N,P0*%
X22803800Y-58941088D03*
%TD*%
D10*
%TO.P,REF\u002A\u002A,1*%
%TO.N,H311*%
X264706497Y-104687530D03*
%TO.P,REF\u002A\u002A,2*%
%TO.N,P7*%
X276706514Y-106887360D03*
%TD*%
D12*
%TO.P,D14,1*%
%TO.N,P7*%
X89292652Y-119337513D03*
D13*
X91452646Y-119337495D03*
%TO.P,D14,2*%
%TO.N,H32*%
X94752654Y-119337465D03*
D14*
X96912648Y-119337447D03*
%TD*%
D11*
%TO.P,REF\u002A\u002A,1*%
%TO.N,H34*%
X139099602Y-113227395D03*
%TO.P,REF\u002A\u002A,2*%
%TO.N,P3*%
X126172626Y-115767533D03*
%TD*%
D12*
%TO.P,D14,1*%
%TO.N,P0*%
X128204652Y-99881513D03*
D13*
X130364646Y-99881495D03*
%TO.P,D14,2*%
%TO.N,H24*%
X133664654Y-99881465D03*
D14*
X135824648Y-99881447D03*
%TD*%
D12*
%TO.P,D14,1*%
%TO.N,P5*%
X50380652Y-119337513D03*
D13*
X52540646Y-119337495D03*
%TO.P,D14,2*%
%TO.N,H30*%
X55840654Y-119337465D03*
D14*
X58000648Y-119337447D03*
%TD*%
D11*
%TO.P,REF\u002A\u002A,1*%
%TO.N,H16*%
X178011334Y-74271387D03*
%TO.P,REF\u002A\u002A,2*%
%TO.N,P4*%
X165084358Y-76811525D03*
%TD*%
D10*
%TO.P,REF\u002A\u002A,1*%
%TO.N,H37*%
X186882498Y-104687530D03*
%TO.P,REF\u002A\u002A,2*%
%TO.N,P5*%
X198882515Y-106887360D03*
%TD*%
%TO.P,REF\u002A\u002A,1*%
%TO.N,H01*%
X70146013Y-46231560D03*
%TO.P,REF\u002A\u002A,2*%
%TO.N,P0*%
X82146030Y-48431390D03*
%TD*%
D12*
%TO.P,D14,1*%
%TO.N,P5*%
X89292652Y-99881513D03*
D13*
X91452646Y-99881495D03*
%TO.P,D14,2*%
%TO.N,H22*%
X94752654Y-99881465D03*
D14*
X96912648Y-99881447D03*
%TD*%
D11*
%TO.P,REF\u002A\u002A,1*%
%TO.N,H03*%
X119643119Y-54771425D03*
%TO.P,REF\u002A\u002A,2*%
%TO.N,P2*%
X106716143Y-57311563D03*
%TD*%
D12*
%TO.P,D14,1*%
%TO.N,P2*%
X244940652Y-119337513D03*
D13*
X247100646Y-119337495D03*
%TO.P,D14,2*%
%TO.N,H310*%
X250400654Y-119337465D03*
D14*
X252560648Y-119337447D03*
%TD*%
D11*
%TO.P,REF\u002A\u002A,1*%
%TO.N,H14*%
X139099333Y-74271388D03*
%TO.P,REF\u002A\u002A,2*%
%TO.N,P2*%
X126172357Y-76811526D03*
%TD*%
%TO.P,REF\u002A\u002A,1*%
%TO.N,H22*%
X100187602Y-93771396D03*
%TO.P,REF\u002A\u002A,2*%
%TO.N,P1*%
X87260626Y-96311534D03*
%TD*%
D12*
%TO.P,D14,1*%
%TO.N,P3*%
X225484652Y-119337513D03*
D13*
X227644646Y-119337495D03*
%TO.P,D14,2*%
%TO.N,H39*%
X230944654Y-119337465D03*
D14*
X233104648Y-119337447D03*
%TD*%
D12*
%TO.P,D14,1*%
%TO.N,P7*%
X206028652Y-119337513D03*
D13*
X208188646Y-119337495D03*
%TO.P,D14,2*%
%TO.N,H38*%
X211488654Y-119337465D03*
D14*
X213648648Y-119337447D03*
%TD*%
D12*
%TO.P,D14,1*%
%TO.N,P1*%
X186572652Y-119337514D03*
D13*
X188732646Y-119337496D03*
%TO.P,D14,2*%
%TO.N,H37*%
X192032654Y-119337466D03*
D14*
X194192648Y-119337448D03*
%TD*%
D12*
%TO.P,D14,1*%
%TO.N,P3*%
X264396200Y-60881507D03*
D13*
X266556194Y-60881489D03*
%TO.P,D14,2*%
%TO.N,H011*%
X269856202Y-60881459D03*
D14*
X272016196Y-60881441D03*
%TD*%
D12*
%TO.P,D14,1*%
%TO.N,P7*%
X128204439Y-80381507D03*
D13*
X130364433Y-80381489D03*
%TO.P,D14,2*%
%TO.N,H14*%
X133664441Y-80381459D03*
D14*
X135824435Y-80381441D03*
%TD*%
D17*
%TO.P,,6*%
%TO.N,P1*%
X22803800Y-56401089D03*
%TD*%
D11*
%TO.P,REF\u002A\u002A,1*%
%TO.N,H37*%
X197467603Y-113227395D03*
%TO.P,REF\u002A\u002A,2*%
%TO.N,P5*%
X184540627Y-115767533D03*
%TD*%
%TO.P,REF\u002A\u002A,1*%
%TO.N,H01*%
X80731118Y-54771425D03*
%TO.P,REF\u002A\u002A,2*%
%TO.N,P0*%
X67804142Y-57311563D03*
%TD*%
%TO.P,REF\u002A\u002A,1*%
%TO.N,H310*%
X255835602Y-113227394D03*
%TO.P,REF\u002A\u002A,2*%
%TO.N,P7*%
X242908626Y-115767532D03*
%TD*%
D10*
%TO.P,REF\u002A\u002A,1*%
%TO.N,H34*%
X128514497Y-104687530D03*
%TO.P,REF\u002A\u002A,2*%
%TO.N,P3*%
X140514514Y-106887360D03*
%TD*%
D11*
%TO.P,REF\u002A\u002A,1*%
%TO.N,H09*%
X236379118Y-54771425D03*
%TO.P,REF\u002A\u002A,2*%
%TO.N,P6*%
X223452142Y-57311563D03*
%TD*%
%TO.P,REF\u002A\u002A,1*%
%TO.N,H02*%
X100187118Y-54771425D03*
%TO.P,REF\u002A\u002A,2*%
%TO.N,P1*%
X87260142Y-57311563D03*
%TD*%
D10*
%TO.P,REF\u002A\u002A,1*%
%TO.N,H26*%
X167426497Y-85231530D03*
%TO.P,REF\u002A\u002A,2*%
%TO.N,P4*%
X179426514Y-87431360D03*
%TD*%
%TO.P,REF\u002A\u002A,1*%
%TO.N,H03*%
X109058014Y-46231560D03*
%TO.P,REF\u002A\u002A,2*%
%TO.N,P2*%
X121058031Y-48431390D03*
%TD*%
D11*
%TO.P,REF\u002A\u002A,1*%
%TO.N,H23*%
X119643602Y-93771395D03*
%TO.P,REF\u002A\u002A,2*%
%TO.N,P2*%
X106716626Y-96311533D03*
%TD*%
D17*
%TO.P,,18*%
%TO.N,LED*%
X38043800Y-58941089D03*
%TD*%
D11*
%TO.P,REF\u002A\u002A,1*%
%TO.N,H24*%
X139099602Y-93771394D03*
%TO.P,REF\u002A\u002A,2*%
%TO.N,P3*%
X126172626Y-96311532D03*
%TD*%
%TO.P,REF\u002A\u002A,1*%
%TO.N,H111*%
X275291333Y-74271387D03*
%TO.P,REF\u002A\u002A,2*%
%TO.N,P7*%
X262364357Y-76811525D03*
%TD*%
D10*
%TO.P,REF\u002A\u002A,1*%
%TO.N,H20*%
X50690497Y-85231530D03*
%TO.P,REF\u002A\u002A,2*%
%TO.N,P0*%
X62690514Y-87431360D03*
%TD*%
D17*
%TO.P,,17*%
%TO.N,N/C*%
X38043800Y-61481090D03*
%TD*%
%TO.P,,8*%
%TO.N,N/C*%
X22803801Y-61481089D03*
%TD*%
D11*
%TO.P,REF\u002A\u002A,1*%
%TO.N,H27*%
X197467603Y-93771395D03*
%TO.P,REF\u002A\u002A,2*%
%TO.N,P5*%
X184540627Y-96311533D03*
%TD*%
D10*
%TO.P,REF\u002A\u002A,1*%
%TO.N,H22*%
X89602497Y-85231531D03*
%TO.P,REF\u002A\u002A,2*%
%TO.N,P1*%
X101602514Y-87431361D03*
%TD*%
D11*
%TO.P,REF\u002A\u002A,1*%
%TO.N,H21*%
X80731603Y-93771395D03*
%TO.P,REF\u002A\u002A,2*%
%TO.N,P1*%
X67804627Y-96311533D03*
%TD*%
D12*
%TO.P,D14,1*%
%TO.N,P1*%
X108748439Y-80381507D03*
D13*
X110908433Y-80381489D03*
%TO.P,D14,2*%
%TO.N,H13*%
X114208441Y-80381459D03*
D14*
X116368435Y-80381441D03*
%TD*%
D10*
%TO.P,REF\u002A\u002A,1*%
%TO.N,H310*%
X245250497Y-104687529D03*
%TO.P,REF\u002A\u002A,2*%
%TO.N,P7*%
X257250514Y-106887359D03*
%TD*%
D12*
%TO.P,D14,1*%
%TO.N,P3*%
X206028200Y-60881507D03*
D13*
X208188194Y-60881489D03*
%TO.P,D14,2*%
%TO.N,H08*%
X211488202Y-60881459D03*
D14*
X213648196Y-60881441D03*
%TD*%
D11*
%TO.P,REF\u002A\u002A,1*%
%TO.N,H30*%
X61275602Y-113227395D03*
%TO.P,REF\u002A\u002A,2*%
%TO.N,P0*%
X48348626Y-115767533D03*
%TD*%
D10*
%TO.P,REF\u002A\u002A,1*%
%TO.N,H14*%
X128514228Y-65731523D03*
%TO.P,REF\u002A\u002A,2*%
%TO.N,P2*%
X140514245Y-67931353D03*
%TD*%
D12*
%TO.P,D14,1*%
%TO.N,P6*%
X264396652Y-119337513D03*
D13*
X266556646Y-119337495D03*
%TO.P,D14,2*%
%TO.N,H311*%
X269856654Y-119337465D03*
D14*
X272016648Y-119337447D03*
%TD*%
D10*
%TO.P,REF\u002A\u002A,1*%
%TO.N,H010*%
X245250013Y-46231560D03*
%TO.P,REF\u002A\u002A,2*%
%TO.N,P6*%
X257250030Y-48431390D03*
%TD*%
D11*
%TO.P,REF\u002A\u002A,1*%
%TO.N,H210*%
X255835602Y-93771395D03*
%TO.P,REF\u002A\u002A,2*%
%TO.N,P7*%
X242908626Y-96311533D03*
%TD*%
D12*
%TO.P,D14,1*%
%TO.N,P5*%
X264396653Y-99881513D03*
D13*
X266556647Y-99881495D03*
%TO.P,D14,2*%
%TO.N,H211*%
X269856655Y-99881465D03*
D14*
X272016649Y-99881447D03*
%TD*%
D10*
%TO.P,REF\u002A\u002A,1*%
%TO.N,H39*%
X225794497Y-104687531D03*
%TO.P,REF\u002A\u002A,2*%
%TO.N,P6*%
X237794514Y-106887361D03*
%TD*%
D11*
%TO.P,REF\u002A\u002A,1*%
%TO.N,H35*%
X158555602Y-113227395D03*
%TO.P,REF\u002A\u002A,2*%
%TO.N,P3*%
X145628626Y-115767533D03*
%TD*%
D12*
%TO.P,D14,1*%
%TO.N,P0*%
X186572652Y-99881513D03*
D13*
X188732646Y-99881495D03*
%TO.P,D14,2*%
%TO.N,H27*%
X192032654Y-99881465D03*
D14*
X194192648Y-99881447D03*
%TD*%
D10*
%TO.P,REF\u002A\u002A,1*%
%TO.N,H211*%
X264706497Y-85231530D03*
%TO.P,REF\u002A\u002A,2*%
%TO.N,P7*%
X276706514Y-87431360D03*
%TD*%
D12*
%TO.P,D14,1*%
%TO.N,P7*%
X69836439Y-80381507D03*
D13*
X71996433Y-80381489D03*
%TO.P,D14,2*%
%TO.N,H11*%
X75296441Y-80381459D03*
D14*
X77456435Y-80381441D03*
%TD*%
D10*
%TO.P,REF\u002A\u002A,1*%
%TO.N,H05*%
X147970013Y-46231560D03*
%TO.P,REF\u002A\u002A,2*%
%TO.N,P3*%
X159970030Y-48431390D03*
%TD*%
D12*
%TO.P,D14,1*%
%TO.N,P2*%
X225484652Y-99881513D03*
D13*
X227644646Y-99881495D03*
%TO.P,D14,2*%
%TO.N,H29*%
X230944654Y-99881465D03*
D14*
X233104648Y-99881447D03*
%TD*%
D10*
%TO.P,REF\u002A\u002A,1*%
%TO.N,H32*%
X89602497Y-104687530D03*
%TO.P,REF\u002A\u002A,2*%
%TO.N,P1*%
X101602514Y-106887360D03*
%TD*%
D11*
%TO.P,REF\u002A\u002A,1*%
%TO.N,H110*%
X255835333Y-74271387D03*
%TO.P,REF\u002A\u002A,2*%
%TO.N,P6*%
X242908357Y-76811525D03*
%TD*%
D12*
%TO.P,D14,1*%
%TO.N,P6*%
X186572200Y-60881508D03*
D13*
X188732194Y-60881490D03*
%TO.P,D14,2*%
%TO.N,H07*%
X192032202Y-60881460D03*
D14*
X194192196Y-60881442D03*
%TD*%
D11*
%TO.P,REF\u002A\u002A,1*%
%TO.N,H08*%
X216923118Y-54771424D03*
%TO.P,REF\u002A\u002A,2*%
%TO.N,P5*%
X203996142Y-57311562D03*
%TD*%
%TO.P,REF\u002A\u002A,1*%
%TO.N,H19*%
X236379335Y-74271387D03*
%TO.P,REF\u002A\u002A,2*%
%TO.N,P6*%
X223452359Y-76811525D03*
%TD*%
D17*
%TO.P,,2*%
%TO.N,G*%
X22803800Y-46241089D03*
%TD*%
D11*
%TO.P,REF\u002A\u002A,1*%
%TO.N,H17*%
X197467333Y-74271387D03*
%TO.P,REF\u002A\u002A,2*%
%TO.N,P4*%
X184540357Y-76811525D03*
%TD*%
D12*
%TO.P,D14,1*%
%TO.N,P6*%
X147660652Y-99881513D03*
D13*
X149820646Y-99881495D03*
%TO.P,D14,2*%
%TO.N,H25*%
X153120654Y-99881465D03*
D14*
X155280648Y-99881447D03*
%TD*%
D12*
%TO.P,D14,1*%
%TO.N,P4*%
X206028440Y-80381506D03*
D13*
X208188434Y-80381488D03*
%TO.P,D14,2*%
%TO.N,H18*%
X211488442Y-80381458D03*
D14*
X213648436Y-80381440D03*
%TD*%
D17*
%TO.P,,21*%
%TO.N,CONN_A*%
X38043800Y-51321089D03*
%TD*%
D12*
%TO.P,D14,1*%
%TO.N,P1*%
X244940652Y-99881513D03*
D13*
X247100646Y-99881495D03*
%TO.P,D14,2*%
%TO.N,H210*%
X250400654Y-99881465D03*
D14*
X252560648Y-99881447D03*
%TD*%
D11*
%TO.P,REF\u002A\u002A,1*%
%TO.N,H39*%
X236379602Y-113227396D03*
%TO.P,REF\u002A\u002A,2*%
%TO.N,P6*%
X223452626Y-115767534D03*
%TD*%
D12*
%TO.P,D14,1*%
%TO.N,P0*%
X69836652Y-99881514D03*
D13*
X71996646Y-99881496D03*
%TO.P,D14,2*%
%TO.N,H21*%
X75296654Y-99881466D03*
D14*
X77456648Y-99881448D03*
%TD*%
D10*
%TO.P,REF\u002A\u002A,1*%
%TO.N,H23*%
X109058497Y-85231530D03*
%TO.P,REF\u002A\u002A,2*%
%TO.N,P2*%
X121058514Y-87431360D03*
%TD*%
%TO.P,REF\u002A\u002A,1*%
%TO.N,H19*%
X225794230Y-65731522D03*
%TO.P,REF\u002A\u002A,2*%
%TO.N,P6*%
X237794247Y-67931352D03*
%TD*%
%TO.P,REF\u002A\u002A,1*%
%TO.N,H13*%
X109058228Y-65731522D03*
%TO.P,REF\u002A\u002A,2*%
%TO.N,P2*%
X121058245Y-67931352D03*
%TD*%
%TO.P,REF\u002A\u002A,1*%
%TO.N,H04*%
X128514013Y-46231560D03*
%TO.P,REF\u002A\u002A,2*%
%TO.N,P2*%
X140514030Y-48431390D03*
%TD*%
D11*
%TO.P,REF\u002A\u002A,1*%
%TO.N,H29*%
X236379602Y-93771395D03*
%TO.P,REF\u002A\u002A,2*%
%TO.N,P6*%
X223452626Y-96311533D03*
%TD*%
D12*
%TO.P,D14,1*%
%TO.N,P4*%
X89292439Y-80381507D03*
D13*
X91452433Y-80381489D03*
%TO.P,D14,2*%
%TO.N,H12*%
X94752441Y-80381459D03*
D14*
X96912435Y-80381441D03*
%TD*%
D10*
%TO.P,REF\u002A\u002A,1*%
%TO.N,H33*%
X109058497Y-104687530D03*
%TO.P,REF\u002A\u002A,2*%
%TO.N,P2*%
X121058514Y-106887360D03*
%TD*%
D11*
%TO.P,REF\u002A\u002A,1*%
%TO.N,H31*%
X80731602Y-113227395D03*
%TO.P,REF\u002A\u002A,2*%
%TO.N,P1*%
X67804626Y-115767533D03*
%TD*%
D12*
%TO.P,D14,1*%
%TO.N,P4*%
X244940200Y-60881507D03*
D13*
X247100194Y-60881489D03*
%TO.P,D14,2*%
%TO.N,H010*%
X250400202Y-60881459D03*
D14*
X252560196Y-60881441D03*
%TD*%
D10*
%TO.P,REF\u002A\u002A,1*%
%TO.N,H210*%
X245250497Y-85231530D03*
%TO.P,REF\u002A\u002A,2*%
%TO.N,P7*%
X257250514Y-87431360D03*
%TD*%
D12*
%TO.P,D14,1*%
%TO.N,P2*%
X50380200Y-60881507D03*
D13*
X52540194Y-60881489D03*
%TO.P,D14,2*%
%TO.N,H00*%
X55840202Y-60881459D03*
D14*
X58000196Y-60881441D03*
%TD*%
D19*
%TO.P,REF\u002A\u002A,1*%
%TO.N,5V*%
X241142513Y-87679547D03*
%TO.P,REF\u002A\u002A,2*%
%TO.N,L34*%
X241142513Y-89179547D03*
D20*
%TO.P,REF\u002A\u002A,3*%
%TO.N,G*%
X246242513Y-89179547D03*
D21*
%TO.P,REF\u002A\u002A,4*%
%TO.N,L33*%
X246242513Y-87679547D03*
%TD*%
D19*
%TO.P,REF\u002A\u002A,1*%
%TO.N,5V*%
X202230030Y-48679608D03*
%TO.P,REF\u002A\u002A,2*%
%TO.N,L8*%
X202230030Y-50179608D03*
D20*
%TO.P,REF\u002A\u002A,3*%
%TO.N,G*%
X207330030Y-50179608D03*
D21*
%TO.P,REF\u002A\u002A,4*%
%TO.N,L7*%
X207330030Y-48679608D03*
%TD*%
D22*
%TO.P,REF\u002A\u002A,1*%
%TO.N,PU*%
X42760013Y-50150558D03*
%TO.P,REF\u002A\u002A,2*%
%TO.N,O-*%
X42760013Y-52050558D03*
%TO.P,REF\u002A\u002A,3*%
%TO.N,G*%
X40885013Y-51100558D03*
%TD*%
D19*
%TO.P,REF\u002A\u002A,1*%
%TO.N,5V*%
X260598028Y-48679577D03*
%TO.P,REF\u002A\u002A,2*%
%TO.N,L11*%
X260598028Y-50179577D03*
D20*
%TO.P,REF\u002A\u002A,3*%
%TO.N,G*%
X265698028Y-50179577D03*
D21*
%TO.P,REF\u002A\u002A,4*%
%TO.N,L10*%
X265698028Y-48679577D03*
%TD*%
D23*
%TO.P,REF\u002A\u002A,1*%
%TO.N,I+*%
X41882508Y-46225551D03*
%TO.P,REF\u002A\u002A,2*%
%TO.N,5V*%
X44382518Y-46225544D03*
%TO.P,REF\u002A\u002A,3*%
%TO.N,O+*%
X46882501Y-46225555D03*
%TD*%
D19*
%TO.P,REF\u002A\u002A,1*%
%TO.N,5V*%
X85494246Y-68179539D03*
%TO.P,REF\u002A\u002A,2*%
%TO.N,L21*%
X85494246Y-69679539D03*
D20*
%TO.P,REF\u002A\u002A,3*%
%TO.N,G*%
X90594246Y-69679539D03*
D21*
%TO.P,REF\u002A\u002A,4*%
%TO.N,L20*%
X90594246Y-68179539D03*
%TD*%
D19*
%TO.P,REF\u002A\u002A,1*%
%TO.N,5V*%
X143862513Y-107135608D03*
%TO.P,REF\u002A\u002A,2*%
%TO.N,L42*%
X143862513Y-108635608D03*
D20*
%TO.P,REF\u002A\u002A,3*%
%TO.N,G*%
X148962513Y-108635608D03*
D21*
%TO.P,REF\u002A\u002A,4*%
%TO.N,L41*%
X148962513Y-107135608D03*
%TD*%
D19*
%TO.P,REF\u002A\u002A,1*%
%TO.N,5V*%
X241142513Y-107135608D03*
%TO.P,REF\u002A\u002A,2*%
%TO.N,L37*%
X241142513Y-108635608D03*
D20*
%TO.P,REF\u002A\u002A,3*%
%TO.N,G*%
X246242513Y-108635608D03*
D21*
%TO.P,REF\u002A\u002A,4*%
%TO.N,L36*%
X246242513Y-107135608D03*
%TD*%
D19*
%TO.P,REF\u002A\u002A,1*%
%TO.N,5V*%
X104950029Y-48679577D03*
%TO.P,REF\u002A\u002A,2*%
%TO.N,L3*%
X104950029Y-50179577D03*
D20*
%TO.P,REF\u002A\u002A,3*%
%TO.N,G*%
X110050029Y-50179577D03*
D21*
%TO.P,REF\u002A\u002A,4*%
%TO.N,L2*%
X110050029Y-48679577D03*
%TD*%
D19*
%TO.P,REF\u002A\u002A,1*%
%TO.N,5V*%
X66038513Y-87679608D03*
%TO.P,REF\u002A\u002A,2*%
%TO.N,L25*%
X66038513Y-89179608D03*
D20*
%TO.P,REF\u002A\u002A,3*%
%TO.N,G*%
X71138513Y-89179608D03*
D21*
%TO.P,REF\u002A\u002A,4*%
%TO.N,L24*%
X71138513Y-87679608D03*
%TD*%
D14*
%TO.P,,4*%
%TO.N,O+*%
X23717525Y-100770501D03*
%TD*%
D24*
%TO.P,REF\u002A\u002A,1*%
%TO.N,I+*%
X23717674Y-79280499D03*
%TD*%
D19*
%TO.P,REF\u002A\u002A,1*%
%TO.N,5V*%
X260598513Y-87679607D03*
%TO.P,REF\u002A\u002A,2*%
%TO.N,L35*%
X260598513Y-89179607D03*
D20*
%TO.P,REF\u002A\u002A,3*%
%TO.N,G*%
X265698513Y-89179607D03*
D21*
%TO.P,REF\u002A\u002A,4*%
%TO.N,L34*%
X265698513Y-87679607D03*
%TD*%
D19*
%TO.P,REF\u002A\u002A,1*%
%TO.N,5V*%
X124406513Y-107135547D03*
%TO.P,REF\u002A\u002A,2*%
%TO.N,L43*%
X124406513Y-108635547D03*
D20*
%TO.P,REF\u002A\u002A,3*%
%TO.N,G*%
X129506513Y-108635547D03*
D21*
%TO.P,REF\u002A\u002A,4*%
%TO.N,L42*%
X129506513Y-107135547D03*
%TD*%
D14*
%TO.P,,4*%
%TO.N,B-*%
X34212513Y-100770558D03*
%TD*%
D19*
%TO.P,REF\u002A\u002A,1*%
%TO.N,5V*%
X241142244Y-68179508D03*
%TO.P,REF\u002A\u002A,2*%
%TO.N,L13*%
X241142244Y-69679508D03*
D20*
%TO.P,REF\u002A\u002A,3*%
%TO.N,G*%
X246242244Y-69679508D03*
D21*
%TO.P,REF\u002A\u002A,4*%
%TO.N,L12*%
X246242244Y-68179508D03*
%TD*%
D25*
%TO.P,REF\u002A\u002A,1*%
%TO.N,P3*%
X20442513Y-54640559D03*
%TO.P,REF\u002A\u002A,2*%
%TO.N,3V*%
X18727573Y-55264743D03*
%TD*%
D26*
%TO.P,REF\u002A\u002A,1*%
%TO.N,O+*%
X23717525Y-100770501D03*
%TD*%
D27*
%TO.P,REF\u002A\u002A,1*%
%TO.N,CONN_B*%
X38043800Y-66561088D03*
D28*
%TO.P,REF\u002A\u002A,2*%
%TO.N,SDA*%
X38043800Y-67861088D03*
%TD*%
D26*
%TO.P,REF\u002A\u002A,1*%
%TO.N,B+*%
X26722521Y-94510506D03*
%TD*%
%TO.P,REF\u002A\u002A,1*%
%TO.N,B+*%
X26727634Y-107835508D03*
%TD*%
D19*
%TO.P,REF\u002A\u002A,1*%
%TO.N,5V*%
X182774244Y-68179509D03*
%TO.P,REF\u002A\u002A,2*%
%TO.N,L16*%
X182774244Y-69679509D03*
D20*
%TO.P,REF\u002A\u002A,3*%
%TO.N,G*%
X187874244Y-69679509D03*
D21*
%TO.P,REF\u002A\u002A,4*%
%TO.N,L15*%
X187874244Y-68179509D03*
%TD*%
D19*
%TO.P,REF\u002A\u002A,1*%
%TO.N,5V*%
X202230244Y-68179508D03*
%TO.P,REF\u002A\u002A,2*%
%TO.N,L15*%
X202230244Y-69679508D03*
D20*
%TO.P,REF\u002A\u002A,3*%
%TO.N,G*%
X207330244Y-69679508D03*
D21*
%TO.P,REF\u002A\u002A,4*%
%TO.N,L14*%
X207330244Y-68179508D03*
%TD*%
D14*
%TO.P,,4*%
%TO.N,B+*%
X26722521Y-100770505D03*
%TD*%
D26*
%TO.P,REF\u002A\u002A,1*%
%TO.N,O+*%
X23717525Y-94510500D03*
%TD*%
D27*
%TO.P,REF\u002A\u002A,1*%
%TO.N,CONN_B*%
X22803800Y-66561089D03*
D28*
%TO.P,REF\u002A\u002A,2*%
%TO.N,SCL*%
X22803800Y-67861089D03*
%TD*%
D19*
%TO.P,REF\u002A\u002A,1*%
%TO.N,5V*%
X124406029Y-48679608D03*
%TO.P,REF\u002A\u002A,2*%
%TO.N,L4*%
X124406029Y-50179608D03*
D20*
%TO.P,REF\u002A\u002A,3*%
%TO.N,G*%
X129506029Y-50179608D03*
D21*
%TO.P,REF\u002A\u002A,4*%
%TO.N,L3*%
X129506029Y-48679608D03*
%TD*%
D19*
%TO.P,REF\u002A\u002A,1*%
%TO.N,5V*%
X46582514Y-87679547D03*
%TO.P,REF\u002A\u002A,2*%
%TO.N,L24*%
X46582514Y-89179547D03*
D20*
%TO.P,REF\u002A\u002A,3*%
%TO.N,G*%
X51682514Y-89179547D03*
D21*
%TO.P,REF\u002A\u002A,4*%
%TO.N,L23*%
X51682514Y-87679547D03*
%TD*%
D19*
%TO.P,REF\u002A\u002A,1*%
%TO.N,5V*%
X124406513Y-87679547D03*
%TO.P,REF\u002A\u002A,2*%
%TO.N,L28*%
X124406513Y-89179547D03*
D20*
%TO.P,REF\u002A\u002A,3*%
%TO.N,G*%
X129506513Y-89179547D03*
D21*
%TO.P,REF\u002A\u002A,4*%
%TO.N,L27*%
X129506513Y-87679547D03*
%TD*%
D25*
%TO.P,REF\u002A\u002A,1*%
%TO.N,P4*%
X20442513Y-57180559D03*
%TO.P,REF\u002A\u002A,2*%
%TO.N,3V*%
X18727573Y-57804743D03*
%TD*%
D19*
%TO.P,REF\u002A\u002A,1*%
%TO.N,5V*%
X163318513Y-107135607D03*
%TO.P,REF\u002A\u002A,2*%
%TO.N,L41*%
X163318513Y-108635607D03*
D20*
%TO.P,REF\u002A\u002A,3*%
%TO.N,G*%
X168418513Y-108635607D03*
D21*
%TO.P,REF\u002A\u002A,4*%
%TO.N,L40*%
X168418513Y-107135607D03*
%TD*%
D26*
%TO.P,REF\u002A\u002A,1*%
%TO.N,B-*%
X34212513Y-94510559D03*
%TD*%
D19*
%TO.P,REF\u002A\u002A,1*%
%TO.N,5V*%
X182774513Y-107135547D03*
%TO.P,REF\u002A\u002A,2*%
%TO.N,L40*%
X182774513Y-108635547D03*
D20*
%TO.P,REF\u002A\u002A,3*%
%TO.N,G*%
X187874513Y-108635547D03*
D21*
%TO.P,REF\u002A\u002A,4*%
%TO.N,L39*%
X187874513Y-107135547D03*
%TD*%
D19*
%TO.P,REF\u002A\u002A,1*%
%TO.N,5V*%
X104950244Y-68179508D03*
%TO.P,REF\u002A\u002A,2*%
%TO.N,L20*%
X104950244Y-69679508D03*
D20*
%TO.P,REF\u002A\u002A,3*%
%TO.N,G*%
X110050244Y-69679508D03*
D21*
%TO.P,REF\u002A\u002A,4*%
%TO.N,L19*%
X110050244Y-68179508D03*
%TD*%
D19*
%TO.P,REF\u002A\u002A,1*%
%TO.N,5V*%
X221686513Y-107135547D03*
%TO.P,REF\u002A\u002A,2*%
%TO.N,L38*%
X221686513Y-108635547D03*
D20*
%TO.P,REF\u002A\u002A,3*%
%TO.N,G*%
X226786513Y-108635547D03*
D21*
%TO.P,REF\u002A\u002A,4*%
%TO.N,L37*%
X226786513Y-107135547D03*
%TD*%
D14*
%TO.P,,4*%
%TO.N,O+*%
X23717525Y-94510500D03*
%TD*%
%TO.P,,4*%
%TO.N,O-*%
X37217529Y-100770592D03*
%TD*%
D25*
%TO.P,REF\u002A\u002A,1*%
%TO.N,P0*%
X20442513Y-47020559D03*
%TO.P,REF\u002A\u002A,2*%
%TO.N,3V*%
X18727573Y-47644743D03*
%TD*%
D19*
%TO.P,REF\u002A\u002A,1*%
%TO.N,5V*%
X221686244Y-68179507D03*
%TO.P,REF\u002A\u002A,2*%
%TO.N,L14*%
X221686244Y-69679507D03*
D20*
%TO.P,REF\u002A\u002A,3*%
%TO.N,G*%
X226786244Y-69679507D03*
D21*
%TO.P,REF\u002A\u002A,4*%
%TO.N,L13*%
X226786244Y-68179507D03*
%TD*%
D26*
%TO.P,REF\u002A\u002A,1*%
%TO.N,O-*%
X37217529Y-94510593D03*
%TD*%
D19*
%TO.P,REF\u002A\u002A,1*%
%TO.N,5V*%
X260598244Y-68179508D03*
%TO.P,REF\u002A\u002A,2*%
%TO.N,L12*%
X260598244Y-69679508D03*
D20*
%TO.P,REF\u002A\u002A,3*%
%TO.N,G*%
X265698244Y-69679508D03*
D21*
%TO.P,REF\u002A\u002A,4*%
%TO.N,L11*%
X265698244Y-68179508D03*
%TD*%
D19*
%TO.P,REF\u002A\u002A,1*%
%TO.N,5V*%
X163318029Y-48679608D03*
%TO.P,REF\u002A\u002A,2*%
%TO.N,L6*%
X163318029Y-50179608D03*
D20*
%TO.P,REF\u002A\u002A,3*%
%TO.N,G*%
X168418029Y-50179608D03*
D21*
%TO.P,REF\u002A\u002A,4*%
%TO.N,L5*%
X168418029Y-48679608D03*
%TD*%
D27*
%TO.P,REF\u002A\u002A,1*%
%TO.N,CONN_C*%
X40583800Y-66561090D03*
D28*
%TO.P,REF\u002A\u002A,2*%
%TO.N,SCL*%
X40583800Y-67861090D03*
%TD*%
D25*
%TO.P,REF\u002A\u002A,1*%
%TO.N,P1*%
X20442513Y-49560559D03*
%TO.P,REF\u002A\u002A,2*%
%TO.N,3V*%
X18727573Y-50184743D03*
%TD*%
D19*
%TO.P,REF\u002A\u002A,1*%
%TO.N,5V*%
X163318512Y-87679547D03*
%TO.P,REF\u002A\u002A,2*%
%TO.N,L30*%
X163318512Y-89179547D03*
D20*
%TO.P,REF\u002A\u002A,3*%
%TO.N,G*%
X168418512Y-89179547D03*
D21*
%TO.P,REF\u002A\u002A,4*%
%TO.N,L29*%
X168418512Y-87679547D03*
%TD*%
D24*
%TO.P,REF\u002A\u002A,1*%
%TO.N,I-*%
X37217678Y-79280576D03*
%TD*%
D25*
%TO.P,REF\u002A\u002A,1*%
%TO.N,P5*%
X20442512Y-59720559D03*
%TO.P,REF\u002A\u002A,2*%
%TO.N,3V*%
X18727572Y-60344743D03*
%TD*%
D19*
%TO.P,REF\u002A\u002A,1*%
%TO.N,5V*%
X182774513Y-87679547D03*
%TO.P,REF\u002A\u002A,2*%
%TO.N,L31*%
X182774513Y-89179547D03*
D20*
%TO.P,REF\u002A\u002A,3*%
%TO.N,G*%
X187874513Y-89179547D03*
D21*
%TO.P,REF\u002A\u002A,4*%
%TO.N,L30*%
X187874513Y-87679547D03*
%TD*%
D29*
%TO.P,REF\u002A\u002A,1*%
%TO.N,P7*%
X31336300Y-67211088D03*
%TO.P,REF\u002A\u002A,2*%
%TO.N,3V*%
X29511300Y-67211090D03*
%TD*%
D19*
%TO.P,REF\u002A\u002A,1*%
%TO.N,5V*%
X85494029Y-48679577D03*
%TO.P,REF\u002A\u002A,2*%
%TO.N,L2*%
X85494029Y-50179577D03*
D20*
%TO.P,REF\u002A\u002A,3*%
%TO.N,G*%
X90594029Y-50179577D03*
D21*
%TO.P,REF\u002A\u002A,4*%
%TO.N,L1*%
X90594029Y-48679577D03*
%TD*%
D14*
%TO.P,,4*%
%TO.N,B+*%
X26722521Y-94510506D03*
%TD*%
%TO.P,,4*%
%TO.N,I-*%
X37217678Y-79280576D03*
%TD*%
D26*
%TO.P,REF\u002A\u002A,1*%
%TO.N,B-*%
X34212513Y-100770558D03*
%TD*%
D19*
%TO.P,REF\u002A\u002A,1*%
%TO.N,5V*%
X104950514Y-107135608D03*
%TO.P,REF\u002A\u002A,2*%
%TO.N,L44*%
X104950514Y-108635608D03*
D20*
%TO.P,REF\u002A\u002A,3*%
%TO.N,G*%
X110050514Y-108635608D03*
D21*
%TO.P,REF\u002A\u002A,4*%
%TO.N,L43*%
X110050514Y-107135608D03*
%TD*%
D19*
%TO.P,REF\u002A\u002A,1*%
%TO.N,5V*%
X221686513Y-87679547D03*
%TO.P,REF\u002A\u002A,2*%
%TO.N,L33*%
X221686513Y-89179547D03*
D20*
%TO.P,REF\u002A\u002A,3*%
%TO.N,G*%
X226786513Y-89179547D03*
D21*
%TO.P,REF\u002A\u002A,4*%
%TO.N,L32*%
X226786513Y-87679547D03*
%TD*%
D19*
%TO.P,REF\u002A\u002A,1*%
%TO.N,5V*%
X221686029Y-48679608D03*
%TO.P,REF\u002A\u002A,2*%
%TO.N,L9*%
X221686029Y-50179608D03*
D20*
%TO.P,REF\u002A\u002A,3*%
%TO.N,G*%
X226786029Y-50179608D03*
D21*
%TO.P,REF\u002A\u002A,4*%
%TO.N,L8*%
X226786029Y-48679608D03*
%TD*%
D19*
%TO.P,REF\u002A\u002A,1*%
%TO.N,5V*%
X124406244Y-68179539D03*
%TO.P,REF\u002A\u002A,2*%
%TO.N,L19*%
X124406244Y-69679539D03*
D20*
%TO.P,REF\u002A\u002A,3*%
%TO.N,G*%
X129506244Y-69679539D03*
D21*
%TO.P,REF\u002A\u002A,4*%
%TO.N,L18*%
X129506244Y-68179539D03*
%TD*%
D27*
%TO.P,REF\u002A\u002A,1*%
%TO.N,CONN_A*%
X20263800Y-66561089D03*
D28*
%TO.P,REF\u002A\u002A,2*%
%TO.N,SDA*%
X20263800Y-67861089D03*
%TD*%
D14*
%TO.P,,4*%
%TO.N,B+*%
X26727634Y-107835508D03*
%TD*%
D27*
%TO.P,REF\u002A\u002A,1*%
%TO.N,CONN_A*%
X35503802Y-66561089D03*
D28*
%TO.P,REF\u002A\u002A,2*%
%TO.N,P7*%
X35503802Y-67861089D03*
%TD*%
D19*
%TO.P,REF\u002A\u002A,1*%
%TO.N,5V*%
X46582513Y-107135558D03*
%TO.P,REF\u002A\u002A,2*%
%TO.N,N/C*%
X46582513Y-108635558D03*
D20*
%TO.P,REF\u002A\u002A,3*%
%TO.N,G*%
X51682513Y-108635558D03*
D21*
%TO.P,REF\u002A\u002A,4*%
%TO.N,L46*%
X51682513Y-107135558D03*
%TD*%
D19*
%TO.P,REF\u002A\u002A,1*%
%TO.N,5V*%
X202230513Y-107135547D03*
%TO.P,REF\u002A\u002A,2*%
%TO.N,L39*%
X202230513Y-108635547D03*
D20*
%TO.P,REF\u002A\u002A,3*%
%TO.N,G*%
X207330513Y-108635547D03*
D21*
%TO.P,REF\u002A\u002A,4*%
%TO.N,L38*%
X207330513Y-107135547D03*
%TD*%
D19*
%TO.P,REF\u002A\u002A,1*%
%TO.N,5V*%
X202230514Y-87679608D03*
%TO.P,REF\u002A\u002A,2*%
%TO.N,L32*%
X202230514Y-89179608D03*
D20*
%TO.P,REF\u002A\u002A,3*%
%TO.N,G*%
X207330514Y-89179608D03*
D21*
%TO.P,REF\u002A\u002A,4*%
%TO.N,L31*%
X207330514Y-87679608D03*
%TD*%
D19*
%TO.P,REF\u002A\u002A,1*%
%TO.N,5V*%
X260598512Y-107135547D03*
%TO.P,REF\u002A\u002A,2*%
%TO.N,L36*%
X260598512Y-108635547D03*
D20*
%TO.P,REF\u002A\u002A,3*%
%TO.N,G*%
X265698512Y-108635547D03*
D21*
%TO.P,REF\u002A\u002A,4*%
%TO.N,L35*%
X265698512Y-107135547D03*
%TD*%
D19*
%TO.P,REF\u002A\u002A,1*%
%TO.N,5V*%
X85494513Y-87679547D03*
%TO.P,REF\u002A\u002A,2*%
%TO.N,L26*%
X85494513Y-89179547D03*
D20*
%TO.P,REF\u002A\u002A,3*%
%TO.N,G*%
X90594513Y-89179547D03*
D21*
%TO.P,REF\u002A\u002A,4*%
%TO.N,L25*%
X90594513Y-87679547D03*
%TD*%
D19*
%TO.P,REF\u002A\u002A,1*%
%TO.N,5V*%
X182774029Y-48679608D03*
%TO.P,REF\u002A\u002A,2*%
%TO.N,L7*%
X182774029Y-50179608D03*
D20*
%TO.P,REF\u002A\u002A,3*%
%TO.N,G*%
X187874029Y-50179608D03*
D21*
%TO.P,REF\u002A\u002A,4*%
%TO.N,L6*%
X187874029Y-48679608D03*
%TD*%
D19*
%TO.P,REF\u002A\u002A,1*%
%TO.N,5V*%
X143862244Y-68179508D03*
%TO.P,REF\u002A\u002A,2*%
%TO.N,L18*%
X143862244Y-69679508D03*
D20*
%TO.P,REF\u002A\u002A,3*%
%TO.N,G*%
X148962244Y-69679508D03*
D21*
%TO.P,REF\u002A\u002A,4*%
%TO.N,L17*%
X148962244Y-68179508D03*
%TD*%
D14*
%TO.P,,4*%
%TO.N,I+*%
X23717674Y-79280499D03*
%TD*%
D19*
%TO.P,REF\u002A\u002A,1*%
%TO.N,5V*%
X66038512Y-107135547D03*
%TO.P,REF\u002A\u002A,2*%
%TO.N,L46*%
X66038512Y-108635547D03*
D20*
%TO.P,REF\u002A\u002A,3*%
%TO.N,G*%
X71138512Y-108635547D03*
D21*
%TO.P,REF\u002A\u002A,4*%
%TO.N,L45*%
X71138512Y-107135547D03*
%TD*%
D25*
%TO.P,REF\u002A\u002A,1*%
%TO.N,P2*%
X20442513Y-52100559D03*
%TO.P,REF\u002A\u002A,2*%
%TO.N,3V*%
X18727573Y-52724743D03*
%TD*%
D26*
%TO.P,REF\u002A\u002A,1*%
%TO.N,O-*%
X37217529Y-100770592D03*
%TD*%
D19*
%TO.P,REF\u002A\u002A,1*%
%TO.N,5V*%
X143862512Y-87679547D03*
%TO.P,REF\u002A\u002A,2*%
%TO.N,L29*%
X143862512Y-89179547D03*
D20*
%TO.P,REF\u002A\u002A,3*%
%TO.N,G*%
X148962512Y-89179547D03*
D21*
%TO.P,REF\u002A\u002A,4*%
%TO.N,L28*%
X148962512Y-87679547D03*
%TD*%
D19*
%TO.P,REF\u002A\u002A,1*%
%TO.N,5V*%
X143862029Y-48679577D03*
%TO.P,REF\u002A\u002A,2*%
%TO.N,L5*%
X143862029Y-50179577D03*
D20*
%TO.P,REF\u002A\u002A,3*%
%TO.N,G*%
X148962029Y-50179577D03*
D21*
%TO.P,REF\u002A\u002A,4*%
%TO.N,L4*%
X148962029Y-48679577D03*
%TD*%
D14*
%TO.P,,4*%
%TO.N,B-*%
X34217625Y-107835560D03*
%TD*%
D19*
%TO.P,REF\u002A\u002A,1*%
%TO.N,5V*%
X104950514Y-87679608D03*
%TO.P,REF\u002A\u002A,2*%
%TO.N,L27*%
X104950514Y-89179608D03*
D20*
%TO.P,REF\u002A\u002A,3*%
%TO.N,G*%
X110050514Y-89179608D03*
D21*
%TO.P,REF\u002A\u002A,4*%
%TO.N,L26*%
X110050514Y-87679608D03*
%TD*%
D22*
%TO.P,REF\u002A\u002A,1*%
%TO.N,I+*%
X42760013Y-54150558D03*
%TO.P,REF\u002A\u002A,2*%
%TO.N,G*%
X42760013Y-56050558D03*
%TO.P,REF\u002A\u002A,3*%
%TO.N,PU*%
X40885013Y-55100558D03*
%TD*%
D26*
%TO.P,REF\u002A\u002A,1*%
%TO.N,B-*%
X34217625Y-107835560D03*
%TD*%
D14*
%TO.P,,4*%
%TO.N,B-*%
X34212513Y-94510559D03*
%TD*%
D30*
%TO.P,REF\u002A\u002A,1*%
%TO.N,PU*%
X43123799Y-66298589D03*
%TO.P,REF\u002A\u002A,2*%
%TO.N,3V*%
X43123801Y-68123589D03*
%TD*%
D19*
%TO.P,REF\u002A\u002A,1*%
%TO.N,5V*%
X163318244Y-68179539D03*
%TO.P,REF\u002A\u002A,2*%
%TO.N,L17*%
X163318244Y-69679539D03*
D20*
%TO.P,REF\u002A\u002A,3*%
%TO.N,G*%
X168418244Y-69679539D03*
D21*
%TO.P,REF\u002A\u002A,4*%
%TO.N,L16*%
X168418244Y-68179539D03*
%TD*%
D19*
%TO.P,REF\u002A\u002A,1*%
%TO.N,5V*%
X46582029Y-48679577D03*
%TO.P,REF\u002A\u002A,2*%
%TO.N,L0*%
X46582029Y-50179577D03*
D20*
%TO.P,REF\u002A\u002A,3*%
%TO.N,G*%
X51682029Y-50179577D03*
D21*
%TO.P,REF\u002A\u002A,4*%
%TO.N,LED*%
X51682029Y-48679577D03*
%TD*%
D14*
%TO.P,,4*%
%TO.N,O-*%
X37217529Y-94510593D03*
%TD*%
D22*
%TO.P,REF\u002A\u002A,1*%
%TO.N,I+*%
X42760014Y-58150559D03*
%TO.P,REF\u002A\u002A,2*%
%TO.N,I-*%
X42760014Y-60050559D03*
%TO.P,REF\u002A\u002A,3*%
%TO.N,G*%
X40885014Y-59100559D03*
%TD*%
D19*
%TO.P,REF\u002A\u002A,1*%
%TO.N,5V*%
X66038244Y-68179539D03*
%TO.P,REF\u002A\u002A,2*%
%TO.N,L22*%
X66038244Y-69679539D03*
D20*
%TO.P,REF\u002A\u002A,3*%
%TO.N,G*%
X71138244Y-69679539D03*
D21*
%TO.P,REF\u002A\u002A,4*%
%TO.N,L21*%
X71138244Y-68179539D03*
%TD*%
D27*
%TO.P,REF\u002A\u002A,1*%
%TO.N,CONN_C*%
X25343801Y-66561089D03*
D28*
%TO.P,REF\u002A\u002A,2*%
%TO.N,P7*%
X25343801Y-67861089D03*
%TD*%
D19*
%TO.P,REF\u002A\u002A,1*%
%TO.N,5V*%
X66038029Y-48679576D03*
%TO.P,REF\u002A\u002A,2*%
%TO.N,L1*%
X66038029Y-50179576D03*
D20*
%TO.P,REF\u002A\u002A,3*%
%TO.N,G*%
X71138029Y-50179576D03*
D21*
%TO.P,REF\u002A\u002A,4*%
%TO.N,L0*%
X71138029Y-48679576D03*
%TD*%
D25*
%TO.P,REF\u002A\u002A,1*%
%TO.N,P6*%
X20442513Y-62260559D03*
%TO.P,REF\u002A\u002A,2*%
%TO.N,3V*%
X18727573Y-62884743D03*
%TD*%
D26*
%TO.P,REF\u002A\u002A,1*%
%TO.N,B+*%
X26722521Y-100770505D03*
%TD*%
D19*
%TO.P,REF\u002A\u002A,1*%
%TO.N,5V*%
X85494513Y-107135608D03*
%TO.P,REF\u002A\u002A,2*%
%TO.N,L45*%
X85494513Y-108635608D03*
D20*
%TO.P,REF\u002A\u002A,3*%
%TO.N,G*%
X90594513Y-108635608D03*
D21*
%TO.P,REF\u002A\u002A,4*%
%TO.N,L44*%
X90594513Y-107135608D03*
%TD*%
D19*
%TO.P,REF\u002A\u002A,1*%
%TO.N,5V*%
X241142029Y-48679578D03*
%TO.P,REF\u002A\u002A,2*%
%TO.N,L10*%
X241142029Y-50179578D03*
D20*
%TO.P,REF\u002A\u002A,3*%
%TO.N,G*%
X246242029Y-50179578D03*
D21*
%TO.P,REF\u002A\u002A,4*%
%TO.N,L9*%
X246242029Y-48679578D03*
%TD*%
D19*
%TO.P,REF\u002A\u002A,1*%
%TO.N,5V*%
X46582244Y-68179508D03*
%TO.P,REF\u002A\u002A,2*%
%TO.N,L23*%
X46582244Y-69679508D03*
D20*
%TO.P,REF\u002A\u002A,3*%
%TO.N,G*%
X51682244Y-69679508D03*
D21*
%TO.P,REF\u002A\u002A,4*%
%TO.N,L22*%
X51682244Y-68179508D03*
%TD*%
D31*
%TO.N,5V*%
X144710000Y-47020000D03*
X242670000Y-46560000D03*
X85860000Y-47280000D03*
X125047669Y-47157218D03*
X203450000Y-46880000D03*
X261890000Y-46760000D03*
X43967133Y-43855178D03*
X164360000Y-47050000D03*
X183910000Y-46880000D03*
X222556439Y-46766439D03*
X66287927Y-47400541D03*
X105341420Y-47241420D03*
%TO.N,G*%
X264670000Y-53480000D03*
X157130000Y-109100000D03*
X206540000Y-110190000D03*
X147200000Y-73430000D03*
X40880000Y-48980000D03*
X127410000Y-93000000D03*
X196170000Y-89690000D03*
X109140000Y-91750000D03*
X249140000Y-107390000D03*
X270900000Y-104180000D03*
X225100000Y-53790000D03*
X128550000Y-111330000D03*
X96207820Y-103561482D03*
X245510000Y-71860000D03*
X254030000Y-50630000D03*
X76280000Y-103880000D03*
X118010000Y-50670000D03*
X205400000Y-73460000D03*
X127630000Y-73320000D03*
X96660000Y-64603397D03*
X196490000Y-109100000D03*
X205720000Y-53790000D03*
X271240000Y-66360000D03*
X137490000Y-70130000D03*
X252346338Y-83850000D03*
X205850000Y-92880000D03*
X232610000Y-103561482D03*
X43760000Y-55970000D03*
X264998414Y-110171378D03*
X109160000Y-71700000D03*
X147280000Y-92940000D03*
X116150000Y-103960405D03*
X174600746Y-103559405D03*
X166730000Y-92730000D03*
X69940000Y-92450000D03*
X216000000Y-109180000D03*
X96660000Y-50700000D03*
X50980000Y-90940000D03*
X167841688Y-110137522D03*
X185990000Y-92820000D03*
X265040000Y-72510000D03*
X166320000Y-53830000D03*
X225400000Y-92850000D03*
X176460000Y-70190000D03*
X157000000Y-70240000D03*
X118160000Y-89690000D03*
X77850000Y-64290000D03*
X89500000Y-92490000D03*
X265159659Y-90666621D03*
X156760000Y-89660000D03*
X216150000Y-50490000D03*
X231870000Y-64220000D03*
X252400000Y-64430000D03*
X212890000Y-69750000D03*
X58390000Y-65405397D03*
X116370000Y-84259000D03*
X157090000Y-50740000D03*
X79000000Y-89730000D03*
X166390000Y-73380000D03*
X59400000Y-89710000D03*
X57100000Y-103910000D03*
X147260000Y-53620000D03*
X215950000Y-89720000D03*
X244480000Y-53860000D03*
X193600000Y-69950000D03*
X137530000Y-50600000D03*
X77320000Y-50530000D03*
X224870000Y-112370000D03*
X186380000Y-73380000D03*
X99318678Y-89250000D03*
X55090000Y-48700000D03*
X88970000Y-53720000D03*
X137390000Y-89690000D03*
X271220000Y-84770000D03*
X186550000Y-53340000D03*
X234260000Y-50670000D03*
X196030000Y-50810000D03*
X69520000Y-53860000D03*
X225380000Y-73290000D03*
X176580000Y-50740000D03*
X108740000Y-53620000D03*
X127880000Y-53690000D03*
X118220000Y-109110000D03*
X50970000Y-52580000D03*
X118350000Y-70240000D03*
X43180000Y-53050000D03*
X176800000Y-89690000D03*
%TO.N,P3*%
X160056130Y-57060285D03*
X160056614Y-116118531D03*
X64521252Y-65604517D03*
X45710000Y-63810000D03*
X144462030Y-55100285D03*
X158021252Y-64400285D03*
X138461252Y-103610286D03*
X138051252Y-100280285D03*
%TO.N,P2*%
X138926252Y-59655285D03*
X106407638Y-118782657D03*
X121144614Y-95290000D03*
X138635914Y-64209812D03*
X118736252Y-100255286D03*
X18052573Y-56580285D03*
X105550029Y-55500285D03*
X118771252Y-103230285D03*
%TO.N,P1*%
X99621252Y-64530285D03*
X80401950Y-103299587D03*
X99205463Y-79645463D03*
X99619691Y-60278724D03*
X80396253Y-99125285D03*
X18052573Y-59191573D03*
X101688615Y-116118530D03*
%TO.N,P0*%
X82232345Y-69930000D03*
X62776614Y-115300285D03*
X66845650Y-60086154D03*
X18052573Y-61660104D03*
X62672586Y-66070485D03*
X62776614Y-96300558D03*
X62739716Y-105093354D03*
X48039638Y-117760285D03*
%TO.N,P4*%
X177380000Y-103210000D03*
X176855158Y-61735158D03*
X198968346Y-77162581D03*
X32091611Y-60118389D03*
X164775639Y-99000000D03*
X177385386Y-100205388D03*
X177590000Y-64400000D03*
X164775639Y-99000000D03*
%TO.N,P5*%
X196130000Y-100490000D03*
X218424614Y-97685386D03*
X184070000Y-113780000D03*
X196670000Y-103400000D03*
X33071450Y-60881450D03*
X30190000Y-90900000D03*
X198882515Y-81616380D03*
X216140000Y-64390000D03*
X216095000Y-60685000D03*
%TO.N,P6*%
X222350000Y-94210000D03*
X237020000Y-65470000D03*
X235440000Y-103540000D03*
X240800000Y-111630000D03*
X242599154Y-60326619D03*
X152640000Y-97300000D03*
X223143154Y-60326619D03*
X234415000Y-100575000D03*
X31950000Y-63060000D03*
%TO.N,SDA*%
X37972513Y-69220558D03*
%TO.N,SCL*%
X35571909Y-64832798D03*
X39278626Y-66104446D03*
%TO.N,P7*%
X257336614Y-89700000D03*
X243690651Y-119937513D03*
X30572513Y-68620558D03*
%TO.N,LED*%
X52375409Y-47337916D03*
X49929344Y-44531569D03*
%TO.N,CONN_A*%
X20680433Y-65465558D03*
%TO.N,CONN_B*%
X23752514Y-65465558D03*
%TO.N,CONN_C*%
X26592514Y-65465558D03*
%TO.N,L0*%
X71831408Y-47337916D03*
X69354845Y-44531569D03*
%TO.N,L1*%
X88906171Y-44531568D03*
X91287408Y-47337916D03*
%TO.N,L2*%
X110691108Y-47509209D03*
X108388447Y-44531568D03*
%TO.N,L3*%
X130199408Y-47337917D03*
X127956006Y-44531567D03*
%TO.N,L4*%
X147260233Y-44531568D03*
X149603108Y-47509209D03*
%TO.N,L5*%
X169059109Y-47509209D03*
X166552002Y-44531570D03*
%TO.N,L6*%
X186243108Y-44531567D03*
X188564938Y-47350336D03*
%TO.N,L7*%
X208023408Y-47337916D03*
X205638097Y-44531568D03*
%TO.N,L8*%
X225018706Y-44531569D03*
X227479408Y-47337916D03*
%TO.N,L9*%
X244462513Y-44520558D03*
X246935408Y-47337916D03*
%TO.N,L10*%
X266383390Y-47378229D03*
X263912514Y-44500558D03*
%TO.N,L11*%
X266401967Y-66856309D03*
X264032512Y-64031530D03*
%TO.N,L12*%
X246991485Y-66932593D03*
X244383796Y-64031532D03*
%TO.N,L13*%
X225152514Y-63970557D03*
X227453815Y-66945774D03*
%TO.N,L14*%
X208023623Y-66837878D03*
X205632514Y-63970558D03*
%TO.N,L15*%
X188567623Y-66837878D03*
X186142513Y-64000558D03*
%TO.N,L16*%
X166752513Y-63930558D03*
X169111623Y-66837877D03*
%TO.N,L17*%
X149655316Y-66839427D03*
X147242514Y-63860558D03*
%TO.N,L18*%
X130252999Y-66928614D03*
X127852514Y-63910558D03*
%TO.N,L19*%
X110743624Y-66837878D03*
X108432514Y-64031529D03*
%TO.N,L20*%
X91287623Y-66837878D03*
X88862514Y-63860558D03*
%TO.N,L21*%
X71831623Y-66837878D03*
X69462513Y-63950558D03*
%TO.N,L22*%
X52861976Y-68002565D03*
X49942513Y-63840558D03*
%TO.N,L23*%
X49962513Y-83380558D03*
X52323592Y-86509180D03*
%TO.N,L24*%
X71831892Y-86337885D03*
X69532513Y-83310558D03*
%TO.N,L25*%
X91287892Y-86337886D03*
X88782514Y-83400558D03*
%TO.N,L26*%
X110756861Y-86360925D03*
X108272513Y-83420558D03*
%TO.N,L27*%
X127722513Y-83400558D03*
X130199893Y-86337885D03*
%TO.N,L28*%
X149653131Y-86351770D03*
X147192513Y-83360558D03*
%TO.N,L29*%
X169059592Y-86509179D03*
X166552513Y-83400557D03*
%TO.N,L30*%
X186142513Y-83430558D03*
X188567892Y-86337886D03*
%TO.N,L31*%
X205592513Y-83320558D03*
X207971593Y-86509179D03*
%TO.N,L32*%
X227479893Y-86337886D03*
X219881260Y-86011747D03*
%TO.N,L33*%
X246935892Y-86337887D03*
X244532513Y-83340559D03*
%TO.N,L34*%
X266391892Y-86337887D03*
X264002513Y-83360559D03*
%TO.N,L35*%
X263852513Y-102850558D03*
X266391892Y-105793886D03*
%TO.N,L36*%
X244492513Y-102830558D03*
X246935892Y-105793886D03*
%TO.N,L37*%
X227444137Y-105928562D03*
X225132513Y-102830558D03*
%TO.N,L38*%
X208023892Y-105793886D03*
X205832513Y-102810557D03*
%TO.N,L39*%
X186052513Y-102900558D03*
X188567894Y-105793886D03*
%TO.N,L40*%
X166822513Y-102840558D03*
X169111892Y-105793886D03*
%TO.N,L41*%
X149559741Y-106037773D03*
X147212514Y-102900558D03*
%TO.N,L42*%
X127762513Y-102860557D03*
X130199893Y-105793886D03*
%TO.N,L43*%
X108432514Y-102810557D03*
X110752513Y-105820558D03*
%TO.N,L44*%
X88982514Y-102880558D03*
X91280836Y-105829363D03*
%TO.N,L45*%
X71831892Y-105793886D03*
X69462513Y-102860558D03*
%TO.N,L46*%
X49962514Y-102880558D03*
X52375892Y-105793886D03*
%TO.N,I+*%
X39722514Y-56240558D03*
%TO.N,O-*%
X42142514Y-52380559D03*
%TO.N,I-*%
X41962513Y-65280558D03*
%TD*%
D32*
%TO.N,5V*%
X104510514Y-87679608D02*
X104950514Y-87679608D01*
X85018029Y-52948029D02*
X84123042Y-52053042D01*
X220315042Y-53065042D02*
X220315042Y-49610595D01*
X242670000Y-46560000D02*
X242476309Y-46560000D01*
X162842029Y-67703324D02*
X162842029Y-53792029D01*
X58846790Y-101859447D02*
X64667526Y-96038712D01*
X142491526Y-105764621D02*
X142491526Y-102170000D01*
X64667526Y-87912474D02*
X64900392Y-87679608D01*
X66038512Y-106870454D02*
X61027505Y-101859447D01*
X161922996Y-102034482D02*
X142627044Y-102034482D01*
X65482744Y-65610000D02*
X65562029Y-65610000D01*
X64900392Y-87679608D02*
X66038513Y-87679608D01*
X239771042Y-49610565D02*
X240702029Y-48679578D01*
X144710000Y-47020000D02*
X143862029Y-47867971D01*
X124025955Y-102024558D02*
X123930513Y-102120000D01*
X84500000Y-102034482D02*
X84169044Y-102034482D01*
X44382518Y-44270564D02*
X43967133Y-43855178D01*
X63154744Y-63282000D02*
X65482744Y-65610000D01*
X241142513Y-103540000D02*
X240780000Y-103540000D01*
X142491258Y-67248522D02*
X142491258Y-66120000D01*
X44382518Y-46225544D02*
X44382518Y-44270564D01*
X143422512Y-87679547D02*
X143862512Y-87679547D01*
X259227042Y-49610563D02*
X260158028Y-48679577D01*
X45356244Y-70716244D02*
X45356244Y-68965508D01*
X104950029Y-48679577D02*
X104510029Y-48679577D01*
X221210029Y-67703292D02*
X221210029Y-53960029D01*
X84123042Y-52053042D02*
X84123042Y-49300000D01*
X84982513Y-87679547D02*
X85494513Y-87679547D01*
X200859526Y-88265298D02*
X201445216Y-87679608D01*
X201800422Y-48679608D02*
X202230030Y-48679608D01*
X182774244Y-68179509D02*
X181403042Y-66808307D01*
X200859042Y-49620988D02*
X201800422Y-48679608D01*
X84123526Y-105764621D02*
X84123526Y-102080000D01*
X143422244Y-68179508D02*
X142491258Y-67248522D01*
X259227526Y-88610594D02*
X259227526Y-101970000D01*
X45230000Y-62790000D02*
X45342526Y-62677474D01*
X181403526Y-101730000D02*
X181403526Y-106204560D01*
X183788339Y-46880000D02*
X182774029Y-47894310D01*
X124406029Y-48679608D02*
X124406029Y-47798858D01*
X220315526Y-101840000D02*
X220121043Y-102034483D01*
X163318029Y-47811971D02*
X163318029Y-48679608D01*
X200859042Y-66808306D02*
X200859042Y-49620988D01*
X181403042Y-66808307D02*
X181403043Y-49760000D01*
X240780000Y-103540000D02*
X241786765Y-103540000D01*
X220315526Y-88610534D02*
X220315526Y-101840000D01*
X259227526Y-101970000D02*
X259080000Y-101970000D01*
X85494513Y-107135608D02*
X84123526Y-105764621D01*
X46582513Y-107135558D02*
X46582513Y-104609096D01*
X220315526Y-101840000D02*
X220315526Y-102080000D01*
X44382518Y-47270563D02*
X45791533Y-48679577D01*
X44526799Y-64250000D02*
X44526799Y-63493201D01*
X123035043Y-49538594D02*
X123894029Y-48679608D01*
X104950244Y-66569756D02*
X104950244Y-68179508D01*
X104950514Y-100150514D02*
X103579526Y-98779526D01*
X166810000Y-101880000D02*
X162077478Y-101880000D01*
X260598512Y-106475547D02*
X260598512Y-107135547D01*
X164360000Y-47050000D02*
X164080000Y-47050000D01*
X104976032Y-102034482D02*
X104950514Y-102060000D01*
X123930513Y-98254986D02*
X123035527Y-97360000D01*
X103579526Y-88610596D02*
X104510514Y-87679608D01*
X260598028Y-47571972D02*
X260598028Y-48679577D01*
X125750000Y-102024558D02*
X124025955Y-102024558D01*
X143862029Y-47867971D02*
X143862029Y-48679577D01*
X161947042Y-52897042D02*
X161947042Y-49202958D01*
X221210029Y-53960029D02*
X220315042Y-53065042D01*
X220315526Y-105885526D02*
X221565547Y-107135547D01*
X220121043Y-102034483D02*
X201434009Y-102034482D01*
X240702029Y-48679578D02*
X241142029Y-48679578D01*
X45342526Y-62677474D02*
X48950000Y-62677474D01*
X46582514Y-87679547D02*
X45810453Y-87679547D01*
X104950514Y-102060000D02*
X104950514Y-100150514D01*
X166810000Y-101880000D02*
X165106834Y-101880000D01*
X202230513Y-107135547D02*
X200859527Y-105764561D01*
X85494246Y-68179539D02*
X85018029Y-67703322D01*
X225040000Y-101984558D02*
X220410968Y-101984558D01*
X52688740Y-63078474D02*
X57295840Y-63078474D01*
X163318513Y-107135607D02*
X161948514Y-105765608D01*
X221246029Y-48679608D02*
X221686029Y-48679608D01*
X182774513Y-87679547D02*
X182334513Y-87679547D01*
X221246513Y-87679547D02*
X220315526Y-88610534D01*
X57295840Y-63078474D02*
X57499366Y-63282000D01*
X203070000Y-46880000D02*
X202230030Y-47719970D01*
X259227526Y-101970000D02*
X259227526Y-105104561D01*
X105341420Y-47241420D02*
X104950029Y-47632811D01*
X260598513Y-87679607D02*
X260158513Y-87679607D01*
X49332162Y-101859447D02*
X58846790Y-101859447D01*
X84743465Y-48679577D02*
X85494029Y-48679577D01*
X161948514Y-102060000D02*
X161922996Y-102034482D01*
X220315042Y-49610595D02*
X221246029Y-48679608D01*
X237812058Y-103540000D02*
X236256616Y-101984558D01*
X162806512Y-87679547D02*
X163318512Y-87679547D01*
X65562029Y-65610000D02*
X65562029Y-53942029D01*
X183910000Y-46880000D02*
X183788339Y-46880000D01*
X124406513Y-107135547D02*
X123930513Y-106659547D01*
X45810453Y-87679547D02*
X44730000Y-88760000D01*
X241142513Y-107135608D02*
X241142513Y-103540000D01*
X65562029Y-67703324D02*
X65562029Y-65610000D01*
X143862244Y-68179508D02*
X143422244Y-68179508D01*
X260122029Y-53882029D02*
X259227042Y-52987042D01*
X239771042Y-52891042D02*
X239771042Y-49610565D01*
X142491042Y-49610564D02*
X143422029Y-48679577D01*
X201434009Y-102034482D02*
X200859527Y-101460000D01*
X124406029Y-47798858D02*
X125047669Y-47157218D01*
X181403527Y-88610533D02*
X181403526Y-101730000D01*
X45791533Y-48679577D02*
X46582029Y-48679577D01*
X85494029Y-47645971D02*
X85494029Y-48679577D01*
X162470392Y-48679608D02*
X163318029Y-48679608D01*
X181708009Y-102034483D02*
X181403526Y-101730000D01*
X259227042Y-52987042D02*
X259227042Y-49610563D01*
X142627044Y-102034482D02*
X142491526Y-102170000D01*
X163318244Y-68179539D02*
X162842029Y-67703324D01*
X161948514Y-99760000D02*
X161948514Y-95616566D01*
X161947042Y-49202958D02*
X162470392Y-48679608D01*
X66038512Y-107135547D02*
X66038512Y-106870454D01*
X104440000Y-55290000D02*
X104474029Y-55290000D01*
X182334513Y-87679547D02*
X181403527Y-88610533D01*
X44730000Y-88760000D02*
X44730000Y-97257285D01*
X46106245Y-87203278D02*
X46106245Y-71466245D01*
X220410968Y-101984558D02*
X220315526Y-102080000D01*
X125740076Y-102034482D02*
X105900000Y-102034482D01*
X181253526Y-101880000D02*
X166810000Y-101880000D01*
X200859527Y-101460000D02*
X200859527Y-93699527D01*
X46142244Y-68179508D02*
X46582244Y-68179508D01*
X143862513Y-107135608D02*
X142491526Y-105764621D01*
X200859527Y-105764561D02*
X200859527Y-101460000D01*
X164080000Y-47050000D02*
X163318029Y-47811971D01*
X123035042Y-55355042D02*
X123035043Y-49538594D01*
X142491526Y-88610533D02*
X143422512Y-87679547D01*
X181403526Y-106204560D02*
X182334513Y-107135547D01*
X46582244Y-68179508D02*
X46582244Y-66736469D01*
X200859527Y-101460000D02*
X200285044Y-102034483D01*
X123930513Y-102120000D02*
X123930513Y-98254986D01*
X221686244Y-68179507D02*
X221210029Y-67703292D01*
X123035527Y-97360000D02*
X123035526Y-88610534D01*
X104950514Y-107135608D02*
X104950514Y-102060000D01*
X242476309Y-46560000D02*
X241142029Y-47894280D01*
X182334513Y-107135547D02*
X182774513Y-107135547D01*
X64667526Y-96038712D02*
X64667526Y-87912474D01*
X66287927Y-47400541D02*
X66038029Y-47650439D01*
X221686029Y-47636849D02*
X221686029Y-48679608D01*
X239771526Y-88610534D02*
X240702513Y-87679547D01*
X260158028Y-48679577D02*
X260598028Y-48679577D01*
X46582244Y-66736469D02*
X44757888Y-64912112D01*
X64667042Y-49760000D02*
X65747466Y-48679576D01*
X105900000Y-102034482D02*
X104976032Y-102034482D01*
X261410000Y-46760000D02*
X260598028Y-47571972D01*
X240214000Y-53334000D02*
X239771042Y-52891042D01*
X45356244Y-68965508D02*
X46142244Y-68179508D01*
X84123526Y-102080000D02*
X84123526Y-88538534D01*
X202230244Y-68179508D02*
X200859042Y-66808306D01*
X46582513Y-104609096D02*
X49332162Y-101859447D01*
X161948513Y-88537546D02*
X162806512Y-87679547D01*
X65562029Y-53942029D02*
X64667042Y-53047042D01*
X220315526Y-102080000D02*
X220315526Y-105885526D01*
X221686513Y-87679547D02*
X221246513Y-87679547D01*
X66038029Y-47650439D02*
X66038029Y-48679576D01*
X221565547Y-107135547D02*
X221686513Y-107135547D01*
X44757888Y-64912112D02*
X44526799Y-64681022D01*
X259227526Y-105104561D02*
X260598512Y-106475547D01*
X241142513Y-103540000D02*
X241142513Y-99884712D01*
X161948514Y-102060000D02*
X161948514Y-99760000D01*
X241786765Y-103540000D02*
X243292283Y-102034482D01*
X103579042Y-49610564D02*
X103579043Y-54429043D01*
X161948514Y-105765608D02*
X161948514Y-102060000D01*
X260158513Y-87679607D02*
X259227526Y-88610594D01*
X123894029Y-48679608D02*
X124406029Y-48679608D01*
X142617120Y-102024558D02*
X125750000Y-102024558D01*
X123966513Y-87679547D02*
X124406513Y-87679547D01*
X46106245Y-71466245D02*
X45356244Y-70716244D01*
X66038244Y-68179539D02*
X65562029Y-67703324D01*
X44730000Y-97257285D02*
X49332162Y-101859447D01*
X142491043Y-54620000D02*
X142491042Y-49610564D01*
X61027505Y-101859447D02*
X58846790Y-101859447D01*
X84500000Y-102034482D02*
X69325518Y-102034482D01*
X69325518Y-102034482D02*
X66038512Y-105321488D01*
X161948514Y-95616566D02*
X161948513Y-94730000D01*
X44526799Y-63493201D02*
X45230000Y-62790000D01*
X104950029Y-47632811D02*
X104950029Y-48679577D01*
X181403526Y-101730000D02*
X181253526Y-101880000D01*
X44382518Y-46225544D02*
X44382518Y-47270563D01*
X182774029Y-47894310D02*
X182774029Y-48679608D01*
X125750000Y-102024558D02*
X125740076Y-102034482D01*
X142491258Y-66120000D02*
X142491043Y-66119785D01*
X142627044Y-102034482D02*
X142617120Y-102024558D01*
X162077478Y-101880000D02*
X161922996Y-102034482D01*
X241142513Y-99884712D02*
X239771526Y-98513725D01*
X240702513Y-87679547D02*
X241142513Y-87679547D01*
X103579043Y-54429043D02*
X104440000Y-55290000D01*
X143422029Y-48679577D02*
X143862029Y-48679577D01*
X161948513Y-94730000D02*
X161948513Y-88537546D01*
X241142029Y-47894280D02*
X241142029Y-48679578D01*
X52287740Y-62677474D02*
X52688740Y-63078474D01*
X259080000Y-101970000D02*
X259015518Y-102034482D01*
X239771526Y-98513725D02*
X239771526Y-88610534D01*
X181403043Y-49760000D02*
X182483435Y-48679608D01*
X200859527Y-93699527D02*
X200859526Y-88265298D01*
X64667042Y-53047042D02*
X64667042Y-49760000D01*
X203450000Y-46880000D02*
X203070000Y-46880000D01*
X123035042Y-66808337D02*
X123035042Y-55355042D01*
X104474029Y-55290000D02*
X104474029Y-66093541D01*
X240780000Y-103540000D02*
X237812058Y-103540000D01*
X48950000Y-62677474D02*
X50660000Y-62677474D01*
X200285044Y-102034483D02*
X181708009Y-102034483D01*
X182483435Y-48679608D02*
X182774029Y-48679608D01*
X222556439Y-46766439D02*
X221686029Y-47636849D01*
X44526799Y-64681022D02*
X44526799Y-64250000D01*
X57499366Y-63282000D02*
X63154744Y-63282000D01*
X201445216Y-87679608D02*
X202230514Y-87679608D01*
X162842029Y-53792029D02*
X161947042Y-52897042D01*
X260598244Y-68179508D02*
X260122029Y-67703293D01*
X85018029Y-67703322D02*
X85018029Y-52948029D01*
X236256616Y-101984558D02*
X225040000Y-101984558D01*
X46582514Y-87679547D02*
X46106245Y-87203278D01*
X104510029Y-48679577D02*
X103579042Y-49610564D01*
X124406244Y-68179539D02*
X123035042Y-66808337D01*
X84123042Y-49300000D02*
X84743465Y-48679577D01*
X103579526Y-98779526D02*
X103579526Y-88610596D01*
X84169044Y-102034482D02*
X84123526Y-102080000D01*
X104474029Y-66093541D02*
X104950244Y-66569756D01*
X261890000Y-46760000D02*
X261410000Y-46760000D01*
X66038512Y-105321488D02*
X66038512Y-107135547D01*
X142491043Y-66119785D02*
X142491043Y-54620000D01*
X202230030Y-47719970D02*
X202230030Y-48679608D01*
X84123526Y-88538534D02*
X84982513Y-87679547D01*
X85860000Y-47280000D02*
X85494029Y-47645971D01*
X241142244Y-68179508D02*
X240214000Y-67251264D01*
X240214000Y-67251264D02*
X240214000Y-53334000D01*
X50660000Y-62677474D02*
X52287740Y-62677474D01*
X142491526Y-102170000D02*
X142491526Y-88610533D01*
X259015518Y-102034482D02*
X243292283Y-102034482D01*
X65747466Y-48679576D02*
X66038029Y-48679576D01*
X260122029Y-67703293D02*
X260122029Y-53882029D01*
X225040000Y-101984558D02*
X224216494Y-101984558D01*
X105900000Y-102034482D02*
X84500000Y-102034482D01*
X123930513Y-106659547D02*
X123930513Y-102120000D01*
X123035526Y-88610534D02*
X123966513Y-87679547D01*
%TO.N,G*%
X111356668Y-68830468D02*
X114860468Y-68830468D01*
X129282244Y-70688837D02*
X128680000Y-71291080D01*
X114550476Y-88330476D02*
X115440000Y-89220000D01*
X168194512Y-90188845D02*
X168194512Y-89403547D01*
X185990000Y-92820000D02*
X187283811Y-91526189D01*
X246699628Y-69679508D02*
X247550186Y-68828950D01*
X232590000Y-105940000D02*
X232570000Y-105920000D01*
X148371327Y-52508673D02*
X148371327Y-51555577D01*
X168194244Y-69903539D02*
X168418244Y-69679539D01*
X99237512Y-89331166D02*
X97041166Y-89331166D01*
X226393304Y-72276696D02*
X226393304Y-70857745D01*
X167827542Y-71055539D02*
X168194244Y-70688837D01*
X40885013Y-52339891D02*
X41602561Y-53057439D01*
X153750468Y-68830468D02*
X154870000Y-69950000D01*
X51458029Y-50403577D02*
X51682029Y-50179577D01*
X69940000Y-92450000D02*
X69940000Y-91163419D01*
X189641414Y-87870000D02*
X191310000Y-87870000D01*
X246242244Y-69679508D02*
X246699628Y-69679508D01*
X129282513Y-90188845D02*
X129282513Y-89403547D01*
X128550000Y-110377358D02*
X129282513Y-109644845D01*
X50980000Y-90667359D02*
X51490000Y-90157359D01*
X70930000Y-50387605D02*
X71138029Y-50179576D01*
X57190000Y-66480000D02*
X58264603Y-65405397D01*
X155180000Y-89660000D02*
X156760000Y-89660000D01*
X205400000Y-73460000D02*
X206710000Y-72150000D01*
X192570000Y-107640000D02*
X194030000Y-109100000D01*
X210510000Y-107270000D02*
X211410000Y-107270000D01*
X148738029Y-51188875D02*
X148738029Y-50403577D01*
X75020000Y-68680000D02*
X77410000Y-66290000D01*
X247779865Y-107390000D02*
X249140000Y-107390000D01*
X56680000Y-106140000D02*
X57100000Y-105720000D01*
X128230000Y-91241358D02*
X129282513Y-90188845D01*
X207621988Y-69679508D02*
X208471028Y-68830468D01*
X187283811Y-90555547D02*
X187650513Y-90188845D01*
X148962244Y-69679508D02*
X149419628Y-69679508D01*
X52139866Y-89179547D02*
X53499413Y-87820000D01*
X114550476Y-88330476D02*
X114550476Y-87419524D01*
X130882959Y-49260000D02*
X133730000Y-49260000D01*
X70930000Y-51172903D02*
X70930000Y-50387605D01*
X211410000Y-107270000D02*
X212000000Y-107860000D01*
X211900505Y-49330505D02*
X212710000Y-50140000D01*
X42760013Y-56050558D02*
X43679442Y-56050558D01*
X110507628Y-69679508D02*
X111356668Y-68830468D01*
X74850000Y-107350000D02*
X75930000Y-106270000D01*
X116770000Y-109110000D02*
X118220000Y-109110000D01*
X207330514Y-89179608D02*
X207740514Y-88769608D01*
X148371327Y-51555577D02*
X148738029Y-51188875D01*
X154630000Y-50740000D02*
X157090000Y-50740000D01*
X90370029Y-50403577D02*
X90594029Y-50179577D01*
X168418512Y-89179547D02*
X168875866Y-89179547D01*
X110050514Y-89179608D02*
X110342258Y-89179608D01*
X131123412Y-88020000D02*
X132880000Y-88020000D01*
X110507805Y-108635608D02*
X112123413Y-107020000D01*
X109826244Y-69903508D02*
X110050244Y-69679508D01*
X168194512Y-89403547D02*
X168418512Y-89179547D01*
X51682029Y-50179577D02*
X52139382Y-50179577D01*
X128230000Y-92180000D02*
X128230000Y-91241358D01*
X111191390Y-88330476D02*
X114550476Y-88330476D01*
X188331352Y-50179608D02*
X189390960Y-49120000D01*
X148738244Y-69903508D02*
X148962244Y-69679508D01*
X94839432Y-68290568D02*
X92440568Y-68290568D01*
X172750476Y-88330476D02*
X173260000Y-88840000D01*
X43679442Y-56050558D02*
X43760000Y-55970000D01*
X265474512Y-109695280D02*
X265474512Y-108859547D01*
X127880000Y-53690000D02*
X128540000Y-53030000D01*
X167841688Y-110137522D02*
X167841688Y-109997730D01*
X154140000Y-50250000D02*
X154630000Y-50740000D01*
X171530000Y-107200000D02*
X172700000Y-107200000D01*
X207106513Y-109644845D02*
X207106513Y-108859547D01*
X147200000Y-73430000D02*
X148371542Y-72258458D01*
X226562513Y-109644845D02*
X226562513Y-108859547D01*
X191310000Y-87870000D02*
X192180000Y-87870000D01*
X264998414Y-110171378D02*
X265474512Y-109695280D01*
X194060000Y-50810000D02*
X196030000Y-50810000D01*
X206770000Y-52740000D02*
X206770000Y-51524936D01*
X207787867Y-108635547D02*
X209153414Y-107270000D01*
X169724937Y-88330476D02*
X172750476Y-88330476D01*
X226393304Y-70857745D02*
X226562244Y-70688805D01*
X56600000Y-67070000D02*
X57190000Y-66480000D01*
X246699866Y-89179547D02*
X247859413Y-88020000D01*
X148738029Y-50403577D02*
X148962029Y-50179577D01*
X109850000Y-90165420D02*
X109850000Y-89380122D01*
X168220000Y-51162935D02*
X168220000Y-50377637D01*
X168418244Y-69679539D02*
X168709988Y-69679539D01*
X148738244Y-70688806D02*
X148738244Y-69903508D01*
X58264603Y-65405397D02*
X58390000Y-65405397D01*
X188331867Y-108635547D02*
X189687414Y-107280000D01*
X211530000Y-88020000D02*
X212290000Y-88780000D01*
X115460000Y-106240000D02*
X116150000Y-105550000D01*
X168194513Y-109644905D02*
X168194513Y-108859607D01*
X192460000Y-68810000D02*
X193600000Y-69950000D01*
X77330000Y-89730000D02*
X79000000Y-89730000D01*
X109830000Y-51184904D02*
X109830000Y-50399606D01*
X226393087Y-51357848D02*
X226562029Y-51188906D01*
X251080000Y-50000000D02*
X251710000Y-50630000D01*
X252346338Y-84433662D02*
X252346338Y-83850000D01*
X270900000Y-105800000D02*
X270900000Y-104180000D01*
X89500000Y-91059358D02*
X90370513Y-90188845D01*
X71595383Y-50179576D02*
X72474959Y-49300000D01*
X227243631Y-69679507D02*
X228573138Y-68350000D01*
X265698512Y-108635547D02*
X266155866Y-108635547D01*
X55470000Y-107350000D02*
X56680000Y-106140000D01*
X173260000Y-88840000D02*
X174110000Y-89690000D01*
X53569136Y-68250000D02*
X54060000Y-68250000D01*
X116270000Y-70240000D02*
X118350000Y-70240000D01*
X95290506Y-49330506D02*
X96660000Y-50700000D01*
X251710000Y-50630000D02*
X254030000Y-50630000D01*
X226600000Y-89366060D02*
X226786513Y-89179547D01*
X43953029Y-56880000D02*
X43953029Y-58736971D01*
X269380000Y-107320000D02*
X270530000Y-106170000D01*
X133730000Y-49260000D02*
X134300000Y-49830000D01*
X207106514Y-90188906D02*
X207106514Y-89403608D01*
X53880000Y-107350000D02*
X55470000Y-107350000D01*
X133720000Y-88020000D02*
X134310000Y-88610000D01*
X51490000Y-90157359D02*
X51490000Y-89372061D01*
X265474244Y-70688806D02*
X265474244Y-69903508D01*
X130812668Y-68830469D02*
X134110469Y-68830469D01*
X194000000Y-89690000D02*
X196170000Y-89690000D01*
X265474513Y-89403607D02*
X265698513Y-89179607D01*
X194030000Y-109100000D02*
X196490000Y-109100000D01*
X168875866Y-89179547D02*
X169724937Y-88330476D01*
X228573138Y-68350000D02*
X230080000Y-68350000D01*
X91900453Y-49330506D02*
X95290506Y-49330506D01*
X187874029Y-50179608D02*
X188331352Y-50179608D01*
X246242513Y-108635608D02*
X246534257Y-108635608D01*
X155160000Y-70240000D02*
X157000000Y-70240000D01*
X187481087Y-52408913D02*
X187481087Y-51357848D01*
X213130000Y-50560000D02*
X215200000Y-50560000D01*
X116370000Y-85600000D02*
X116370000Y-84259000D01*
X54710000Y-87820000D02*
X55680000Y-87820000D01*
X129506513Y-89179547D02*
X129963865Y-89179547D01*
X187650513Y-89403547D02*
X187874513Y-89179547D01*
X187283811Y-91526189D02*
X187283811Y-90555547D01*
X188331627Y-69679509D02*
X189201136Y-68810000D01*
X227243351Y-50179608D02*
X228092453Y-49330506D01*
X148371542Y-71055508D02*
X148738244Y-70688806D01*
X216080000Y-50560000D02*
X216150000Y-50490000D01*
X248760000Y-88020000D02*
X252346338Y-84433662D01*
X232570000Y-103601482D02*
X232610000Y-103561482D01*
X90594029Y-50179577D02*
X91051382Y-50179577D01*
X191310000Y-107280000D02*
X192210000Y-107280000D01*
X150268453Y-49330506D02*
X153220506Y-49330506D01*
X70940000Y-89378121D02*
X71138513Y-89179608D01*
X148962512Y-89179547D02*
X149419866Y-89179547D01*
X167827810Y-91632190D02*
X167827810Y-90555547D01*
X207106514Y-89403608D02*
X207330514Y-89179608D01*
X267515413Y-87820000D02*
X268790000Y-87820000D01*
X264670000Y-53480000D02*
X264670000Y-51992903D01*
X97041166Y-89331166D02*
X96040477Y-88330477D01*
X247548453Y-49330506D02*
X250410506Y-49330506D01*
X247859413Y-88020000D02*
X248760000Y-88020000D01*
X148738512Y-90188845D02*
X148738512Y-89403547D01*
X271220000Y-86000000D02*
X271220000Y-84770000D01*
X129282513Y-89403547D02*
X129506513Y-89179547D01*
X114680000Y-107020000D02*
X115460000Y-106240000D01*
X268769532Y-68830468D02*
X271240000Y-66360000D01*
X96660000Y-66470000D02*
X94839432Y-68290568D01*
X111341688Y-49330506D02*
X114640506Y-49330506D01*
X92440568Y-68290568D02*
X91051597Y-69679539D01*
X76280000Y-105920000D02*
X76280000Y-103880000D01*
X226786029Y-50179608D02*
X227243351Y-50179608D01*
X41601681Y-53056559D02*
X40885013Y-52339891D01*
X109140000Y-91750000D02*
X109140000Y-90875420D01*
X267471413Y-107320000D02*
X268150000Y-107320000D01*
X109160000Y-71700000D02*
X109160000Y-71355050D01*
X187110000Y-71229051D02*
X187650244Y-70688807D01*
X187650029Y-51188906D02*
X187650029Y-50403608D01*
X247550186Y-68828950D02*
X249851050Y-68828950D01*
X226786513Y-108635547D02*
X226681030Y-108741030D01*
X51682513Y-108635558D02*
X51974257Y-108635558D01*
X50980000Y-90940000D02*
X50980000Y-90667359D01*
X134710000Y-69430000D02*
X135410000Y-70130000D01*
X226393087Y-52496913D02*
X226393087Y-51357848D01*
X128540000Y-53030000D02*
X128540000Y-51930935D01*
X207740514Y-88769608D02*
X208260392Y-88769608D01*
X128680000Y-72270000D02*
X127630000Y-73320000D01*
X187874513Y-108635547D02*
X188331867Y-108635547D01*
X99318678Y-89250000D02*
X99237512Y-89331166D01*
X206937571Y-90357849D02*
X207106514Y-90188906D01*
X246018029Y-50403578D02*
X246242029Y-50179578D01*
X69817084Y-53562916D02*
X69817084Y-52285819D01*
X209010000Y-88020000D02*
X210560000Y-88020000D01*
X129282513Y-109644845D02*
X129282513Y-108859547D01*
X226681030Y-108741030D02*
X226681030Y-109198384D01*
X114680000Y-107020000D02*
X116770000Y-109110000D01*
X71430256Y-108635547D02*
X72715803Y-107350000D01*
X148569571Y-91650429D02*
X148569571Y-90357786D01*
X40885013Y-51100558D02*
X40885013Y-48985013D01*
X231290000Y-107240000D02*
X232590000Y-105940000D01*
X226195811Y-92054189D02*
X226195811Y-90555547D01*
X75110000Y-49300000D02*
X76090000Y-49300000D01*
X132880000Y-88020000D02*
X133720000Y-88020000D01*
X114860468Y-68830468D02*
X115540000Y-69510000D01*
X207330244Y-69679508D02*
X207621988Y-69679508D01*
X26613801Y-46241089D02*
X22803800Y-46241089D01*
X189687414Y-107280000D02*
X191310000Y-107280000D01*
X166320000Y-53830000D02*
X167830000Y-52320000D01*
X265474512Y-108859547D02*
X265698512Y-108635547D01*
X73540000Y-107350000D02*
X74850000Y-107350000D01*
X250410506Y-49330506D02*
X251080000Y-50000000D01*
X89710000Y-52980000D02*
X89710000Y-51848904D01*
X114640506Y-49330506D02*
X115730000Y-50420000D01*
X246242513Y-89179547D02*
X246699866Y-89179547D01*
X226330000Y-110910000D02*
X226330000Y-109877358D01*
X53259815Y-107350000D02*
X53880000Y-107350000D01*
X135410000Y-70130000D02*
X137490000Y-70130000D01*
X187650513Y-90188845D02*
X187650513Y-89403547D01*
X208260392Y-88769608D02*
X209010000Y-88020000D01*
X226786244Y-69679507D02*
X227243631Y-69679507D01*
X225100000Y-53790000D02*
X226393087Y-52496913D01*
X147280000Y-92940000D02*
X148569571Y-91650429D01*
X174060000Y-70190000D02*
X176460000Y-70190000D01*
X149419628Y-69679508D02*
X150268668Y-68830468D01*
X212290000Y-88780000D02*
X213230000Y-89720000D01*
X152600000Y-88020000D02*
X153540000Y-88020000D01*
X246699381Y-50179578D02*
X247548453Y-49330506D01*
X90370513Y-90188845D02*
X90370513Y-89403547D01*
X43180000Y-53050000D02*
X43173441Y-53056559D01*
X270810000Y-86410000D02*
X271220000Y-86000000D01*
X230080000Y-68350000D02*
X231870000Y-66560000D01*
X168220000Y-50377637D02*
X168418029Y-50179608D01*
X229100000Y-107240000D02*
X231290000Y-107240000D01*
X91051382Y-50179577D02*
X91900453Y-49330506D01*
X166730000Y-92730000D02*
X167827810Y-91632190D01*
X169724453Y-49330507D02*
X172990507Y-49330507D01*
X72474959Y-49300000D02*
X75110000Y-49300000D01*
X134110469Y-68830469D02*
X134710000Y-69430000D01*
X72110461Y-69269539D02*
X72700000Y-68680000D01*
X207106244Y-69903508D02*
X207330244Y-69679508D01*
X51974257Y-108635558D02*
X53259815Y-107350000D01*
X227078257Y-108635547D02*
X228473804Y-107240000D01*
X265040000Y-71123050D02*
X265474244Y-70688806D01*
X226786513Y-108635547D02*
X227078257Y-108635547D01*
X245849087Y-52490913D02*
X245849087Y-51357818D01*
X215200000Y-50560000D02*
X216080000Y-50560000D01*
X207330030Y-50179608D02*
X207787350Y-50179608D01*
X93750000Y-107260000D02*
X96207820Y-104802180D01*
X43953029Y-58736971D02*
X43589441Y-59100559D01*
X96207820Y-104802180D02*
X96207820Y-103561482D01*
X245510000Y-71197050D02*
X246018244Y-70688806D01*
X167830000Y-51552935D02*
X168220000Y-51162935D01*
X129282029Y-51188906D02*
X129282029Y-50403608D01*
X168194513Y-108859607D02*
X168418513Y-108635607D01*
X232230000Y-50670000D02*
X234260000Y-50670000D01*
X168875352Y-50179608D02*
X169724453Y-49330507D01*
X52139628Y-69679508D02*
X53569136Y-68250000D01*
X245510000Y-71860000D02*
X245510000Y-71197050D01*
X109160000Y-71355050D02*
X109826244Y-70688806D01*
X186380000Y-73380000D02*
X187110000Y-72650000D01*
X173660000Y-106240000D02*
X174600746Y-105299254D01*
X168875806Y-108635607D02*
X170311413Y-107200000D01*
X265040000Y-72510000D02*
X265040000Y-71123050D01*
X71548244Y-69269539D02*
X72110461Y-69269539D01*
X71138512Y-108635547D02*
X71430256Y-108635547D01*
X90370513Y-89403547D02*
X90594513Y-89179547D01*
X75930000Y-106270000D02*
X76280000Y-105920000D01*
X270530000Y-106170000D02*
X270900000Y-105800000D01*
X51458029Y-51188875D02*
X51458029Y-50403577D01*
X193360000Y-50110000D02*
X194060000Y-50810000D01*
X230890506Y-49330506D02*
X231630000Y-50070000D01*
X207106513Y-108859547D02*
X207330513Y-108635547D01*
X70940000Y-90163419D02*
X70940000Y-89378121D01*
X71138029Y-50179576D02*
X71595383Y-50179576D01*
X110492617Y-50179577D02*
X111341688Y-49330506D01*
X206540000Y-110190000D02*
X206561358Y-110190000D01*
X153516476Y-107786476D02*
X154040000Y-108310000D01*
X153800000Y-88280000D02*
X155180000Y-89660000D01*
X52139382Y-50179577D02*
X53618959Y-48700000D01*
X115520000Y-86450000D02*
X116370000Y-85600000D01*
X53499413Y-87820000D02*
X54710000Y-87820000D01*
X110050514Y-108635608D02*
X110507805Y-108635608D01*
X115980000Y-50670000D02*
X118010000Y-50670000D01*
X149419805Y-108635608D02*
X150268937Y-107786476D01*
X174600746Y-105299254D02*
X174600746Y-103559405D01*
X268790000Y-87820000D02*
X269400000Y-87820000D01*
X88970000Y-53720000D02*
X89710000Y-52980000D01*
X244480000Y-53860000D02*
X245849087Y-52490913D01*
X109140000Y-90875420D02*
X109850000Y-90165420D01*
X129282029Y-50403608D02*
X129506029Y-50179608D01*
X40885013Y-48985013D02*
X40880000Y-48980000D01*
X168418029Y-50179608D02*
X168875352Y-50179608D01*
X265474028Y-50403577D02*
X265698028Y-50179577D01*
X72805414Y-87970000D02*
X74450000Y-87970000D01*
X90594513Y-108635608D02*
X91051805Y-108635608D01*
X252010000Y-66670000D02*
X252400000Y-66280000D01*
X69817084Y-52285819D02*
X70930000Y-51172903D01*
X212710000Y-50140000D02*
X213130000Y-50560000D01*
X186550000Y-53340000D02*
X187481087Y-52408913D01*
X108740000Y-53620000D02*
X108740000Y-52274904D01*
X232570000Y-105920000D02*
X232570000Y-103601482D01*
X55680000Y-87820000D02*
X56230000Y-88370000D01*
X226681030Y-109198384D02*
X226562513Y-109316901D01*
X134300000Y-49830000D02*
X135070000Y-50600000D01*
X212000000Y-107860000D02*
X213320000Y-109180000D01*
X189390960Y-49120000D02*
X191850000Y-49120000D01*
X172300000Y-68430000D02*
X174060000Y-70190000D01*
X51490000Y-89372061D02*
X51682514Y-89179547D01*
X43953029Y-56163029D02*
X43760000Y-55970000D01*
X129282244Y-69903539D02*
X129282244Y-70688837D01*
X265474028Y-51188875D02*
X265474028Y-50403577D01*
X154040000Y-108310000D02*
X154830000Y-109100000D01*
X167827810Y-90555547D02*
X168194512Y-90188845D01*
X205720000Y-53790000D02*
X206770000Y-52740000D01*
X129506029Y-50179608D02*
X129963351Y-50179608D01*
X77850000Y-65850000D02*
X77850000Y-64290000D01*
X226562244Y-69903507D02*
X226786244Y-69679507D01*
X172700000Y-107200000D02*
X173660000Y-106240000D01*
X69940000Y-91163419D02*
X70940000Y-90163419D01*
X53618959Y-48700000D02*
X55090000Y-48700000D01*
X148962513Y-108635608D02*
X149419805Y-108635608D01*
X109830000Y-50399606D02*
X110050029Y-50179577D01*
X115730000Y-50420000D02*
X115980000Y-50670000D01*
X168709988Y-69679539D02*
X169959527Y-68430000D01*
X129506244Y-69679539D02*
X129282244Y-69903539D01*
X129963598Y-69679539D02*
X130812668Y-68830469D01*
X187650244Y-70688807D02*
X187650244Y-69903509D01*
X92427413Y-107260000D02*
X93720000Y-107260000D01*
X231870000Y-66560000D02*
X231870000Y-64220000D01*
X207106244Y-70688806D02*
X207106244Y-69903508D01*
X168194244Y-70688837D02*
X168194244Y-69903539D01*
X176540000Y-50700000D02*
X176580000Y-50740000D01*
X265159659Y-90503759D02*
X265474513Y-90188905D01*
X43953029Y-56880000D02*
X43953029Y-56163029D01*
X115910000Y-89690000D02*
X118160000Y-89690000D01*
X56230000Y-88370000D02*
X57570000Y-89710000D01*
X265698513Y-89179607D02*
X266155806Y-89179607D01*
X192370000Y-49120000D02*
X193360000Y-50110000D01*
X224870000Y-112370000D02*
X226330000Y-110910000D01*
X43953029Y-56563029D02*
X43953029Y-56880000D01*
X43589441Y-59100559D02*
X40885014Y-59100559D01*
X154830000Y-109100000D02*
X157130000Y-109100000D01*
X265474513Y-90188905D02*
X265474513Y-89403607D01*
X213320000Y-109180000D02*
X216000000Y-109180000D01*
X134310000Y-88610000D02*
X135390000Y-89690000D01*
X128550000Y-111330000D02*
X128550000Y-110377358D01*
X265159659Y-90666621D02*
X265159659Y-90503759D01*
X96660000Y-64603397D02*
X96660000Y-66470000D01*
X114550476Y-87419524D02*
X115520000Y-86450000D01*
X266155806Y-89179607D02*
X267515413Y-87820000D01*
X71138513Y-89179608D02*
X71595806Y-89179608D01*
X71138244Y-69679539D02*
X71548244Y-69269539D01*
X91051805Y-108635608D02*
X92427413Y-107260000D01*
X69520000Y-53860000D02*
X69817084Y-53562916D01*
X169959527Y-68430000D02*
X172300000Y-68430000D01*
X149419382Y-50179577D02*
X150268453Y-49330506D01*
X110050029Y-50179577D02*
X110492617Y-50179577D01*
X74450000Y-87970000D02*
X75570000Y-87970000D01*
X246534257Y-108635608D02*
X247779865Y-107390000D01*
X206770000Y-51524936D02*
X207106030Y-51188906D01*
X57570000Y-89710000D02*
X59400000Y-89710000D01*
X269400000Y-87820000D02*
X270810000Y-86410000D01*
X112123413Y-107020000D02*
X114680000Y-107020000D01*
X226600000Y-90151358D02*
X226600000Y-89366060D01*
X109850000Y-89380122D02*
X110050514Y-89179608D01*
X267004668Y-68830468D02*
X268769532Y-68830468D01*
X228473804Y-107240000D02*
X229100000Y-107240000D01*
X148962029Y-50179577D02*
X149419382Y-50179577D01*
X210560000Y-88020000D02*
X211530000Y-88020000D01*
X115440000Y-89220000D02*
X115910000Y-89690000D01*
X265698244Y-69679508D02*
X266155628Y-69679508D01*
X187481087Y-51357848D02*
X187650029Y-51188906D01*
X187650029Y-50403608D02*
X187874029Y-50179608D01*
X51682514Y-89179547D02*
X52139866Y-89179547D01*
X245849087Y-51357818D02*
X246018029Y-51188876D01*
X150579413Y-88020000D02*
X152600000Y-88020000D01*
X205850000Y-92880000D02*
X206937571Y-91792429D01*
X187650244Y-69903509D02*
X187874244Y-69679509D01*
X93720000Y-107260000D02*
X93750000Y-107260000D01*
X226195811Y-90555547D02*
X226600000Y-90151358D01*
X246018244Y-70688806D02*
X246018244Y-69903508D01*
X91051867Y-89179547D02*
X90594513Y-89179547D01*
X192180000Y-87870000D02*
X192920000Y-88610000D01*
X148569571Y-90357786D02*
X148738512Y-90188845D01*
X211970468Y-68830468D02*
X212890000Y-69750000D01*
X108740000Y-52274904D02*
X109830000Y-51184904D01*
X207330513Y-108635547D02*
X207787867Y-108635547D01*
X187874244Y-69679509D02*
X188331627Y-69679509D01*
X110050244Y-69679508D02*
X110507628Y-69679508D01*
X206937571Y-91792429D02*
X206937571Y-90357849D01*
X266155628Y-69679508D02*
X267004668Y-68830468D01*
X71595806Y-89179608D02*
X72805414Y-87970000D01*
X127410000Y-93000000D02*
X128230000Y-92180000D01*
X226562513Y-108859547D02*
X226786513Y-108635547D01*
X148371542Y-72258458D02*
X148371542Y-71055508D01*
X166390000Y-73380000D02*
X167827542Y-71942458D01*
X174360000Y-50700000D02*
X176540000Y-50700000D01*
X128540000Y-51930935D02*
X129282029Y-51188906D01*
X225400000Y-92850000D02*
X226195811Y-92054189D01*
X72700000Y-68680000D02*
X75020000Y-68680000D01*
X191850000Y-49120000D02*
X192370000Y-49120000D01*
X192210000Y-107280000D02*
X192570000Y-107640000D01*
X187874513Y-89179547D02*
X188331867Y-89179547D01*
X96040477Y-88330477D02*
X91900937Y-88330477D01*
X207106030Y-51188906D02*
X207106030Y-50403608D01*
X167830000Y-52320000D02*
X167830000Y-51552935D01*
X76090000Y-49300000D02*
X77320000Y-50530000D01*
X213230000Y-89720000D02*
X215950000Y-89720000D01*
X72715803Y-107350000D02*
X73540000Y-107350000D01*
X148738512Y-89403547D02*
X148962512Y-89179547D01*
X147260000Y-53620000D02*
X148371327Y-52508673D01*
X50970000Y-51676904D02*
X51458029Y-51188875D01*
X76140000Y-88540000D02*
X77330000Y-89730000D01*
X192920000Y-88610000D02*
X194000000Y-89690000D01*
X135390000Y-89690000D02*
X137390000Y-89690000D01*
X206710000Y-72150000D02*
X206710000Y-71085050D01*
X149419866Y-89179547D02*
X150579413Y-88020000D01*
X228092453Y-49330506D02*
X230890506Y-49330506D01*
X153220506Y-49330506D02*
X154140000Y-50250000D01*
X153540000Y-88020000D02*
X153800000Y-88280000D01*
X187110000Y-72650000D02*
X187110000Y-71229051D01*
X55420000Y-68250000D02*
X56600000Y-67070000D01*
X91051597Y-69679539D02*
X90594246Y-69679539D01*
X129506244Y-69679539D02*
X129963598Y-69679539D01*
X150268668Y-68830468D02*
X153750468Y-68830468D01*
X77410000Y-66290000D02*
X77850000Y-65850000D01*
X226330000Y-109877358D02*
X226562513Y-109644845D01*
X115540000Y-69510000D02*
X116270000Y-70240000D01*
X168418513Y-108635607D02*
X168875806Y-108635607D01*
X43173441Y-53056559D02*
X41601681Y-53056559D01*
X265474244Y-69903508D02*
X265698244Y-69679508D01*
X209153414Y-107270000D02*
X210510000Y-107270000D01*
X172990507Y-49330507D02*
X174360000Y-50700000D01*
X90370029Y-51188875D02*
X90370029Y-50403577D01*
X225380000Y-73290000D02*
X226393304Y-72276696D01*
X207106030Y-50403608D02*
X207330030Y-50179608D01*
X249851050Y-68828950D02*
X252010000Y-66670000D01*
X246018244Y-69903508D02*
X246242244Y-69679508D01*
X89710000Y-51848904D02*
X90370029Y-51188875D01*
X129282513Y-108859547D02*
X129506513Y-108635547D01*
X226562029Y-50403608D02*
X226786029Y-50179608D01*
X129963351Y-50179608D02*
X130882959Y-49260000D01*
X246242029Y-50179578D02*
X246699381Y-50179578D01*
X226562029Y-51188906D02*
X226562029Y-50403608D01*
X226562244Y-70688805D02*
X226562244Y-69903507D01*
X116150000Y-105550000D02*
X116150000Y-103960405D01*
X206710000Y-71085050D02*
X207106244Y-70688806D01*
X51682244Y-69679508D02*
X52139628Y-69679508D01*
X264670000Y-51992903D02*
X265474028Y-51188875D01*
X266155866Y-108635547D02*
X267471413Y-107320000D01*
X54060000Y-68250000D02*
X55420000Y-68250000D01*
X170311413Y-107200000D02*
X171530000Y-107200000D01*
X129963865Y-89179547D02*
X131123412Y-88020000D01*
X89500000Y-92490000D02*
X89500000Y-91059358D01*
X189201136Y-68810000D02*
X192460000Y-68810000D01*
X128680000Y-71291080D02*
X128680000Y-72270000D01*
X167827542Y-71942458D02*
X167827542Y-71055539D01*
X231630000Y-50070000D02*
X232230000Y-50670000D01*
X207787350Y-50179608D02*
X208636453Y-49330505D01*
X110342258Y-89179608D02*
X111191390Y-88330476D01*
X167841688Y-109997730D02*
X168194513Y-109644905D01*
X150268937Y-107786476D02*
X153516476Y-107786476D01*
X154870000Y-69950000D02*
X155160000Y-70240000D01*
X75570000Y-87970000D02*
X76140000Y-88540000D01*
X109826244Y-70688806D02*
X109826244Y-69903508D01*
X268150000Y-107320000D02*
X269380000Y-107320000D01*
X188331867Y-89179547D02*
X189641414Y-87870000D01*
X135070000Y-50600000D02*
X137530000Y-50600000D01*
X40885013Y-51100558D02*
X40885013Y-52339891D01*
X206561358Y-110190000D02*
X207106513Y-109644845D01*
X208471028Y-68830468D02*
X211970468Y-68830468D01*
X91900937Y-88330477D02*
X91051867Y-89179547D01*
X246018029Y-51188876D02*
X246018029Y-50403578D01*
X57100000Y-105720000D02*
X57100000Y-103910000D01*
X208636453Y-49330505D02*
X211900505Y-49330505D01*
X50970000Y-52580000D02*
X50970000Y-51676904D01*
X174110000Y-89690000D02*
X176800000Y-89690000D01*
X252400000Y-66280000D02*
X252400000Y-64430000D01*
%TO.N,3V*%
X19500092Y-48417262D02*
X18727573Y-47644743D01*
X18727573Y-50184743D02*
X18727573Y-52724743D01*
X18727573Y-46395498D02*
X20134282Y-44988789D01*
X40216495Y-71030895D02*
X21251589Y-71030895D01*
X18727573Y-47644743D02*
X18727573Y-50184743D01*
X18727573Y-52724743D02*
X18727573Y-55264743D01*
X18727574Y-57804743D02*
X18727573Y-60344743D01*
X18727573Y-55264743D02*
X18727574Y-57804743D01*
X18727574Y-68220000D02*
X18727573Y-62884743D01*
X18727573Y-68506879D02*
X18727574Y-68220000D01*
X43123800Y-68123589D02*
X40216495Y-71030895D01*
X18727573Y-47644743D02*
X18727573Y-46395498D01*
X21251589Y-71030895D02*
X18727573Y-68506879D01*
X18727573Y-60344743D02*
X18727573Y-62884743D01*
X20313389Y-64470558D02*
X27052513Y-64470558D01*
X29511300Y-46598588D02*
X29153800Y-46241089D01*
X27052513Y-64470558D02*
X29511301Y-66929345D01*
X18727573Y-62884743D02*
X20313389Y-64470558D01*
X27901501Y-44988788D02*
X29153800Y-46241089D01*
X20134282Y-44988789D02*
X27901501Y-44988788D01*
X22803801Y-48781088D02*
X22439973Y-48417262D01*
X22439973Y-48417262D02*
X19500092Y-48417262D01*
X29511301Y-66929345D02*
X29511300Y-67211088D01*
D33*
%TO.N,P3*%
X23381948Y-55181123D02*
X24172513Y-54390557D01*
X208188176Y-60881507D02*
X208188194Y-60881489D01*
X169276646Y-119337495D02*
X167116670Y-119337495D01*
X147882444Y-100982447D02*
X147832513Y-100932516D01*
X145319155Y-60326619D02*
X146925046Y-61932510D01*
X227644646Y-119337495D02*
X225484670Y-119337496D01*
X159970514Y-87431360D02*
X159970514Y-85771704D01*
X147802513Y-81432510D02*
X146925284Y-81432510D01*
X160056614Y-96662531D02*
X155736698Y-100982447D01*
X159970030Y-48431390D02*
X160056130Y-48517490D01*
X146925046Y-61932510D02*
X147722513Y-61932510D01*
X155736247Y-61982441D02*
X160056130Y-57662557D01*
X145319155Y-55957411D02*
X145319155Y-60326619D01*
X52540415Y-80381507D02*
X52540434Y-80381489D01*
X140600614Y-87517461D02*
X140600614Y-97730923D01*
X225484670Y-119337496D02*
X225484652Y-119337513D01*
X160056614Y-87517460D02*
X160056614Y-96662531D01*
X20442513Y-54640558D02*
X20983077Y-55181123D01*
X140514514Y-106887360D02*
X140514515Y-108087360D01*
X23183044Y-51321089D02*
X22803800Y-51321090D01*
X91452194Y-60881490D02*
X89292218Y-60881489D01*
X160056614Y-106973460D02*
X160056614Y-116118531D01*
X125863638Y-99326657D02*
X127469497Y-100932516D01*
X140514515Y-106887360D02*
X140600614Y-106973460D01*
X160056130Y-48517490D02*
X160056130Y-57060285D01*
X46366526Y-63153474D02*
X52090574Y-63153474D01*
X145319369Y-79826595D02*
X145319369Y-76811525D01*
X50380439Y-80381507D02*
X52540415Y-80381507D01*
X125863639Y-96311532D02*
X125863638Y-99326657D01*
X140514514Y-105663548D02*
X138461252Y-103610286D01*
X57302200Y-63758000D02*
X62674734Y-63758000D01*
X159970514Y-106887361D02*
X160056614Y-106973460D01*
X125863638Y-118782657D02*
X125863639Y-115767533D01*
X206028200Y-60881507D02*
X208188176Y-60881507D01*
X264396200Y-60881507D02*
X266556176Y-60881507D01*
X160056614Y-116118531D02*
X155736698Y-120438447D01*
X140600614Y-97730923D02*
X138051252Y-100280285D01*
X52491574Y-63554474D02*
X57098674Y-63554474D01*
X159970514Y-85771704D02*
X155681253Y-81482441D01*
X140514514Y-87431359D02*
X140514514Y-81616381D01*
X145319640Y-112892485D02*
X145319639Y-115767533D01*
X128312444Y-100982447D02*
X137349090Y-100982447D01*
X159970245Y-66349278D02*
X158021252Y-64400285D01*
X159970245Y-67931352D02*
X160056346Y-68017452D01*
X89292218Y-60881489D02*
X89292201Y-60881507D01*
X140514514Y-106887360D02*
X140514514Y-105663548D01*
X52090574Y-63153474D02*
X52491574Y-63554474D01*
X128262513Y-100932517D02*
X128312444Y-100982447D01*
X147722513Y-61932510D02*
X147772444Y-61982441D01*
X146925497Y-100932516D02*
X145319638Y-99326657D01*
X137349090Y-100982447D02*
X138051252Y-100280285D01*
X24172513Y-54390557D02*
X24172514Y-52310558D01*
X147852444Y-81482442D02*
X147802513Y-81432510D01*
X62674734Y-63758000D02*
X64521252Y-65604517D01*
X57098674Y-63554474D02*
X57302200Y-63758000D01*
X160056345Y-77162581D02*
X155736487Y-81482441D01*
X140514515Y-87431360D02*
X140600614Y-87517461D01*
X140514515Y-108087360D02*
X145319640Y-112892485D01*
X160056346Y-68017452D02*
X160056345Y-77162581D01*
X155681253Y-81482441D02*
X147852444Y-81482442D01*
X159970514Y-87431360D02*
X160056614Y-87517460D01*
X127469497Y-100932516D02*
X128262513Y-100932517D01*
X146925284Y-81432510D02*
X145319369Y-79826595D01*
X146975429Y-120438447D02*
X145319638Y-118782657D01*
X167116670Y-119337495D02*
X167116652Y-119337514D01*
X155736698Y-120438447D02*
X146975429Y-120438447D01*
X140600614Y-106973460D02*
X140600614Y-116118531D01*
X145319638Y-99326657D02*
X145319638Y-96311533D01*
X140600614Y-116118531D02*
X136280698Y-120438447D01*
X144462030Y-55100285D02*
X145319155Y-55957411D01*
X147772444Y-61982441D02*
X155736247Y-61982441D01*
X140514514Y-81616381D02*
X145319370Y-76811525D01*
X147832513Y-100932516D02*
X146925497Y-100932516D01*
X266556176Y-60881507D02*
X266556194Y-60881489D01*
X24172514Y-52310558D02*
X23183044Y-51321089D01*
X160056130Y-57662557D02*
X160056130Y-57060285D01*
X20983077Y-55181123D02*
X23381948Y-55181123D01*
X145319638Y-118782657D02*
X145319638Y-115767533D01*
X136280698Y-120438447D02*
X127519428Y-120438447D01*
X45710000Y-63810000D02*
X46366526Y-63153474D01*
X155736698Y-100982447D02*
X147882444Y-100982447D01*
X127519428Y-120438447D02*
X125863638Y-118782657D01*
X159970245Y-67931352D02*
X159970245Y-66349278D01*
X155736487Y-81482441D02*
X155681253Y-81482441D01*
%TO.N,P2*%
X106407370Y-76811525D02*
X106407369Y-79826595D01*
X247100646Y-119337495D02*
X244940670Y-119337495D01*
X121058514Y-106887360D02*
X121144614Y-106973460D01*
X140600345Y-68017452D02*
X140600345Y-77162581D01*
X118736252Y-100255286D02*
X118009091Y-100982447D01*
X111577077Y-98600000D02*
X107297638Y-98600000D01*
X106407638Y-118782657D02*
X106407638Y-115767533D01*
X17449574Y-69036245D02*
X17449573Y-64892485D01*
X121981252Y-68854359D02*
X121058245Y-67931352D01*
X121144130Y-57662557D02*
X116824247Y-61982441D01*
X108013284Y-81432510D02*
X108762513Y-81432510D01*
X19890513Y-106912758D02*
X19890513Y-71477185D01*
X121144614Y-97846923D02*
X121144614Y-95290000D01*
X128192444Y-61982442D02*
X136599096Y-61982441D01*
X125863370Y-74142403D02*
X121981253Y-70260285D01*
X113468447Y-120438447D02*
X111380000Y-118350000D01*
X139250779Y-64209812D02*
X138635914Y-64209812D01*
X108762513Y-61932510D02*
X108013045Y-61932510D01*
X140514245Y-67931352D02*
X140514245Y-65473278D01*
X108013045Y-61932510D02*
X106407155Y-60326619D01*
X125558855Y-43930566D02*
X136013207Y-43930566D01*
X121058514Y-105517547D02*
X118771252Y-103230285D01*
X16919339Y-64362251D02*
X16919339Y-57713519D01*
X60691832Y-119337513D02*
X59088060Y-120941285D01*
X225484652Y-99881513D02*
X227644628Y-99881513D01*
X147660202Y-60881507D02*
X149820176Y-60881507D01*
X20442513Y-52100559D02*
X22203043Y-53861089D01*
X127469045Y-61932510D02*
X128142513Y-61932510D01*
X110140000Y-118350000D02*
X110076510Y-118286510D01*
X71996646Y-119337495D02*
X69836670Y-119337495D01*
X120606252Y-98385285D02*
X121144614Y-97846923D01*
X105550029Y-55500285D02*
X106407156Y-56357412D01*
X149820176Y-60881507D02*
X149820194Y-60881489D01*
X140514245Y-65473278D02*
X139250779Y-64209812D01*
X140600130Y-48517490D02*
X140514030Y-48431391D01*
X49613879Y-120941285D02*
X40155153Y-111482558D01*
X121058031Y-48431390D02*
X125558855Y-43930566D01*
X108762513Y-81432510D02*
X108812445Y-81482440D01*
X40155153Y-111482558D02*
X24460313Y-111482558D01*
X52540194Y-60881489D02*
X50380217Y-60881489D01*
X128312445Y-81482441D02*
X128262513Y-81432510D01*
X227644628Y-99881513D02*
X227644646Y-99881495D01*
X111380000Y-118350000D02*
X110140000Y-118350000D01*
X107297638Y-98600000D02*
X106407638Y-97710000D01*
X106903785Y-118286510D02*
X106407638Y-118782657D01*
X128142513Y-61932510D02*
X128192444Y-61982442D01*
X121144345Y-78275655D02*
X121144345Y-68017452D01*
X121058514Y-81616381D02*
X125863370Y-76811525D01*
X116824247Y-61982441D02*
X108812444Y-61982441D01*
X125863370Y-79826595D02*
X125863369Y-76811525D01*
X140600131Y-57981406D02*
X140600130Y-48517490D01*
X110076510Y-118286510D02*
X106903785Y-118286510D01*
X106407155Y-60326619D02*
X106407154Y-57311563D01*
X125863154Y-57311563D02*
X125863154Y-60326619D01*
X69836653Y-119337513D02*
X60691832Y-119337513D01*
X18097433Y-69684104D02*
X17449574Y-69036245D01*
X138926252Y-59655285D02*
X140600131Y-57981406D01*
X121058514Y-87431360D02*
X121058514Y-81616381D01*
X121144616Y-87517460D02*
X121058514Y-87431360D01*
X121981253Y-70260285D02*
X121981252Y-68854359D01*
X140600345Y-77162581D02*
X136280485Y-81482441D01*
X244940670Y-119337495D02*
X244940652Y-119337513D01*
X24460313Y-111482558D02*
X19890513Y-106912758D01*
X22203043Y-53861089D02*
X22803800Y-53861089D01*
X17449573Y-64892485D02*
X16919339Y-64362251D01*
X136013207Y-43930566D02*
X140514030Y-48431391D01*
X121058031Y-48431390D02*
X121144130Y-48517490D01*
X59088060Y-120941285D02*
X49613879Y-120941285D01*
X118009091Y-100982447D02*
X113959524Y-100982447D01*
X121058514Y-106887360D02*
X121058514Y-105517547D01*
X128262513Y-81432510D02*
X127469285Y-81432510D01*
X106407638Y-97710000D02*
X106407638Y-96311534D01*
X121144130Y-48517490D02*
X121144130Y-57662557D01*
X169276628Y-99881512D02*
X169276646Y-99881495D01*
X117937559Y-81482441D02*
X121144345Y-78275655D01*
X106407369Y-79826595D02*
X108013284Y-81432510D01*
X121144614Y-95290000D02*
X121144616Y-87517460D01*
X140514245Y-67931352D02*
X140600345Y-68017452D01*
X121144614Y-106973460D02*
X121144614Y-116118531D01*
X136280485Y-81482441D02*
X128312445Y-81482441D01*
X125863154Y-60326619D02*
X127469045Y-61932510D01*
X125863370Y-76811525D02*
X125863370Y-74142403D01*
X116824699Y-120438447D02*
X113468447Y-120438447D01*
X113959524Y-100982447D02*
X111577077Y-98600000D01*
X167116652Y-99881513D02*
X169276628Y-99881512D01*
X127469285Y-81432510D02*
X125863370Y-79826595D01*
X69836670Y-119337495D02*
X69836652Y-119337513D01*
X106407156Y-56357412D02*
X106407156Y-57311564D01*
X16919339Y-57713519D02*
X18052573Y-56580285D01*
X121144345Y-68017452D02*
X121058246Y-67931352D01*
X19890513Y-71477185D02*
X18097433Y-69684104D01*
X121144614Y-116118531D02*
X116824699Y-120438447D01*
X50380217Y-60881489D02*
X50380200Y-60881507D01*
X108812445Y-81482440D02*
X117937559Y-81482441D01*
X136599096Y-61982441D02*
X138926252Y-59655285D01*
X108812444Y-61982441D02*
X108762513Y-61932510D01*
X118736252Y-100255286D02*
X120606252Y-98385285D01*
%TO.N,P1*%
X63694712Y-115767533D02*
X67495640Y-115767533D01*
X97368486Y-81482441D02*
X89382444Y-81482441D01*
X37561252Y-111081558D02*
X24626413Y-111081558D01*
X97368698Y-120438447D02*
X88607428Y-120438447D01*
X88607428Y-120438447D02*
X86951638Y-118782657D01*
X225484439Y-80381507D02*
X227644415Y-80381507D01*
X22803800Y-56401089D02*
X23558911Y-56401089D01*
X59661606Y-119800640D02*
X58921960Y-120540286D01*
X18145983Y-69165554D02*
X17850573Y-68870145D01*
X24573514Y-50663514D02*
X23918389Y-50008389D01*
X128204670Y-119337495D02*
X128204652Y-119337513D01*
X82232614Y-116118531D02*
X77912698Y-120438447D01*
X188732629Y-119337513D02*
X188732647Y-119337494D01*
X17320339Y-64196151D02*
X17320339Y-59923807D01*
X82146514Y-106887360D02*
X82232614Y-106973460D01*
X24626413Y-111081558D02*
X20291513Y-106746658D01*
X69912513Y-100932516D02*
X69962444Y-100982447D01*
X86951638Y-118782657D02*
X86951638Y-115767533D01*
X86951369Y-79826595D02*
X86951369Y-76811525D01*
X101602030Y-48431390D02*
X101688130Y-48517490D01*
X86951154Y-58620000D02*
X86951154Y-57311563D01*
X23918389Y-50008389D02*
X20890343Y-50008389D01*
X82232615Y-97288922D02*
X82232614Y-87517460D01*
X88557285Y-81432510D02*
X86951369Y-79826595D01*
X77912698Y-120438447D02*
X76391252Y-120438447D01*
X88494471Y-100932516D02*
X86951638Y-99389683D01*
X40321253Y-111081558D02*
X37561252Y-111081558D01*
X101602514Y-85716469D02*
X97368486Y-81482441D01*
X101602514Y-106887360D02*
X101688614Y-106973460D01*
X101688345Y-68017452D02*
X101688345Y-77162581D01*
X101602245Y-67931352D02*
X101602245Y-66511278D01*
X67495639Y-96311533D02*
X67495637Y-99326657D01*
X99205463Y-79645463D02*
X97368486Y-81482441D01*
X97915974Y-61982441D02*
X94503071Y-61982441D01*
X244940652Y-99881513D02*
X247100628Y-99881513D01*
X88161658Y-59830504D02*
X86951154Y-58620000D01*
X67495639Y-117070285D02*
X67495638Y-115767532D01*
X94503071Y-61982441D02*
X93650000Y-61129370D01*
X101688130Y-58210285D02*
X99619691Y-60278724D01*
X86951638Y-99389683D02*
X86951638Y-96311534D01*
X97368698Y-100982447D02*
X89462444Y-100982447D01*
X101688345Y-77162581D02*
X99205463Y-79645463D01*
X101602514Y-87431360D02*
X101688614Y-87517460D01*
X76391252Y-120438447D02*
X74719414Y-120438447D01*
X86951640Y-111809311D02*
X86951640Y-115767533D01*
X82146514Y-106887360D02*
X82146514Y-105044151D01*
X169276415Y-80381507D02*
X169276434Y-80381489D01*
X69101497Y-100932516D02*
X69912513Y-100932516D01*
X20291514Y-71311085D02*
X18145983Y-69165554D01*
X101602514Y-87431360D02*
X101602514Y-85716469D01*
X69962444Y-100982447D02*
X78539090Y-100982447D01*
X186572652Y-119337513D02*
X188732629Y-119337513D01*
X101688614Y-87517460D02*
X101688613Y-96662531D01*
X80396253Y-99125285D02*
X82232615Y-97288922D01*
X17320339Y-59923807D02*
X18052573Y-59191573D01*
X110908416Y-80381507D02*
X110908433Y-80381489D01*
X49779979Y-120540285D02*
X40321253Y-111081558D01*
X82232614Y-87517460D02*
X82146514Y-87431359D01*
X101688614Y-106973460D02*
X101688615Y-116118530D01*
X101688613Y-96662531D02*
X97368698Y-100982447D01*
X92590504Y-59830504D02*
X88161658Y-59830504D01*
X58921960Y-120540286D02*
X49779979Y-120540285D01*
X24573513Y-55386487D02*
X24573514Y-50663514D01*
X130364646Y-119337494D02*
X128204670Y-119337495D01*
X89382444Y-81482441D02*
X89332514Y-81432510D01*
X67495637Y-99326657D02*
X69101497Y-100932516D01*
X89332514Y-81432510D02*
X88557285Y-81432510D01*
X89412513Y-100932516D02*
X88494471Y-100932516D01*
X82146515Y-87431360D02*
X82146515Y-81616380D01*
X78539090Y-100982447D02*
X80396253Y-99125285D01*
X20291513Y-106746658D02*
X20291514Y-71311085D01*
X93650000Y-60890000D02*
X92590504Y-59830504D01*
X227644415Y-80381507D02*
X227644433Y-80381490D01*
X17850573Y-68870145D02*
X17850573Y-64726385D01*
X39771439Y-111081559D02*
X37561252Y-111081558D01*
X67495640Y-115767533D02*
X67495639Y-116076520D01*
X167116439Y-80381507D02*
X169276415Y-80381507D01*
X68068875Y-117643521D02*
X67495639Y-117070285D01*
X17850573Y-64726385D02*
X17320339Y-64196151D01*
X82146514Y-106887360D02*
X82146514Y-107004186D01*
X101688130Y-48517490D02*
X101688130Y-58210285D01*
X59661606Y-119800640D02*
X63694712Y-115767533D01*
X74719414Y-120438447D02*
X71924488Y-117643521D01*
X93650000Y-61129370D02*
X93650000Y-60890000D01*
X71924488Y-117643521D02*
X68068875Y-117643521D01*
X23558911Y-56401089D02*
X24573513Y-55386487D01*
X82232614Y-106973460D02*
X82232614Y-116118531D01*
X89462444Y-100982447D02*
X89412513Y-100932516D01*
X20890343Y-50008389D02*
X20442513Y-49560559D01*
X108748439Y-80381507D02*
X110908416Y-80381507D01*
X101602245Y-67931352D02*
X101688345Y-68017452D01*
X99619691Y-60278724D02*
X97915974Y-61982441D01*
X101688615Y-116118530D02*
X97368698Y-120438447D01*
X82146515Y-81616380D02*
X86951370Y-76811525D01*
X82146514Y-105044151D02*
X80401950Y-103299587D01*
X101602245Y-66511278D02*
X99621252Y-64530285D01*
X247100628Y-99881513D02*
X247100646Y-99881495D01*
X82146514Y-107004186D02*
X86951640Y-111809311D01*
%TO.N,P0*%
X22992514Y-108880558D02*
X20692513Y-106580558D01*
X62690245Y-66088144D02*
X62672586Y-66070485D01*
X82232130Y-48517490D02*
X82232130Y-57662557D01*
X50312444Y-100982448D02*
X50262513Y-100932516D01*
X20692513Y-106580558D02*
X20692513Y-71144985D01*
X48039638Y-117760285D02*
X48131252Y-117760285D01*
X58456247Y-61982441D02*
X55591071Y-61982441D01*
X71996629Y-99881513D02*
X71996646Y-99881495D01*
X48039638Y-99326657D02*
X48039638Y-96311533D01*
X63872513Y-73440559D02*
X67243480Y-76811525D01*
X186572652Y-99881513D02*
X188732628Y-99881513D01*
X62690514Y-87431360D02*
X62776615Y-87517460D01*
X69151215Y-81482441D02*
X67495369Y-79826595D01*
X55591071Y-61982441D02*
X52968630Y-59360000D01*
X62776614Y-96300558D02*
X62776614Y-96662531D01*
X77912485Y-81482441D02*
X69151215Y-81482441D01*
X110908194Y-60881488D02*
X108748218Y-60881489D01*
X24792513Y-110680559D02*
X22992514Y-108880558D01*
X23400000Y-47468390D02*
X20890343Y-47468389D01*
X62690514Y-81616381D02*
X67495369Y-76811525D01*
X82232345Y-68017452D02*
X82232345Y-69930000D01*
X18251573Y-64560285D02*
X17721339Y-64030051D01*
X62690245Y-67931352D02*
X63872513Y-69113620D01*
X167116218Y-60881489D02*
X167116200Y-60881508D01*
X67190851Y-43930569D02*
X62690031Y-48431390D01*
X82146245Y-67931352D02*
X82232345Y-68017452D01*
X49540830Y-59360000D02*
X48039155Y-57858326D01*
X48039155Y-57858326D02*
X48039155Y-57311563D01*
X227644195Y-60881489D02*
X225484218Y-60881490D01*
X82146030Y-48431390D02*
X82232130Y-48517490D01*
X58456485Y-81482441D02*
X49392441Y-81482441D01*
X62776615Y-106973460D02*
X62776614Y-115300285D01*
X62776614Y-96662531D02*
X58456699Y-100982447D01*
X130364629Y-99881513D02*
X130364647Y-99881495D01*
X62776345Y-77162582D02*
X58456485Y-81482441D01*
X20692513Y-71144985D02*
X18419532Y-68872005D01*
X82232345Y-69930000D02*
X82232345Y-77162581D01*
X52968630Y-59360000D02*
X49540830Y-59360000D01*
X128204652Y-99881513D02*
X130364629Y-99881513D01*
X67495155Y-57976382D02*
X67495155Y-57311563D01*
X67495154Y-57957917D02*
X67495154Y-57311563D01*
X62776345Y-68017452D02*
X62776345Y-77162582D01*
X66845650Y-58625887D02*
X67495155Y-57976382D01*
X24974513Y-56770375D02*
X24974514Y-49042904D01*
X188732628Y-99881513D02*
X188732647Y-99881495D01*
X62776130Y-48517490D02*
X62776130Y-57662557D01*
X77645209Y-43930569D02*
X67190851Y-43930569D01*
X67495369Y-79826595D02*
X67495369Y-76811525D01*
X49645499Y-100932516D02*
X48039638Y-99326657D01*
X63872513Y-69113620D02*
X63872513Y-73440559D01*
X225484218Y-60881490D02*
X225484200Y-60881507D01*
X69836652Y-99881514D02*
X71996629Y-99881513D01*
X18419532Y-68872005D02*
X18251573Y-68704045D01*
X58456699Y-100982447D02*
X50312444Y-100982448D01*
X66845650Y-60086154D02*
X66845650Y-58625887D01*
X62776130Y-57662557D02*
X58456247Y-61982441D01*
X48039639Y-115767533D02*
X48039639Y-115458546D01*
X20890343Y-47468389D02*
X20442513Y-47020560D01*
X62690245Y-67931352D02*
X62776345Y-68017452D01*
X67243480Y-76811525D02*
X67495369Y-76811525D01*
X67495154Y-60326619D02*
X67495154Y-58437918D01*
X82146030Y-48431390D02*
X77645209Y-43930569D01*
X48039638Y-117760285D02*
X48039638Y-115767533D01*
X24974514Y-49042904D02*
X23400000Y-47468390D01*
X43261651Y-110680558D02*
X24792513Y-110680559D01*
X108748218Y-60881489D02*
X108748200Y-60881507D01*
X62690514Y-87431360D02*
X62690514Y-81616381D01*
X17721339Y-64030051D02*
X17721339Y-61991339D01*
X22803800Y-58941088D02*
X24974513Y-56770375D01*
X169276194Y-60881489D02*
X167116218Y-60881489D01*
X49392441Y-81482441D02*
X48039369Y-80129369D01*
X62690514Y-105142557D02*
X62739716Y-105093354D01*
X18251573Y-68704045D02*
X18251573Y-64560285D01*
X82232130Y-57662557D02*
X77912246Y-61982441D01*
X62690031Y-48431390D02*
X62776130Y-48517490D01*
X62690245Y-67931352D02*
X62690245Y-66088144D01*
X77912246Y-61982441D02*
X69150977Y-61982442D01*
X50262513Y-100932516D02*
X49645499Y-100932516D01*
X62776615Y-87517460D02*
X62776614Y-96300558D01*
X48039369Y-80129369D02*
X48039369Y-76811525D01*
X62690514Y-106887360D02*
X62690514Y-105142557D01*
X82232345Y-77162581D02*
X77912485Y-81482441D01*
X69150977Y-61982442D02*
X67495154Y-60326619D01*
X62690514Y-106887360D02*
X62776615Y-106973460D01*
X48039639Y-115458546D02*
X43261651Y-110680558D01*
X17721339Y-61991339D02*
X18052573Y-61660104D01*
%TO.N,P4*%
X179426514Y-105256514D02*
X177380000Y-103210000D01*
X164775154Y-61134187D02*
X164775154Y-57311563D01*
X179512345Y-77162581D02*
X175192485Y-81482441D01*
X206028439Y-80381507D02*
X208188416Y-80381507D01*
X175192700Y-120438447D02*
X172168447Y-120438447D01*
X185837284Y-81432509D02*
X184231369Y-79826596D01*
X266556415Y-80381506D02*
X266556434Y-80381489D01*
X247100176Y-60881508D02*
X247100194Y-60881489D01*
X179512130Y-60377870D02*
X178154842Y-61735158D01*
X179512615Y-106973460D02*
X179512614Y-116118531D01*
X244940200Y-60881507D02*
X247100176Y-60881508D01*
X179512345Y-68017452D02*
X179512345Y-77162581D01*
X166381284Y-81432510D02*
X164775369Y-79826595D01*
X179426246Y-67931352D02*
X179426246Y-66236246D01*
X208188416Y-80381507D02*
X208188433Y-80381489D01*
X36247422Y-45497468D02*
X38043800Y-43701089D01*
X179426246Y-69131352D02*
X184231370Y-73936476D01*
X184231369Y-79826596D02*
X184231369Y-76811526D01*
X179426514Y-81616381D02*
X184231370Y-76811525D01*
X179426514Y-106887361D02*
X179512615Y-106973460D01*
X179959000Y-91900000D02*
X179959000Y-87963846D01*
X176608327Y-100982447D02*
X177385386Y-100205388D01*
X52540628Y-99881513D02*
X52540646Y-99881495D01*
X172168447Y-120438447D02*
X169920000Y-118190000D01*
X186732445Y-81482441D02*
X186682513Y-81432510D01*
X179426514Y-106887360D02*
X179426514Y-105256514D01*
X166842514Y-81432510D02*
X166381284Y-81432510D01*
X179959000Y-91900000D02*
X179959000Y-97631774D01*
X179959000Y-97631774D02*
X177385386Y-100205388D01*
X178154842Y-61735158D02*
X176855158Y-61735158D01*
X198968131Y-48517490D02*
X194381207Y-43930567D01*
X174420000Y-61982442D02*
X165623408Y-61982441D01*
X89292439Y-80381507D02*
X91452415Y-80381507D01*
X167142513Y-100932516D02*
X167192444Y-100982447D01*
X33594513Y-58615487D02*
X33594513Y-51973631D01*
X186682513Y-81432510D02*
X185837284Y-81432509D01*
X198968346Y-77162581D02*
X194648485Y-81482441D01*
X169920000Y-118190000D02*
X165895638Y-118190000D01*
X198968345Y-68017452D02*
X198968346Y-77162581D01*
X179426514Y-87431360D02*
X179426514Y-81616381D01*
X198968131Y-57662557D02*
X198968131Y-48517490D01*
X50380653Y-99881513D02*
X52540628Y-99881513D01*
X179959000Y-87963846D02*
X179426514Y-87431360D01*
X108748652Y-99881513D02*
X110908628Y-99881513D01*
X173610000Y-100982447D02*
X176608327Y-100982447D01*
X164775639Y-99326657D02*
X166381497Y-100932516D01*
X194648246Y-61982441D02*
X198968131Y-57662557D01*
X176607874Y-61982442D02*
X176855158Y-61735158D01*
X198882245Y-67931352D02*
X198968345Y-68017452D01*
X175192485Y-81482441D02*
X166892444Y-81482441D01*
X33594513Y-51973631D02*
X36247422Y-49320721D01*
X183926853Y-43930567D02*
X179426030Y-48431390D01*
X166381497Y-100932516D02*
X167142513Y-100932516D01*
X175192246Y-61982442D02*
X174420000Y-61982442D01*
X194648485Y-81482441D02*
X186732445Y-81482441D01*
X32091611Y-60118389D02*
X33594513Y-58615487D01*
X91452415Y-80381507D02*
X91452433Y-80381489D01*
X36247422Y-49320721D02*
X36247422Y-45497468D01*
X20442513Y-58244756D02*
X22316146Y-60118389D01*
X110908628Y-99881513D02*
X110908646Y-99881495D01*
X185886976Y-61982442D02*
X194648246Y-61982441D01*
X184231154Y-60326619D02*
X185886976Y-61982442D01*
X174420000Y-61982442D02*
X176607874Y-61982442D01*
X179426246Y-66236246D02*
X177590000Y-64400000D01*
X179512130Y-48517490D02*
X179512130Y-60377870D01*
X22316146Y-60118389D02*
X32091611Y-60118389D01*
X167192444Y-100982447D02*
X173610000Y-100982447D01*
X194381207Y-43930567D02*
X183926853Y-43930567D01*
X165623408Y-61982441D02*
X164775154Y-61134187D01*
X179426247Y-67931352D02*
X179426246Y-69131352D01*
X184231370Y-73936476D02*
X184231370Y-76811525D01*
X264396439Y-80381507D02*
X266556415Y-80381506D01*
X179512614Y-116118531D02*
X175192700Y-120438447D01*
X164775638Y-117070000D02*
X164775638Y-115767533D01*
X179426030Y-48431390D02*
X179512130Y-48517490D01*
X179426245Y-67931352D02*
X179512345Y-68017452D01*
X166892444Y-81482441D02*
X166842514Y-81432510D01*
X184231154Y-57311563D02*
X184231154Y-60326619D01*
X164775639Y-99000000D02*
X164775639Y-99326657D01*
X20442515Y-57180559D02*
X20442513Y-58244756D01*
X164775638Y-96311533D02*
X164775639Y-99000000D01*
X165895638Y-118190000D02*
X164775638Y-117070000D01*
X164775369Y-79826595D02*
X164775370Y-76811525D01*
%TO.N,P5*%
X186692444Y-100982447D02*
X195637553Y-100982447D01*
X203687369Y-79826595D02*
X203687369Y-76811524D01*
X31232341Y-62720559D02*
X33071450Y-60881450D01*
X198882515Y-106887360D02*
X196670000Y-104674845D01*
X205343215Y-81482441D02*
X203687369Y-79826595D01*
X186802514Y-120388515D02*
X185837497Y-120388517D01*
X218424614Y-97685386D02*
X215127553Y-100982447D01*
X195637553Y-100982447D02*
X196130000Y-100490000D01*
X22378315Y-62720558D02*
X22990000Y-62720559D01*
X214690632Y-81482441D02*
X205343215Y-81482441D01*
X196130000Y-100490000D02*
X196110000Y-100490000D01*
X218424130Y-48517491D02*
X218338030Y-48431390D01*
X218424130Y-58355870D02*
X218424130Y-48517491D01*
X218338245Y-67931352D02*
X218424346Y-68017452D01*
X205293046Y-61932509D02*
X206262513Y-61932510D01*
X149820415Y-80381507D02*
X149820433Y-80381489D01*
X206262513Y-61932510D02*
X206312444Y-61982441D01*
X54360000Y-117518140D02*
X54360000Y-115220000D01*
X218424346Y-68017452D02*
X218424345Y-77748726D01*
X54360000Y-115220000D02*
X52440000Y-113300000D01*
X203687154Y-60326618D02*
X205293046Y-61932509D01*
X52540646Y-119337495D02*
X54360000Y-117518140D01*
X194648698Y-120438448D02*
X186852444Y-120438447D01*
X196670000Y-104674845D02*
X196670000Y-103400000D01*
X185837497Y-120388517D02*
X184231638Y-118782658D01*
X205343429Y-100982447D02*
X203687638Y-99326657D01*
X206192444Y-120438447D02*
X206142513Y-120388516D01*
X33995513Y-52139731D02*
X36648422Y-49486821D01*
X31828554Y-110279558D02*
X30190000Y-108641004D01*
X21046885Y-61389129D02*
X22378315Y-62720558D01*
X108748672Y-119337495D02*
X108748652Y-119337513D01*
X184231638Y-99326657D02*
X185837497Y-100932516D01*
X22990000Y-62720559D02*
X31232341Y-62720559D01*
X206312444Y-61982441D02*
X214797560Y-61982440D01*
X36648422Y-49486821D02*
X36648422Y-47636467D01*
X110908646Y-119337496D02*
X108748672Y-119337495D01*
X196130000Y-100490000D02*
X198968615Y-97651385D01*
X52540646Y-119337495D02*
X50380670Y-119337495D01*
X218338514Y-106887360D02*
X218424614Y-106973460D01*
X264396652Y-99881514D02*
X266556628Y-99881513D01*
X218424614Y-87517460D02*
X218424614Y-97685386D01*
X50380670Y-119337495D02*
X50380654Y-119337513D01*
X247100415Y-80381507D02*
X247100433Y-80381489D01*
X206142513Y-120388516D02*
X205293497Y-120388516D01*
X214104698Y-120438447D02*
X206192444Y-120438447D01*
X186642515Y-100932516D02*
X186692444Y-100982447D01*
X184231640Y-114171640D02*
X184231640Y-115767533D01*
X215127553Y-100982447D02*
X205343429Y-100982447D01*
X43427751Y-110279558D02*
X31828554Y-110279558D01*
X89292652Y-99881512D02*
X91452628Y-99881513D01*
X218424614Y-116118532D02*
X214104698Y-120438447D01*
X184070000Y-113780000D02*
X184070000Y-114010000D01*
X216095000Y-60685000D02*
X218424130Y-58355870D01*
X184070000Y-114010000D02*
X184231640Y-114171640D01*
X205293497Y-120388516D02*
X203687638Y-118782657D01*
X218424345Y-77748726D02*
X214690632Y-81482441D01*
X30190000Y-108641004D02*
X30190000Y-90900000D01*
X203687638Y-99326657D02*
X203687638Y-96311533D01*
X218338245Y-66588245D02*
X216140000Y-64390000D01*
X20442512Y-59720558D02*
X21048535Y-61385591D01*
X184231638Y-118782658D02*
X184231639Y-115767533D01*
X218424346Y-68017452D02*
X218424345Y-87345529D01*
X198882515Y-110962409D02*
X203687639Y-115767533D01*
X198968615Y-97651385D02*
X198968614Y-87517460D01*
X33071450Y-60881450D02*
X33995513Y-59957387D01*
X52440000Y-113300000D02*
X46448193Y-113300000D01*
X198968614Y-106973460D02*
X198968615Y-116118531D01*
X203687156Y-57311563D02*
X203687154Y-60326618D01*
X50432424Y-120139285D02*
X50670000Y-120139285D01*
X185837497Y-100932516D02*
X186642515Y-100932516D01*
X218338514Y-87431360D02*
X218424614Y-87517460D01*
X203687638Y-118782657D02*
X203687638Y-115767533D01*
X214797560Y-61982440D02*
X216095000Y-60685000D01*
X218338245Y-67931352D02*
X218424346Y-68017452D01*
X21048535Y-61385591D02*
X21046885Y-61389129D01*
X198882514Y-106887360D02*
X198968614Y-106973460D01*
X33995513Y-59957387D02*
X33995513Y-52139731D01*
X198968615Y-116118531D02*
X194648698Y-120438448D01*
X266556628Y-99881513D02*
X266556646Y-99881495D01*
X198882515Y-81616380D02*
X203687370Y-76811525D01*
X244940440Y-80381507D02*
X247100415Y-80381507D01*
X218424345Y-87345529D02*
X218338514Y-87431360D01*
X198882515Y-87431360D02*
X198882515Y-81616380D01*
X198882516Y-106887360D02*
X198882515Y-110962409D01*
X36648422Y-47636467D02*
X38043800Y-46241089D01*
X91452628Y-99881513D02*
X91452646Y-99881495D01*
X147660439Y-80381508D02*
X149820415Y-80381507D01*
X184231638Y-96311533D02*
X184231638Y-99326657D01*
X218424614Y-106973460D02*
X218424614Y-116118532D01*
X46448193Y-113300000D02*
X43427751Y-110279558D01*
X50380652Y-120087513D02*
X50432424Y-120139285D01*
X186852444Y-120438447D02*
X186802514Y-120388515D01*
X50380652Y-119337513D02*
X50380652Y-120087513D01*
X198968614Y-87517460D02*
X198882515Y-87431360D01*
X218338245Y-67931352D02*
X218338245Y-66588245D01*
%TO.N,P6*%
X237794030Y-48431390D02*
X237880130Y-48517490D01*
X237794514Y-85716470D02*
X233560485Y-81482441D01*
X223143369Y-79826594D02*
X223143369Y-76811525D01*
X149820628Y-99881513D02*
X149820646Y-99881495D01*
X257250245Y-67931352D02*
X257336345Y-68017451D01*
X208188628Y-99881513D02*
X208188646Y-99881495D01*
X206028653Y-99881513D02*
X208188628Y-99881513D01*
X237794030Y-48431390D02*
X242305862Y-43919558D01*
X234007553Y-100982447D02*
X234415000Y-100575000D01*
X237794246Y-67931352D02*
X237880345Y-68017452D01*
X20442513Y-62260559D02*
X21303513Y-63121558D01*
X237880614Y-116118531D02*
X233560699Y-120438446D01*
X223143154Y-60326619D02*
X223143154Y-57311563D01*
X225542444Y-120438447D02*
X225492513Y-120388516D01*
X224749497Y-120388516D02*
X223143638Y-118782656D01*
X147660652Y-99881513D02*
X149820628Y-99881513D01*
X226140000Y-100982447D02*
X226760000Y-100982447D01*
X240800000Y-111630000D02*
X238680000Y-109510000D01*
X224272447Y-100982447D02*
X222520000Y-99230000D01*
X244102441Y-81482441D02*
X242599369Y-79979369D01*
X224798976Y-61982440D02*
X223143154Y-60326619D01*
X233560699Y-120438446D02*
X225542444Y-120438447D01*
X237794246Y-72006401D02*
X242599370Y-76811525D01*
X225472444Y-81482441D02*
X225422513Y-81432510D01*
X257336130Y-57662557D02*
X253016246Y-61982441D01*
X242599154Y-60326619D02*
X242599154Y-57311563D01*
X222520000Y-97710000D02*
X223143639Y-97086361D01*
X233560246Y-61982441D02*
X224798976Y-61982440D01*
X264396670Y-119337495D02*
X264396653Y-119337514D01*
X238680000Y-109510000D02*
X238680000Y-107772847D01*
X237880345Y-77162581D02*
X233560485Y-81482441D01*
X257336131Y-48517489D02*
X257336130Y-57662557D01*
X128204218Y-60881489D02*
X128204200Y-60881507D01*
X225352445Y-100982447D02*
X226140000Y-100982447D01*
X31950000Y-63060000D02*
X34396513Y-60613487D01*
X257336345Y-68017451D02*
X257336345Y-77162582D01*
X257336345Y-77162582D02*
X253016485Y-81482441D01*
X69836200Y-60881507D02*
X71996177Y-60881506D01*
X233560485Y-81482441D02*
X225472444Y-81482441D01*
X31888442Y-63121558D02*
X31950000Y-63060000D01*
X71996177Y-60881506D02*
X71996196Y-60881489D01*
X253016246Y-61982441D02*
X244254976Y-61982441D01*
X226760000Y-100982447D02*
X234007553Y-100982447D01*
X150058505Y-99881495D02*
X149820646Y-99881495D01*
X188732194Y-60881489D02*
X186572218Y-60881489D01*
X225422513Y-81432510D02*
X224749284Y-81432510D01*
X257250030Y-48431390D02*
X257336131Y-48517489D01*
X152640000Y-97300000D02*
X150058505Y-99881495D01*
X226140000Y-100982447D02*
X224272447Y-100982447D01*
X242305862Y-43919558D02*
X252738198Y-43919558D01*
X224749284Y-81432510D02*
X223143369Y-79826594D01*
X237880614Y-106973460D02*
X237880614Y-116118531D01*
X222350000Y-94210000D02*
X223143639Y-95003639D01*
X237794246Y-67931352D02*
X237794246Y-72006401D01*
X237880614Y-97109386D02*
X237880614Y-87517460D01*
X223143639Y-95003639D02*
X223143639Y-96311533D01*
X237794247Y-67931352D02*
X237794247Y-66244247D01*
X222520000Y-99230000D02*
X222520000Y-97710000D01*
X34396513Y-60613487D02*
X34396513Y-52428377D01*
X238680000Y-107772847D02*
X237794514Y-106887361D01*
X186572218Y-60881489D02*
X186572201Y-60881507D01*
X34396513Y-52428377D02*
X38043800Y-48781089D01*
X226760000Y-100982447D02*
X224272447Y-100982447D01*
X130364195Y-60881488D02*
X128204218Y-60881489D01*
X237794514Y-106887361D02*
X237794514Y-105894514D01*
X237794514Y-106887360D02*
X237880614Y-106973460D01*
X223143638Y-118782656D02*
X223143639Y-115767534D01*
X252738198Y-43919558D02*
X257250030Y-48431390D01*
X237794247Y-66244247D02*
X237020000Y-65470000D01*
X237880614Y-87517460D02*
X237794515Y-87431360D01*
X237880345Y-68017452D02*
X237880345Y-77162581D01*
X253016485Y-81482441D02*
X244102441Y-81482441D01*
X21303513Y-63121558D02*
X31888442Y-63121558D01*
X244254976Y-61982441D02*
X242599154Y-60326619D01*
X237794514Y-105894514D02*
X235440000Y-103540000D01*
X237794514Y-87431360D02*
X237794514Y-85716470D01*
X266556646Y-119337495D02*
X264396670Y-119337495D01*
X234415000Y-100575000D02*
X237880614Y-97109386D01*
X242599369Y-79979369D02*
X242599369Y-76811525D01*
X237880131Y-57662557D02*
X233560246Y-61982441D01*
X237880130Y-48517490D02*
X237880131Y-57662557D01*
X225492513Y-120388516D02*
X224749497Y-120388516D01*
%TO.N,SDA*%
X37972513Y-69220558D02*
X37972513Y-67932376D01*
X22957607Y-70554895D02*
X20263800Y-67861089D01*
X37972513Y-67932376D02*
X38043801Y-67861089D01*
X38043801Y-67861089D02*
X35349995Y-70554895D01*
X35349995Y-70554895D02*
X22957607Y-70554895D01*
%TO.N,SCL*%
X39272514Y-52080558D02*
X39272513Y-43264848D01*
X39278626Y-66104446D02*
X39278626Y-67496671D01*
X35430945Y-54442126D02*
X37189282Y-52683788D01*
X36802513Y-66063403D02*
X35571909Y-64832798D01*
X40583800Y-67861089D02*
X41028670Y-67861089D01*
X35183895Y-70153895D02*
X25096607Y-70153895D01*
X36802513Y-68535277D02*
X35183895Y-70153895D01*
X32472445Y-45462445D02*
X31693800Y-46241089D01*
X36802514Y-67952232D02*
X36802513Y-67460000D01*
X25096607Y-70153895D02*
X22803800Y-67861089D01*
X35571909Y-64832798D02*
X35430945Y-64691835D01*
X36802513Y-67210558D02*
X36802513Y-66063403D01*
X39278626Y-67496671D02*
X39643045Y-67861090D01*
X39272513Y-43264848D02*
X38531456Y-42523789D01*
X38531456Y-42523789D02*
X35966211Y-42523789D01*
X35966211Y-42523789D02*
X33027555Y-45462445D01*
X39643045Y-67861090D02*
X40583800Y-67861089D01*
X36802513Y-67460000D02*
X36802513Y-67210558D01*
X35430945Y-64691835D02*
X35430945Y-54442126D01*
X33027555Y-45462445D02*
X32472445Y-45462445D01*
X36802513Y-67460000D02*
X36802513Y-68535277D01*
X38669282Y-52683789D02*
X39272514Y-52080558D01*
X37189282Y-52683788D02*
X38669282Y-52683789D01*
%TO.N,P7*%
X276792615Y-106973460D02*
X276792614Y-116118531D01*
X206028671Y-119337495D02*
X206028654Y-119337513D01*
X253016698Y-120438447D02*
X244191585Y-120438447D01*
X257250514Y-81616382D02*
X262055371Y-76811525D01*
X89292670Y-119337495D02*
X89292652Y-119337513D01*
X91452646Y-119337496D02*
X89292670Y-119337495D01*
X25343800Y-67861089D02*
X26103269Y-68620558D01*
X35503799Y-67861089D02*
X31986301Y-67861089D01*
X276706245Y-67931352D02*
X276792131Y-67845466D01*
X264312444Y-100982447D02*
X264262513Y-100932516D01*
X257336614Y-87517460D02*
X257336614Y-89700000D01*
X264432444Y-120438447D02*
X264382513Y-120388516D01*
X276792131Y-48517490D02*
X276706031Y-48431390D01*
X71996415Y-80381507D02*
X71996433Y-80381489D01*
X257250514Y-87431361D02*
X257336614Y-87517460D01*
X242599638Y-118590000D02*
X242599638Y-118846500D01*
X242599638Y-118846500D02*
X243690651Y-119937513D01*
X257759000Y-90122386D02*
X257336614Y-89700000D01*
X69836439Y-80381507D02*
X71996415Y-80381507D01*
X257250514Y-110962408D02*
X262055639Y-115767533D01*
X263661284Y-81432510D02*
X262055369Y-79826595D01*
X257336614Y-106973460D02*
X257336614Y-116118530D01*
X276792614Y-106801259D02*
X276706514Y-106887360D01*
X276792615Y-87517460D02*
X276792614Y-96662531D01*
X242599638Y-96311533D02*
X242599638Y-99868671D01*
X276792614Y-87517460D02*
X276792614Y-106801259D01*
X257250515Y-106887361D02*
X257336614Y-106973460D01*
X257759000Y-96240146D02*
X257759000Y-90122386D01*
X31336302Y-67211089D02*
X31336300Y-67856771D01*
X276792614Y-116118531D02*
X272472698Y-120438447D01*
X257250514Y-106887359D02*
X257250514Y-110962408D01*
X263710976Y-61982441D02*
X272472247Y-61982440D01*
X276706514Y-87431360D02*
X276792615Y-87517460D01*
X272472485Y-81482441D02*
X264732444Y-81482441D01*
X130364415Y-80381507D02*
X130364433Y-80381489D01*
X26103269Y-68620558D02*
X30572513Y-68620558D01*
X262055369Y-79826595D02*
X262055369Y-76811525D01*
X149820646Y-119337495D02*
X147660670Y-119337495D01*
X244205497Y-120388516D02*
X242599638Y-118782657D01*
X262055155Y-60326618D02*
X263710976Y-61982441D01*
X276792130Y-48517490D02*
X276706031Y-48431390D01*
X263661498Y-100932516D02*
X262055639Y-99326657D01*
X242599638Y-118782657D02*
X242599638Y-118590000D01*
X272472247Y-61982440D02*
X276792130Y-57662557D01*
X242599638Y-99868671D02*
X243713414Y-100982447D01*
X262055639Y-99326657D02*
X262055638Y-96311533D01*
X262055154Y-57311563D02*
X262055155Y-60326618D01*
X264732444Y-81482441D02*
X264682514Y-81432510D01*
X263661499Y-120388516D02*
X262055638Y-118782657D01*
X147660670Y-119337495D02*
X147660653Y-119337513D01*
X208188646Y-119337495D02*
X206028671Y-119337495D01*
X244191585Y-120438447D02*
X243690651Y-119937513D01*
X253016698Y-100982447D02*
X257759000Y-96240146D01*
X257250514Y-81616382D02*
X257250514Y-81600514D01*
X276792345Y-87345529D02*
X276706514Y-87431360D01*
X276792345Y-68017452D02*
X276792345Y-77162582D01*
X243713414Y-100982447D02*
X253016698Y-100982447D01*
X264262513Y-100932516D02*
X263661498Y-100932516D01*
X128204440Y-80381507D02*
X130364415Y-80381507D01*
X188732415Y-80381507D02*
X188732433Y-80381489D01*
X264382513Y-120388516D02*
X263661499Y-120388516D01*
X264682514Y-81432510D02*
X263661284Y-81432510D01*
X276706245Y-67931352D02*
X276792345Y-68017452D01*
X262055638Y-118782657D02*
X262055638Y-115767533D01*
X276706514Y-106887360D02*
X276792615Y-106973460D01*
X31986301Y-67861089D02*
X31336302Y-67211089D01*
X186572439Y-80381506D02*
X188732415Y-80381507D01*
X257336614Y-116118530D02*
X253016698Y-120438447D01*
X31336300Y-67856771D02*
X30572513Y-68620558D01*
X272472699Y-100982447D02*
X264312444Y-100982447D01*
X276792131Y-67845466D02*
X276792131Y-48517490D01*
X272472698Y-120438447D02*
X264432444Y-120438447D01*
X276792345Y-77162582D02*
X272472485Y-81482441D01*
X276792614Y-96662531D02*
X272472699Y-100982447D01*
X276706514Y-87431360D02*
X276792614Y-87517460D01*
X257250514Y-87431361D02*
X257250514Y-81616382D01*
X276792130Y-57662557D02*
X276792130Y-48517490D01*
X276792345Y-68017452D02*
X276792345Y-87345529D01*
X242599638Y-118590000D02*
X242599638Y-115767534D01*
%TO.N,LED*%
X42417930Y-67162089D02*
X41639801Y-66383959D01*
X43575703Y-42689558D02*
X42771513Y-43493748D01*
X39952513Y-64539946D02*
X39952513Y-60849802D01*
X39952513Y-60849802D02*
X38043800Y-58941089D01*
X44422263Y-52845068D02*
X44930029Y-53352833D01*
X43599799Y-61765881D02*
X43599799Y-65065000D01*
X51682030Y-48031295D02*
X52375409Y-47337916D01*
X43599799Y-65065000D02*
X44174799Y-65640000D01*
X42771513Y-47691513D02*
X44422263Y-49342263D01*
X42771513Y-43493748D02*
X42771514Y-46800000D01*
X44155880Y-66835880D02*
X43829670Y-67162090D01*
X41639801Y-66383959D02*
X41639800Y-66227234D01*
X41639800Y-66227234D02*
X39952513Y-64539946D01*
X51682029Y-48679577D02*
X51682030Y-48031295D01*
X43829670Y-67162090D02*
X42417930Y-67162089D01*
X44930029Y-53352833D02*
X44930029Y-60435651D01*
X48087333Y-42689558D02*
X43575703Y-42689558D01*
X44174799Y-66816959D02*
X44155880Y-66835880D01*
X42771514Y-46800000D02*
X42771513Y-47691513D01*
X44422263Y-49342263D02*
X44422263Y-52845068D01*
X49929344Y-44531569D02*
X48087333Y-42689558D01*
X44930029Y-60435651D02*
X43599799Y-61765881D01*
X44174799Y-65640000D02*
X44174799Y-66816959D01*
%TO.N,H00*%
X58000178Y-60881459D02*
X58000196Y-60881441D01*
X61275118Y-54771424D02*
X61275118Y-57606520D01*
X52466061Y-44455511D02*
X50690013Y-46231560D01*
X61275118Y-57606520D02*
X58000196Y-60881441D01*
X55840202Y-60881459D02*
X58000178Y-60881459D01*
X57867171Y-44455512D02*
X52466061Y-44455511D01*
X61066029Y-54562336D02*
X61066029Y-47654370D01*
X61275118Y-54771424D02*
X61066029Y-54562336D01*
X61066029Y-47654370D02*
X57867171Y-44455512D01*
%TO.N,H10*%
X53157565Y-67401565D02*
X53530000Y-67774000D01*
X50821522Y-65731522D02*
X52491565Y-67401565D01*
X58000418Y-80381459D02*
X58000435Y-80381441D01*
X61275333Y-77106543D02*
X58000435Y-80381441D01*
X61275333Y-74271387D02*
X61275333Y-77106543D01*
X50690228Y-65731522D02*
X50821522Y-65731522D01*
X57959603Y-64754397D02*
X60014397Y-64754397D01*
X55840441Y-80381460D02*
X58000418Y-80381459D01*
X60014397Y-64754397D02*
X61189233Y-65929233D01*
X61189233Y-74185287D02*
X61275333Y-74271387D01*
X54940000Y-67774000D02*
X57959603Y-64754397D01*
X52491565Y-67401565D02*
X53157565Y-67401565D01*
X61189233Y-65929233D02*
X61189233Y-74185287D01*
X53530000Y-67774000D02*
X54940000Y-67774000D01*
%TO.N,H20*%
X61275602Y-96606493D02*
X58000648Y-99881447D01*
X61275602Y-93771394D02*
X61275602Y-96606493D01*
X52466545Y-83455482D02*
X50690497Y-85231530D01*
X57867655Y-83455482D02*
X52466545Y-83455482D01*
X58000630Y-99881465D02*
X58000648Y-99881447D01*
X61066513Y-93562305D02*
X61066513Y-86654340D01*
X55840655Y-99881466D02*
X58000630Y-99881465D01*
X61066513Y-86654340D02*
X57867655Y-83455482D01*
X61275602Y-93771394D02*
X61066513Y-93562305D01*
%TO.N,H30*%
X58000648Y-119337447D02*
X55840673Y-119337447D01*
X61275602Y-116062492D02*
X58000648Y-119337447D01*
X61066514Y-113018305D02*
X61066513Y-106110340D01*
X61066513Y-106110340D02*
X57867656Y-102911482D01*
X61275603Y-113227394D02*
X61066514Y-113018305D01*
X55840673Y-119337447D02*
X55840655Y-119337465D01*
X57867656Y-102911482D02*
X52466545Y-102911483D01*
X52466545Y-102911483D02*
X50690497Y-104687531D01*
X61275603Y-113227394D02*
X61275602Y-116062492D01*
%TO.N,H01*%
X75296202Y-60881459D02*
X77456179Y-60881459D01*
X80731119Y-54771424D02*
X80645018Y-54685324D01*
X80731118Y-57606518D02*
X77456198Y-60881441D01*
X77456179Y-60881459D02*
X77456198Y-60881441D01*
X80731119Y-54771424D02*
X80731118Y-57606518D01*
X77323173Y-44455512D02*
X71922061Y-44455512D01*
X80645018Y-47777359D02*
X77323173Y-44455512D01*
X71922061Y-44455512D02*
X70146013Y-46231560D01*
X80645018Y-54685324D02*
X80645018Y-47777359D01*
%TO.N,H11*%
X75296441Y-80381459D02*
X77456417Y-80381459D01*
X80562514Y-74102566D02*
X80562513Y-64222981D01*
X80731333Y-77106543D02*
X80731334Y-74271386D01*
X77456417Y-80381459D02*
X77456435Y-80381441D01*
X77456435Y-80381441D02*
X80731333Y-77106543D01*
X72692309Y-63185441D02*
X70146228Y-65731522D01*
X80731334Y-74271386D02*
X80562514Y-74102566D01*
X80562513Y-64222981D02*
X79524973Y-63185441D01*
X79524973Y-63185441D02*
X72692309Y-63185441D01*
%TO.N,H21*%
X71922545Y-83455482D02*
X70146497Y-85231530D01*
X77323655Y-83455482D02*
X71922545Y-83455482D01*
X77456630Y-99881464D02*
X77456649Y-99881447D01*
X80731602Y-93771394D02*
X80731602Y-96606493D01*
X80731602Y-93771394D02*
X80522513Y-93562305D01*
X80731602Y-96606493D02*
X77456649Y-99881447D01*
X75296654Y-99881465D02*
X77456630Y-99881464D01*
X80522513Y-86654340D02*
X77323655Y-83455482D01*
X80522513Y-93562305D02*
X80522513Y-86654340D01*
%TO.N,H31*%
X80645503Y-106233329D02*
X77323655Y-102911482D01*
X80731602Y-113227394D02*
X80731602Y-116062493D01*
X75296672Y-119337447D02*
X75296654Y-119337465D01*
X80645503Y-113141293D02*
X80645503Y-106233329D01*
X77456648Y-119337447D02*
X75296672Y-119337447D01*
X80731602Y-113227394D02*
X80645503Y-113141293D01*
X80731602Y-116062493D02*
X77456648Y-119337447D01*
X71922545Y-102911482D02*
X70146497Y-104687530D01*
X77323655Y-102911482D02*
X71922545Y-102911482D01*
%TO.N,H02*%
X100187118Y-54771424D02*
X99978029Y-54562335D01*
X96912178Y-60881459D02*
X96912196Y-60881441D01*
X99978029Y-54562335D02*
X99978030Y-47654370D01*
X100187118Y-54771424D02*
X100187118Y-57606518D01*
X96779171Y-44455513D02*
X91378061Y-44455512D01*
X91378061Y-44455512D02*
X89602013Y-46231560D01*
X94752203Y-60881459D02*
X96912178Y-60881459D01*
X99978030Y-47654370D02*
X96779171Y-44455513D01*
X100187118Y-57606518D02*
X96912196Y-60881441D01*
%TO.N,H12*%
X99978244Y-66778244D02*
X96950000Y-63750000D01*
X96912435Y-80381441D02*
X100187335Y-77106543D01*
X94752441Y-80381459D02*
X96912417Y-80381459D01*
X99978244Y-74062296D02*
X99978244Y-66778244D01*
X96950000Y-63750000D02*
X91583750Y-63750000D01*
X100187333Y-74271386D02*
X99978244Y-74062296D01*
X91583750Y-63750000D02*
X89602228Y-65731522D01*
X96912417Y-80381459D02*
X96912435Y-80381441D01*
X100187335Y-77106543D02*
X100187333Y-74271386D01*
%TO.N,H22*%
X99978513Y-86654340D02*
X96779655Y-83455482D01*
X100187603Y-96606493D02*
X96912648Y-99881448D01*
X94752654Y-99881465D02*
X96912630Y-99881465D01*
X96779655Y-83455482D02*
X91378546Y-83455482D01*
X99978513Y-93562305D02*
X99978513Y-86654340D01*
X96912630Y-99881465D02*
X96912648Y-99881448D01*
X100187603Y-93771394D02*
X100187603Y-96606493D01*
X100187603Y-93771394D02*
X99978513Y-93562305D01*
X91378546Y-83455482D02*
X89602497Y-85231530D01*
%TO.N,H32*%
X96912648Y-119337447D02*
X100187602Y-116062493D01*
X99101482Y-102911482D02*
X91378545Y-102911481D01*
X100187602Y-116062493D02*
X100187603Y-113227394D01*
X99978513Y-107080000D02*
X100101502Y-106957011D01*
X100101502Y-103911502D02*
X99101482Y-102911482D01*
X94752672Y-119337447D02*
X94752654Y-119337465D01*
X100187603Y-113227394D02*
X99978513Y-113018305D01*
X91378545Y-102911481D02*
X89602497Y-104687530D01*
X96912648Y-119337447D02*
X94752672Y-119337447D01*
X100101502Y-106957011D02*
X100101502Y-103911502D01*
X99978513Y-113018305D02*
X99978513Y-107080000D01*
%TO.N,H03*%
X119557018Y-54685324D02*
X119557018Y-47777359D01*
X119643118Y-57606519D02*
X116368196Y-60881441D01*
X119557018Y-47777359D02*
X116235171Y-44455512D01*
X116235171Y-44455512D02*
X110834062Y-44455512D01*
X119643118Y-54771423D02*
X119643118Y-57606519D01*
X119643118Y-54771423D02*
X119557018Y-54685324D01*
X116368178Y-60881459D02*
X116368196Y-60881441D01*
X114208202Y-60881459D02*
X116368178Y-60881459D01*
X110834062Y-44455512D02*
X109058013Y-46231560D01*
%TO.N,H13*%
X116368419Y-80381459D02*
X116368436Y-80381441D01*
X114208441Y-80381459D02*
X116368419Y-80381459D01*
X119643333Y-74271386D02*
X119643333Y-77106543D01*
X116235386Y-63955474D02*
X110834276Y-63955474D01*
X119557234Y-67277321D02*
X116235386Y-63955474D01*
X119557233Y-74185286D02*
X119557234Y-67277321D01*
X110834276Y-63955474D02*
X109058229Y-65731522D01*
X119643333Y-74271386D02*
X119557233Y-74185286D01*
X119643333Y-77106543D02*
X116368436Y-80381441D01*
%TO.N,H23*%
X119557502Y-86377502D02*
X115930000Y-82750000D01*
X114208654Y-99881465D02*
X116368630Y-99881465D01*
X116368630Y-99881465D02*
X116368648Y-99881446D01*
X115930000Y-82750000D02*
X111540028Y-82750000D01*
X119512513Y-87950000D02*
X119557502Y-87905011D01*
X111540028Y-82750000D02*
X109058498Y-85231530D01*
X116368648Y-99881446D02*
X119643602Y-96606494D01*
X119643602Y-96606494D02*
X119643602Y-93771394D01*
X119643602Y-93771394D02*
X119512513Y-93640306D01*
X119512513Y-93640306D02*
X119512513Y-87950000D01*
X119557502Y-87905011D02*
X119557502Y-86377502D01*
%TO.N,H33*%
X119643602Y-113227395D02*
X119643602Y-116062493D01*
X119643602Y-113227395D02*
X119434515Y-113018305D01*
X114208674Y-119337447D02*
X114208655Y-119337465D01*
X119434515Y-113018305D02*
X119434513Y-106110340D01*
X119434513Y-106110340D02*
X116235655Y-102911483D01*
X116235655Y-102911483D02*
X110834545Y-102911482D01*
X119643602Y-116062493D02*
X116368648Y-119337447D01*
X110834545Y-102911482D02*
X109058497Y-104687530D01*
X116368648Y-119337447D02*
X114208674Y-119337447D01*
%TO.N,H04*%
X138890029Y-54562335D02*
X138890029Y-47654370D01*
X138890029Y-47654370D02*
X135691170Y-44455512D01*
X130290061Y-44455512D02*
X128514013Y-46231560D01*
X139099118Y-54771424D02*
X138890029Y-54562335D01*
X139099118Y-57606519D02*
X135824197Y-60881441D01*
X133664202Y-60881459D02*
X135824178Y-60881460D01*
X135824178Y-60881460D02*
X135824197Y-60881441D01*
X139099118Y-54771424D02*
X139099118Y-57606519D01*
X135691170Y-44455512D02*
X130290061Y-44455512D01*
%TO.N,H14*%
X135824417Y-80381460D02*
X135824435Y-80381441D01*
X139099333Y-74271386D02*
X139013233Y-74185286D01*
X135691386Y-63955473D02*
X130290277Y-63955474D01*
X139099333Y-74271386D02*
X139099333Y-77106543D01*
X139099333Y-77106543D02*
X135824435Y-80381441D01*
X139013233Y-74185286D02*
X139013233Y-67277321D01*
X130290277Y-63955474D02*
X128514228Y-65731522D01*
X139013233Y-67277321D02*
X135691386Y-63955473D01*
X133664441Y-80381459D02*
X135824417Y-80381460D01*
%TO.N,H24*%
X138890513Y-93562305D02*
X138890513Y-86654340D01*
X139099602Y-93771394D02*
X138890513Y-93562305D01*
X135691655Y-83455482D02*
X130290546Y-83455482D01*
X133664654Y-99881465D02*
X135824630Y-99881465D01*
X139099602Y-93771394D02*
X139099602Y-96606493D01*
X130290546Y-83455482D02*
X128514497Y-85231531D01*
X135824630Y-99881465D02*
X135824648Y-99881446D01*
X138890513Y-86654340D02*
X135691655Y-83455482D01*
X139099602Y-96606493D02*
X135824648Y-99881446D01*
%TO.N,H34*%
X130290545Y-102911482D02*
X128514497Y-104687530D01*
X139099602Y-116062493D02*
X135824648Y-119337447D01*
X139013502Y-106233328D02*
X135691655Y-102911483D01*
X135691655Y-102911483D02*
X130290545Y-102911482D01*
X139013502Y-113141294D02*
X139013502Y-106233328D01*
X135824631Y-119337465D02*
X135824648Y-119337447D01*
X139099602Y-113227394D02*
X139099602Y-116062493D01*
X133664654Y-119337465D02*
X135824631Y-119337465D01*
X139099602Y-113227394D02*
X139013502Y-113141294D01*
%TO.N,H05*%
X158555118Y-57606519D02*
X155280196Y-60881441D01*
X158346029Y-54562335D02*
X158346030Y-47654369D01*
X155280178Y-60881460D02*
X155280196Y-60881441D01*
X155147171Y-44455512D02*
X149746061Y-44455512D01*
X153120204Y-60881459D02*
X155280178Y-60881460D01*
X149746061Y-44455512D02*
X147970014Y-46231560D01*
X158346030Y-47654369D02*
X155147171Y-44455512D01*
X158555118Y-54771424D02*
X158555118Y-57606519D01*
X158555118Y-54771424D02*
X158346029Y-54562335D01*
%TO.N,H15*%
X158469233Y-67277321D02*
X155147386Y-63955474D01*
X158555333Y-74271386D02*
X158555334Y-77106542D01*
X149746276Y-63955474D02*
X147970228Y-65731522D01*
X153120441Y-80381459D02*
X155280417Y-80381458D01*
X155147386Y-63955474D02*
X149746276Y-63955474D01*
X158469234Y-74185286D02*
X158469233Y-67277321D01*
X155280417Y-80381458D02*
X155280435Y-80381441D01*
X158555333Y-74271386D02*
X158469234Y-74185286D01*
X158555334Y-77106542D02*
X155280435Y-80381441D01*
%TO.N,H25*%
X153120655Y-99881465D02*
X155280630Y-99881465D01*
X149746545Y-83455482D02*
X147970497Y-85231530D01*
X158555603Y-93771394D02*
X158555602Y-96606492D01*
X158346513Y-86654340D02*
X155147656Y-83455482D01*
X155147656Y-83455482D02*
X149746545Y-83455482D01*
X158555603Y-93771394D02*
X158346513Y-93562305D01*
X158555602Y-96606492D02*
X155280648Y-99881447D01*
X158346513Y-93562305D02*
X158346513Y-86654340D01*
X155280630Y-99881465D02*
X155280648Y-99881447D01*
%TO.N,H35*%
X158555603Y-116062493D02*
X155280648Y-119337447D01*
X155280630Y-119337466D02*
X155280648Y-119337447D01*
X158555602Y-113227393D02*
X158555603Y-116062493D01*
X156753633Y-102911482D02*
X149746545Y-102911482D01*
X158346513Y-113018305D02*
X158346513Y-104504362D01*
X158555602Y-113227393D02*
X158346513Y-113018305D01*
X158346513Y-104504362D02*
X156753633Y-102911482D01*
X153120654Y-119337465D02*
X155280630Y-119337466D01*
X149746545Y-102911482D02*
X147970497Y-104687530D01*
%TO.N,H06*%
X178011118Y-57606519D02*
X174736197Y-60881441D01*
X178011118Y-54771424D02*
X178011118Y-57606519D01*
X177925018Y-47777359D02*
X174603171Y-44455512D01*
X172576202Y-60881459D02*
X174736178Y-60881459D01*
X177925018Y-54685324D02*
X177925018Y-47777359D01*
X174736178Y-60881459D02*
X174736197Y-60881441D01*
X178011118Y-54771424D02*
X177925018Y-54685324D01*
X169202062Y-44455512D02*
X167426013Y-46231560D01*
X174603171Y-44455512D02*
X169202062Y-44455512D01*
%TO.N,H16*%
X177802244Y-67154332D02*
X174603386Y-63955474D01*
X178011333Y-74271386D02*
X178011333Y-77106543D01*
X172576441Y-80381459D02*
X174736418Y-80381458D01*
X178011333Y-74271386D02*
X177802244Y-74062297D01*
X178011333Y-77106543D02*
X174736437Y-80381441D01*
X174736418Y-80381458D02*
X174736437Y-80381441D01*
X177802244Y-74062297D02*
X177802244Y-67154332D01*
X169202277Y-63955474D02*
X167426228Y-65731522D01*
X174603386Y-63955474D02*
X169202277Y-63955474D01*
%TO.N,H26*%
X178011602Y-93771394D02*
X177802513Y-93562306D01*
X177802513Y-93562306D02*
X177802514Y-86654340D01*
X178011602Y-96606493D02*
X174736648Y-99881447D01*
X177802514Y-86654340D02*
X174603655Y-83455482D01*
X174603655Y-83455482D02*
X169202545Y-83455482D01*
X178011602Y-93771394D02*
X178011602Y-96606493D01*
X174736630Y-99881465D02*
X174736648Y-99881447D01*
X172576654Y-99881466D02*
X174736630Y-99881465D01*
X169202545Y-83455482D02*
X167426497Y-85231529D01*
%TO.N,H36*%
X178011602Y-113227394D02*
X178011602Y-116062493D01*
X170523077Y-102908405D02*
X176228463Y-102908405D01*
X170520000Y-102911482D02*
X170523077Y-102908405D01*
X176228463Y-102908405D02*
X177802514Y-104482457D01*
X172576671Y-119337447D02*
X172576654Y-119337465D01*
X177802514Y-104482457D02*
X177802514Y-113018304D01*
X178011602Y-116062493D02*
X174736648Y-119337447D01*
X169202545Y-102911482D02*
X170520000Y-102911482D01*
X167426497Y-104687530D02*
X169202545Y-102911482D01*
X174736648Y-119337447D02*
X172576671Y-119337447D01*
X177802514Y-113018304D02*
X178011602Y-113227394D01*
%TO.N,H07*%
X192032202Y-60881459D02*
X194192178Y-60881459D01*
X194192178Y-60881459D02*
X194192196Y-60881442D01*
X197467118Y-54771424D02*
X197467119Y-57606519D01*
X194059171Y-44455512D02*
X188658061Y-44455512D01*
X197467119Y-57606519D02*
X194192196Y-60881442D01*
X188658061Y-44455512D02*
X186882014Y-46231560D01*
X197381019Y-54685324D02*
X197381018Y-47777359D01*
X197381018Y-47777359D02*
X194059171Y-44455512D01*
X197467118Y-54771424D02*
X197381019Y-54685324D01*
%TO.N,H17*%
X197381233Y-67277321D02*
X194059387Y-63955474D01*
X197467333Y-77106543D02*
X194192435Y-80381441D01*
X192032442Y-80381459D02*
X194192417Y-80381459D01*
X197381233Y-74185286D02*
X197381233Y-67277321D01*
X194059387Y-63955474D02*
X188658276Y-63955475D01*
X197467334Y-74271386D02*
X197381233Y-74185286D01*
X194192417Y-80381459D02*
X194192435Y-80381441D01*
X197467334Y-74271386D02*
X197467333Y-77106543D01*
X188658276Y-63955475D02*
X186882228Y-65731522D01*
%TO.N,H27*%
X197467603Y-93771394D02*
X197258513Y-93562306D01*
X197258513Y-93562306D02*
X197258513Y-86654340D01*
X195000090Y-99881447D02*
X197467603Y-97413934D01*
X194059655Y-83455482D02*
X188658545Y-83455482D01*
X197467603Y-97413934D02*
X197467603Y-93771395D01*
X194192649Y-99881447D02*
X195000090Y-99881447D01*
X197258513Y-86654340D02*
X194059655Y-83455482D01*
X188658545Y-83455482D02*
X186882497Y-85231530D01*
X194192630Y-99881465D02*
X194192649Y-99881447D01*
X197467603Y-93771394D02*
X197467602Y-96606493D01*
X192032654Y-99881466D02*
X194192630Y-99881465D01*
%TO.N,H37*%
X192032654Y-119337465D02*
X194192631Y-119337464D01*
X194192631Y-119337464D02*
X194192650Y-119337447D01*
X194059655Y-102911482D02*
X188658545Y-102911482D01*
X197258513Y-106110340D02*
X194059655Y-102911482D01*
X197467602Y-116062493D02*
X194192650Y-119337447D01*
X188658545Y-102911482D02*
X186882497Y-104687530D01*
X197258513Y-113018305D02*
X197258513Y-106110340D01*
X197467602Y-113227394D02*
X197258513Y-113018305D01*
X197467602Y-113227394D02*
X197467602Y-116062493D01*
%TO.N,H08*%
X216923118Y-57606519D02*
X213648196Y-60881442D01*
X216837019Y-47777359D02*
X213515171Y-44455512D01*
X208114062Y-44455512D02*
X206338013Y-46231561D01*
X216837018Y-54685324D02*
X216837019Y-47777359D01*
X211488202Y-60881459D02*
X213648178Y-60881459D01*
X213515171Y-44455512D02*
X208114062Y-44455512D01*
X216923118Y-54771424D02*
X216837018Y-54685324D01*
X213648178Y-60881459D02*
X213648196Y-60881442D01*
X216923118Y-54771424D02*
X216923118Y-57606519D01*
%TO.N,H18*%
X216923333Y-74271386D02*
X216714244Y-74062297D01*
X216714244Y-74062297D02*
X216714245Y-67154332D01*
X216923333Y-74271386D02*
X216923333Y-77106543D01*
X216714245Y-67154332D02*
X213515386Y-63955474D01*
X216923333Y-77106543D02*
X213648435Y-80381440D01*
X213648417Y-80381459D02*
X213648435Y-80381440D01*
X213515386Y-63955474D02*
X208114276Y-63955475D01*
X208114276Y-63955475D02*
X206338229Y-65731522D01*
X211488441Y-80381459D02*
X213648417Y-80381459D01*
%TO.N,H28*%
X216714513Y-93562305D02*
X216714513Y-86654340D01*
X213515656Y-83455482D02*
X208114545Y-83455482D01*
X213648630Y-99881465D02*
X213648648Y-99881447D01*
X216923601Y-93771394D02*
X216714513Y-93562305D01*
X216923602Y-96606493D02*
X213648648Y-99881447D01*
X216923601Y-93771394D02*
X216923602Y-96606493D01*
X208114545Y-83455482D02*
X206338497Y-85231530D01*
X211488654Y-99881464D02*
X213648630Y-99881465D01*
X216714513Y-86654340D02*
X213515656Y-83455482D01*
%TO.N,H38*%
X216923604Y-116062493D02*
X213648648Y-119337448D01*
X208114545Y-102911482D02*
X206338497Y-104687530D01*
X213648630Y-119337465D02*
X213648648Y-119337448D01*
X216923602Y-113227394D02*
X216923604Y-116062493D01*
X216837502Y-113141294D02*
X216837502Y-106233329D01*
X216837502Y-106233329D02*
X213515657Y-102911482D01*
X216923602Y-113227394D02*
X216837502Y-113141294D01*
X211488655Y-119337465D02*
X213648630Y-119337465D01*
X213515657Y-102911482D02*
X208114545Y-102911482D01*
%TO.N,H09*%
X236379119Y-54771424D02*
X236170029Y-54562335D01*
X232971172Y-44455512D02*
X227570061Y-44455513D01*
X236379118Y-57606519D02*
X233104196Y-60881441D01*
X230944202Y-60881459D02*
X233104180Y-60881459D01*
X236170029Y-47654370D02*
X232971172Y-44455512D01*
X236379119Y-54771424D02*
X236379118Y-57606519D01*
X233104180Y-60881459D02*
X233104196Y-60881441D01*
X227570061Y-44455513D02*
X225794013Y-46231561D01*
X236170029Y-54562335D02*
X236170029Y-47654370D01*
%TO.N,H19*%
X230944441Y-80381459D02*
X233104417Y-80381459D01*
X225794228Y-65731522D02*
X227956750Y-63569000D01*
X236293233Y-66900000D02*
X236293233Y-74185286D01*
X233104417Y-80381459D02*
X233104435Y-80381441D01*
X236379333Y-74271386D02*
X236379333Y-77106543D01*
X236293233Y-74185286D02*
X236379333Y-74271386D01*
X227956750Y-63569000D02*
X232962233Y-63569000D01*
X232962233Y-63569000D02*
X236293233Y-66900000D01*
X236379333Y-77106543D02*
X233104435Y-80381441D01*
%TO.N,H29*%
X233104631Y-99881465D02*
X233104648Y-99881447D01*
X230944654Y-99881465D02*
X233104631Y-99881465D01*
X236379602Y-96606493D02*
X233104648Y-99881447D01*
X236379602Y-93771394D02*
X236282513Y-93674305D01*
X236282513Y-93674305D02*
X236282513Y-86766340D01*
X227570545Y-83455482D02*
X225794497Y-85231530D01*
X236282513Y-86766340D02*
X232971655Y-83455482D01*
X232971655Y-83455482D02*
X227570545Y-83455482D01*
X236379602Y-93771394D02*
X236379602Y-96606493D01*
%TO.N,H39*%
X227570545Y-102911482D02*
X225794498Y-104687530D01*
X236293504Y-113141294D02*
X236293503Y-106233329D01*
X236379602Y-113227394D02*
X236293504Y-113141294D01*
X236379602Y-113227394D02*
X236379602Y-116062493D01*
X232971655Y-102911482D02*
X227570545Y-102911482D01*
X236293503Y-106233329D02*
X232971655Y-102911482D01*
X236379602Y-116062493D02*
X233104649Y-119337447D01*
X230944672Y-119337447D02*
X230944654Y-119337465D01*
X233104649Y-119337447D02*
X230944672Y-119337447D01*
%TO.N,H010*%
X252560178Y-60881459D02*
X252560196Y-60881441D01*
X255835118Y-54771424D02*
X255749018Y-54685324D01*
X255835120Y-57606519D02*
X252560196Y-60881441D01*
X250400203Y-60881459D02*
X252560178Y-60881459D01*
X255749018Y-47777063D02*
X252427467Y-44455512D01*
X252427467Y-44455512D02*
X247026061Y-44455512D01*
X255835118Y-54771424D02*
X255835120Y-57606519D01*
X255749018Y-54685324D02*
X255749018Y-47777063D01*
X247026061Y-44455512D02*
X245250013Y-46231560D01*
%TO.N,H110*%
X250400442Y-80381459D02*
X252560417Y-80381459D01*
X255835334Y-77106543D02*
X252560435Y-80381441D01*
X255835333Y-74271387D02*
X255749233Y-74185286D01*
X255835333Y-74271387D02*
X255835334Y-77106543D01*
X252731000Y-63731000D02*
X247250750Y-63731000D01*
X255749233Y-66749233D02*
X252731000Y-63731000D01*
X255749233Y-74185286D02*
X255749233Y-66749233D01*
X247250750Y-63731000D02*
X245250228Y-65731522D01*
X252560417Y-80381459D02*
X252560435Y-80381441D01*
%TO.N,H210*%
X251700000Y-86610000D02*
X254090000Y-84220000D01*
X254090000Y-84220000D02*
X253070000Y-83200000D01*
X247282028Y-83200000D02*
X245250497Y-85231530D01*
X255835602Y-93771395D02*
X255835602Y-91375602D01*
X255835602Y-91375602D02*
X253767405Y-89307405D01*
X251640000Y-87973957D02*
X251640000Y-86610000D01*
X251640000Y-86610000D02*
X251700000Y-86610000D01*
X255835602Y-96606493D02*
X255835602Y-93771394D01*
X252560648Y-99881447D02*
X255835602Y-96606493D01*
X250400654Y-99881465D02*
X252560630Y-99881466D01*
X253070000Y-83200000D02*
X247282028Y-83200000D01*
X253767405Y-89307405D02*
X252973448Y-89307405D01*
X252973448Y-89307405D02*
X251640000Y-87973957D01*
X252560630Y-99881466D02*
X252560648Y-99881447D01*
X255835602Y-93771394D02*
X255749502Y-93685294D01*
%TO.N,H310*%
X252427655Y-102911482D02*
X247026546Y-102911482D01*
X255835602Y-113227394D02*
X255626513Y-113018305D01*
X250400654Y-119337465D02*
X252560630Y-119337465D01*
X255835603Y-116062493D02*
X252560647Y-119337447D01*
X252560630Y-119337465D02*
X252560647Y-119337447D01*
X255626513Y-113018305D02*
X255626513Y-106110340D01*
X255835602Y-113227394D02*
X255835603Y-116062493D01*
X255626513Y-106110340D02*
X252427655Y-102911482D01*
X247026546Y-102911482D02*
X245250497Y-104687531D01*
%TO.N,H011*%
X272016178Y-60881459D02*
X272016196Y-60881441D01*
X271883171Y-44455512D02*
X266482061Y-44455511D01*
X275205018Y-47777359D02*
X271883171Y-44455512D01*
X275205018Y-54685324D02*
X275205018Y-47777359D01*
X275291118Y-57606520D02*
X272016196Y-60881441D01*
X269856202Y-60881459D02*
X272016178Y-60881459D01*
X275291118Y-54771424D02*
X275291118Y-57606520D01*
X266482061Y-44455511D02*
X264706013Y-46231560D01*
X275291118Y-54771424D02*
X275205018Y-54685324D01*
%TO.N,H111*%
X275291333Y-77106543D02*
X272016435Y-80381441D01*
X269856441Y-80381460D02*
X272016418Y-80381459D01*
X275082245Y-67154332D02*
X271883386Y-63955474D01*
X275291333Y-74271387D02*
X275291333Y-77106543D01*
X266482276Y-63955474D02*
X264706229Y-65731521D01*
X275082244Y-74062298D02*
X275082245Y-67154332D01*
X272016418Y-80381459D02*
X272016435Y-80381441D01*
X275291333Y-74271387D02*
X275082244Y-74062298D01*
X271883386Y-63955474D02*
X266482276Y-63955474D01*
%TO.N,H211*%
X266482545Y-83455482D02*
X264706497Y-85231530D01*
X275082513Y-86654340D02*
X271883655Y-83455482D01*
X275291602Y-93771394D02*
X275082515Y-93562305D01*
X271883655Y-83455482D02*
X266482545Y-83455482D01*
X275291602Y-96606493D02*
X272016648Y-99881447D01*
X275082515Y-93562305D02*
X275082513Y-86654340D01*
X275291602Y-93771394D02*
X275291602Y-96606493D01*
X269856654Y-99881465D02*
X272016630Y-99881465D01*
X272016630Y-99881465D02*
X272016648Y-99881447D01*
%TO.N,H311*%
X275082513Y-106110340D02*
X271883655Y-102911482D01*
X275291601Y-116062493D02*
X272016648Y-119337447D01*
X269856673Y-119337447D02*
X269856655Y-119337465D01*
X275082514Y-113018305D02*
X275082513Y-106110340D01*
X272016648Y-119337447D02*
X269856673Y-119337447D01*
X275291602Y-113227394D02*
X275291601Y-116062493D01*
X271883655Y-102911482D02*
X266482545Y-102911483D01*
X266482545Y-102911483D02*
X264706497Y-104687530D01*
X275291602Y-113227394D02*
X275082514Y-113018305D01*
%TO.N,B+*%
X26727634Y-107835508D02*
X26727634Y-106835438D01*
X26722521Y-106830327D02*
X26722521Y-100770505D01*
X26722521Y-100770505D02*
X26722521Y-94510506D01*
X26727634Y-106835438D02*
X26722521Y-106830327D01*
%TO.N,B-*%
X34217625Y-107835560D02*
X34217627Y-100775670D01*
X34217627Y-100775670D02*
X34212513Y-100770558D01*
X34212513Y-100770558D02*
X34212513Y-94510559D01*
%TO.N,O+*%
X43222513Y-43680558D02*
X43222513Y-47502513D01*
X44050799Y-61952691D02*
X44050799Y-64878190D01*
X46882501Y-44230545D02*
X45792514Y-43140558D01*
X26292513Y-89670558D02*
X23717525Y-92245546D01*
X45381029Y-60622461D02*
X44050799Y-61952691D01*
X44231305Y-65058695D02*
X44880244Y-65707635D01*
X23717525Y-92245546D02*
X23717525Y-94510500D01*
X44873263Y-52658256D02*
X45381029Y-53166021D01*
X46882501Y-46225555D02*
X46882501Y-44230545D01*
X43762513Y-43140558D02*
X43222513Y-43680558D01*
X44873263Y-49153263D02*
X44873263Y-52658256D01*
X33952513Y-89670558D02*
X26292513Y-89670558D01*
X44880244Y-78742828D02*
X33952513Y-89670558D01*
X44050799Y-64878190D02*
X44231305Y-65058695D01*
X45381029Y-53166021D02*
X45381029Y-60622461D01*
X43222513Y-47502513D02*
X44873263Y-49153263D01*
X44880244Y-65707635D02*
X44880244Y-78742828D01*
X45792514Y-43140558D02*
X43762513Y-43140558D01*
X23717525Y-94510500D02*
X23717525Y-100770501D01*
%TO.N,CONN_A*%
X36781604Y-52141467D02*
X34797513Y-54125558D01*
X20680433Y-66144456D02*
X20263800Y-66561089D01*
X20680433Y-65465558D02*
X20680433Y-66144456D01*
X38043800Y-51321089D02*
X37223422Y-52141467D01*
X34797513Y-65854802D02*
X35503801Y-66561089D01*
X34797513Y-54125558D02*
X34797513Y-65854802D01*
X37223422Y-52141467D02*
X36781604Y-52141467D01*
%TO.N,CONN_B*%
X37382136Y-65390180D02*
X37382135Y-65899424D01*
X22803800Y-66561089D02*
X22803800Y-66414271D01*
X22803800Y-66414271D02*
X23752514Y-65465558D01*
X38043801Y-53861089D02*
X35942513Y-55962376D01*
X35942513Y-63950558D02*
X37382136Y-65390180D01*
X37382135Y-65899424D02*
X38043800Y-66561089D01*
X35942513Y-55962376D02*
X35942513Y-63950558D01*
%TO.N,CONN_C*%
X36455800Y-57989089D02*
X38043801Y-56401088D01*
X36455800Y-62433089D02*
X36455800Y-57989089D01*
X40583800Y-66561089D02*
X36455800Y-62433089D01*
X25343800Y-66561088D02*
X25496983Y-66561089D01*
X25496983Y-66561089D02*
X26592514Y-65465558D01*
%TO.N,L0*%
X71138029Y-48679577D02*
X71138028Y-48031295D01*
X64191042Y-48564564D02*
X64191042Y-56814745D01*
X55225765Y-62184235D02*
X52802530Y-59761000D01*
X46582030Y-51270000D02*
X46582030Y-50179577D01*
X71138028Y-48031295D02*
X71831408Y-47337916D01*
X55225765Y-62184235D02*
X54974040Y-61932510D01*
X55424970Y-62383440D02*
X55225765Y-62184235D01*
X52802530Y-59761000D02*
X48105841Y-59761000D01*
X48105841Y-59761000D02*
X46847130Y-58502289D01*
X58622347Y-62383440D02*
X55424970Y-62383440D01*
X64191042Y-56814745D02*
X58622347Y-62383440D01*
X46846015Y-51533985D02*
X46582030Y-51270000D01*
X46846015Y-58468885D02*
X46847130Y-58470000D01*
X46847130Y-58502289D02*
X46847130Y-58470000D01*
X46846015Y-51533985D02*
X46846015Y-58468885D01*
X68224038Y-44531569D02*
X64191042Y-48564564D01*
X69354845Y-44531569D02*
X68224038Y-44531569D01*
%TO.N,L1*%
X87680038Y-44531568D02*
X83647042Y-48564564D01*
X66038029Y-60618029D02*
X66038029Y-50179577D01*
X83647042Y-48564564D02*
X83647042Y-56814745D01*
X90594030Y-48679576D02*
X90594029Y-48031295D01*
X78078346Y-62383441D02*
X67803441Y-62383441D01*
X83647042Y-56814745D02*
X78078346Y-62383441D01*
X88906171Y-44531568D02*
X87680038Y-44531568D01*
X90594029Y-48031295D02*
X91287408Y-47337916D01*
X67803441Y-62383441D02*
X66038029Y-60618029D01*
%TO.N,L2*%
X85494029Y-59436594D02*
X88567720Y-62510285D01*
X110050029Y-48679577D02*
X110050029Y-48150288D01*
X88567720Y-62510285D02*
X98901252Y-62510285D01*
X103103042Y-48560558D02*
X107132033Y-44531568D01*
X85494029Y-50179577D02*
X85494029Y-59436594D01*
X107132033Y-44531568D02*
X108388447Y-44531568D01*
X103103043Y-58308494D02*
X103103042Y-48560558D01*
X98901252Y-62510285D02*
X103103043Y-58308494D01*
X110050029Y-48150288D02*
X110691108Y-47509209D01*
%TO.N,L3*%
X126592071Y-44531566D02*
X127956006Y-44531567D01*
X129506029Y-48031295D02*
X130199408Y-47337917D01*
X122559043Y-48564595D02*
X126592071Y-44531566D01*
X107896876Y-62383441D02*
X116990346Y-62383441D01*
X122559042Y-56814745D02*
X122559043Y-48564595D01*
X104950029Y-59436594D02*
X107896876Y-62383441D01*
X116990346Y-62383441D02*
X122559042Y-56814745D01*
X129506029Y-48679608D02*
X129506029Y-48031295D01*
X104950029Y-50179577D02*
X104950029Y-59436594D01*
%TO.N,L4*%
X148962030Y-48679577D02*
X148962029Y-48150288D01*
X124406029Y-50179608D02*
X124406029Y-59436594D01*
X142015043Y-57836494D02*
X142015042Y-48400558D01*
X137468096Y-62383441D02*
X142015043Y-57836494D01*
X127352876Y-62383441D02*
X137468096Y-62383441D01*
X142015042Y-48400558D02*
X145884032Y-44531568D01*
X124406029Y-59436594D02*
X127352876Y-62383441D01*
X148962029Y-48150288D02*
X149603108Y-47509209D01*
X145884032Y-44531568D02*
X147260233Y-44531568D01*
%TO.N,L5*%
X161471042Y-48564595D02*
X165504068Y-44531570D01*
X143862029Y-50179577D02*
X143862030Y-59436594D01*
X155902347Y-62383441D02*
X161471042Y-56814746D01*
X168418030Y-48679608D02*
X168418030Y-48150288D01*
X165504068Y-44531570D02*
X166552002Y-44531570D01*
X143862030Y-59436594D02*
X146808876Y-62383441D01*
X168418030Y-48150288D02*
X169059109Y-47509209D01*
X146808876Y-62383441D02*
X155902347Y-62383441D01*
X161471042Y-56814746D02*
X161471042Y-48564595D01*
%TO.N,L6*%
X163318029Y-50179608D02*
X163318029Y-60457062D01*
X184960070Y-44531567D02*
X186243108Y-44531567D01*
X165244408Y-62383441D02*
X178816559Y-62383441D01*
X187874030Y-48041244D02*
X188564938Y-47350336D01*
X163318029Y-60457062D02*
X165244408Y-62383441D01*
X180927042Y-60272958D02*
X180927043Y-48564594D01*
X180927043Y-48564594D02*
X184960070Y-44531567D01*
X187874029Y-48679608D02*
X187874030Y-48041244D01*
X178816559Y-62383441D02*
X180927042Y-60272958D01*
%TO.N,L7*%
X200383043Y-48720558D02*
X204572034Y-44531568D01*
X207330029Y-48679608D02*
X207330029Y-48031295D01*
X185720876Y-62383441D02*
X194814346Y-62383441D01*
X200383042Y-56814744D02*
X200383043Y-48720558D01*
X182774030Y-50179608D02*
X182774029Y-59436594D01*
X182774029Y-59436594D02*
X185720876Y-62383441D01*
X207330029Y-48031295D02*
X208023408Y-47337916D01*
X204572034Y-44531568D02*
X205638097Y-44531568D01*
X194814346Y-62383441D02*
X200383042Y-56814744D01*
%TO.N,L8*%
X215523378Y-62383441D02*
X205176876Y-62383441D01*
X219839042Y-48564596D02*
X219839042Y-58067778D01*
X205176876Y-62383441D02*
X202230030Y-59436593D01*
X226786030Y-48031295D02*
X227479408Y-47337916D01*
X219839042Y-58067778D02*
X215523378Y-62383441D01*
X226786029Y-48679609D02*
X226786030Y-48031295D01*
X225018706Y-44531569D02*
X223872069Y-44531569D01*
X202230030Y-59436593D02*
X202230029Y-50179608D01*
X223872069Y-44531569D02*
X219839042Y-48564596D01*
%TO.N,L9*%
X221686029Y-50179608D02*
X221686029Y-58706029D01*
X239295042Y-48564564D02*
X243339048Y-44520558D01*
X222100000Y-60133408D02*
X224350033Y-62383441D01*
X233726346Y-62383442D02*
X239295042Y-56814745D01*
X246242029Y-48031296D02*
X246935408Y-47337916D01*
X239295042Y-56814745D02*
X239295042Y-48564564D01*
X222100000Y-59120000D02*
X222100000Y-60133408D01*
X246242029Y-48679576D02*
X246242029Y-48031296D01*
X224350033Y-62383441D02*
X233726346Y-62383442D01*
X243339048Y-44520558D02*
X244462513Y-44520558D01*
X221686029Y-58706029D02*
X222100000Y-59120000D01*
%TO.N,L10*%
X258751043Y-56814746D02*
X253182346Y-62383441D01*
X265698028Y-48679577D02*
X265698028Y-48063591D01*
X258751042Y-48564563D02*
X258751043Y-56814746D01*
X253182346Y-62383441D02*
X245440000Y-62383442D01*
X242603442Y-62383442D02*
X240690000Y-60470000D01*
X262815047Y-44500558D02*
X258751042Y-48564563D01*
X240690000Y-50910000D02*
X241142029Y-50457971D01*
X245440000Y-62383442D02*
X244088876Y-62383442D01*
X240690000Y-60470000D02*
X240690000Y-50910000D01*
X245440000Y-62383442D02*
X242603442Y-62383442D01*
X241142029Y-50457971D02*
X241142029Y-50179578D01*
X263912514Y-44500558D02*
X262815047Y-44500558D01*
X265698028Y-48063591D02*
X266383390Y-47378229D01*
%TO.N,L11*%
X260598029Y-60597046D02*
X264032512Y-64031530D01*
X265698244Y-67560032D02*
X266401967Y-66856309D01*
X265698244Y-68179508D02*
X265698244Y-67560032D01*
X260598028Y-50179577D02*
X260598029Y-60597046D01*
%TO.N,L12*%
X258751257Y-66740626D02*
X255340630Y-63330000D01*
X246242245Y-68179509D02*
X246242244Y-67681834D01*
X260136245Y-69679508D02*
X258751257Y-68294521D01*
X260598245Y-69679507D02*
X260136245Y-69679508D01*
X258751257Y-68294521D02*
X258751257Y-66740626D01*
X246242244Y-67681834D02*
X246991485Y-66932593D01*
X255340630Y-63330000D02*
X245085328Y-63330000D01*
X245085328Y-63330000D02*
X244383796Y-64031532D01*
%TO.N,L13*%
X235722632Y-63168000D02*
X239295258Y-66740626D01*
X225571535Y-63551535D02*
X225841535Y-63551535D01*
X225841535Y-63551535D02*
X226225070Y-63168000D01*
X240680244Y-69679508D02*
X241142244Y-69679507D01*
X239295257Y-68294522D02*
X240680244Y-69679508D01*
X226786244Y-68179508D02*
X226786244Y-67613345D01*
X239295258Y-66740626D02*
X239295257Y-68294522D01*
X226225070Y-63168000D02*
X235722632Y-63168000D01*
X226786244Y-67613345D02*
X227453815Y-66945774D01*
X225152514Y-63970557D02*
X225571535Y-63551535D01*
%TO.N,L14*%
X207330244Y-68179508D02*
X207330244Y-67531257D01*
X206048597Y-63554474D02*
X205632514Y-63970558D01*
X216653105Y-63554473D02*
X206048597Y-63554474D01*
X220861464Y-69679508D02*
X219839257Y-68657302D01*
X219839257Y-68657302D02*
X219839257Y-66740626D01*
X219839257Y-66740626D02*
X216653105Y-63554473D01*
X221686244Y-69679508D02*
X220861464Y-69679508D01*
X207330244Y-67531257D02*
X208023623Y-66837878D01*
%TO.N,L15*%
X187874244Y-68179508D02*
X187874245Y-67531257D01*
X200383257Y-66740626D02*
X197197105Y-63554474D01*
X202230245Y-69679508D02*
X201790244Y-69679508D01*
X197197105Y-63554474D02*
X186588597Y-63554474D01*
X186588597Y-63554474D02*
X186142513Y-64000558D01*
X200383258Y-68272521D02*
X200383257Y-66740626D01*
X187874245Y-67531257D02*
X188567623Y-66837878D01*
X201790244Y-69679508D02*
X200383258Y-68272521D01*
%TO.N,L16*%
X180927257Y-68294521D02*
X180927257Y-66740626D01*
X177741105Y-63554475D02*
X167128597Y-63554474D01*
X182774244Y-69679508D02*
X182312244Y-69679508D01*
X168418244Y-68179539D02*
X168418244Y-67531257D01*
X168418244Y-67531257D02*
X169111623Y-66837877D01*
X167128597Y-63554474D02*
X166752513Y-63930558D01*
X180927257Y-66740626D02*
X177741105Y-63554475D01*
X182312244Y-69679508D02*
X180927257Y-68294521D01*
%TO.N,L17*%
X148962244Y-67532498D02*
X149655316Y-66839427D01*
X147548597Y-63554475D02*
X147242514Y-63860558D01*
X162871494Y-69679539D02*
X161471257Y-68279302D01*
X161471257Y-68279302D02*
X161471257Y-66740626D01*
X158285106Y-63554474D02*
X147548597Y-63554475D01*
X163318244Y-69679539D02*
X162871494Y-69679539D01*
X161471257Y-66740626D02*
X158285106Y-63554474D01*
X148962244Y-68179509D02*
X148962244Y-67532498D01*
%TO.N,L18*%
X142015258Y-68272521D02*
X143422244Y-69679508D01*
X143422244Y-69679508D02*
X143862244Y-69679508D01*
X128208597Y-63554474D02*
X140375441Y-63554474D01*
X129506244Y-67675369D02*
X130252999Y-66928614D01*
X129506244Y-68179539D02*
X129506244Y-67675369D01*
X142015258Y-65194291D02*
X142015258Y-68272521D01*
X127852514Y-63910558D02*
X128208597Y-63554474D01*
X140375441Y-63554474D02*
X142015258Y-65194291D01*
%TO.N,L19*%
X110050244Y-67531257D02*
X110743624Y-66837878D01*
X122559257Y-68272552D02*
X122559257Y-66740626D01*
X119373106Y-63554474D02*
X108909568Y-63554474D01*
X108909568Y-63554474D02*
X108432514Y-64031529D01*
X110050244Y-68179508D02*
X110050244Y-67531257D01*
X124406244Y-69679539D02*
X123966244Y-69679539D01*
X122559257Y-66740626D02*
X119373106Y-63554474D01*
X123966244Y-69679539D02*
X122559257Y-68272552D01*
%TO.N,L20*%
X103103257Y-66740627D02*
X99273915Y-62911285D01*
X99273915Y-62911285D02*
X89811787Y-62911285D01*
X103103257Y-68294521D02*
X103103257Y-66740627D01*
X104488245Y-69679508D02*
X103103257Y-68294521D01*
X104950245Y-69679508D02*
X104488245Y-69679508D01*
X90594244Y-67531257D02*
X91287623Y-66837878D01*
X90594244Y-68179539D02*
X90594244Y-67531257D01*
X89811787Y-62911285D02*
X88862514Y-63860558D01*
%TO.N,L21*%
X69462513Y-63950558D02*
X70628631Y-62784441D01*
X85054245Y-69679538D02*
X85494244Y-69679539D01*
X71138244Y-67531256D02*
X71831623Y-66837878D01*
X83647258Y-66740626D02*
X83647257Y-68272552D01*
X70628631Y-62784441D02*
X79691073Y-62784441D01*
X83647257Y-68272552D02*
X85054245Y-69679538D01*
X79691073Y-62784441D02*
X83647258Y-66740626D01*
X71138244Y-68179539D02*
X71138244Y-67531256D01*
%TO.N,L22*%
X64191257Y-66571257D02*
X64191257Y-68272552D01*
X49942513Y-63840558D02*
X50228597Y-63554474D01*
X52334526Y-63955474D02*
X56932574Y-63955474D01*
X64191257Y-68272552D02*
X65598244Y-69679539D01*
X61779000Y-64159000D02*
X64191257Y-66571257D01*
X50228597Y-63554474D02*
X51924474Y-63554474D01*
X51682244Y-68179508D02*
X52685033Y-68179508D01*
X51924474Y-63554474D02*
X52330000Y-63960000D01*
X52685033Y-68179508D02*
X52861976Y-68002565D01*
X56932574Y-63955474D02*
X57136100Y-64159000D01*
X57136100Y-64159000D02*
X61779000Y-64159000D01*
X65598244Y-69679539D02*
X66038244Y-69679538D01*
X52330000Y-63960000D02*
X52334526Y-63955474D01*
%TO.N,L23*%
X51682512Y-87679547D02*
X51682512Y-87150260D01*
X46582244Y-69679507D02*
X46582245Y-80000289D01*
X46582245Y-80000289D02*
X49962513Y-83380558D01*
X51682512Y-87150260D02*
X52323592Y-86509180D01*
%TO.N,L24*%
X49529328Y-101383447D02*
X58649624Y-101383447D01*
X71138514Y-87679608D02*
X71138513Y-87031265D01*
X64191526Y-95841546D02*
X64191526Y-87564595D01*
X64191526Y-87564595D02*
X68445563Y-83310558D01*
X71138513Y-87031265D02*
X71831892Y-86337885D01*
X46582512Y-98436631D02*
X49529328Y-101383447D01*
X58649624Y-101383447D02*
X64191526Y-95841546D01*
X46582512Y-89179547D02*
X46582512Y-98436631D01*
X68445563Y-83310558D02*
X69532513Y-83310558D01*
%TO.N,L25*%
X87811502Y-83400558D02*
X88782514Y-83400558D01*
X68985329Y-101383447D02*
X79248090Y-101383447D01*
X90594513Y-87679547D02*
X90594514Y-87031265D01*
X90594514Y-87031265D02*
X91287892Y-86337886D01*
X66038513Y-98436632D02*
X68985329Y-101383447D01*
X83647526Y-87564534D02*
X87811502Y-83400558D01*
X66038513Y-89179608D02*
X66038513Y-98436632D01*
X83647526Y-96984011D02*
X83647526Y-87564534D01*
X79248090Y-101383447D02*
X83647526Y-96984011D01*
%TO.N,L26*%
X85494513Y-98499657D02*
X88378302Y-101383448D01*
X103103526Y-87564596D02*
X107247563Y-83420558D01*
X103103526Y-95814719D02*
X103103526Y-87564596D01*
X107247563Y-83420558D02*
X108272513Y-83420558D01*
X97534798Y-101383447D02*
X103103526Y-95814719D01*
X85494514Y-89179547D02*
X85494513Y-98499657D01*
X88378302Y-101383448D02*
X97534798Y-101383447D01*
X110050513Y-87067272D02*
X110756861Y-86360925D01*
X110050513Y-87679608D02*
X110050513Y-87067272D01*
%TO.N,L27*%
X129506513Y-87679548D02*
X129506513Y-87031265D01*
X104950513Y-98436632D02*
X107446397Y-100932515D01*
X119318090Y-101383447D02*
X122559527Y-98142010D01*
X113793424Y-101383447D02*
X119318090Y-101383447D01*
X122559526Y-87550558D02*
X126709526Y-83400558D01*
X113342492Y-100932515D02*
X113793424Y-101383447D01*
X126709526Y-83400558D02*
X127722513Y-83400558D01*
X107446397Y-100932515D02*
X113342492Y-100932515D01*
X122559527Y-98142010D02*
X122559526Y-87550558D01*
X129506513Y-87031265D02*
X130199893Y-86337885D01*
X104950513Y-89179608D02*
X104950513Y-98436632D01*
%TO.N,L28*%
X146219501Y-83360558D02*
X147192513Y-83360558D01*
X127353328Y-101383448D02*
X137856553Y-101383447D01*
X137856553Y-101383447D02*
X142015526Y-97224474D01*
X142015526Y-97224474D02*
X142015526Y-87564533D01*
X124406514Y-89179547D02*
X124406513Y-98436632D01*
X148962512Y-87042388D02*
X149653131Y-86351770D01*
X142015526Y-87564533D02*
X146219501Y-83360558D01*
X148962512Y-87679547D02*
X148962512Y-87042388D01*
X124406513Y-98436632D02*
X127353328Y-101383448D01*
%TO.N,L29*%
X168418513Y-87679547D02*
X168418512Y-87150259D01*
X143862512Y-89179547D02*
X143862512Y-98530556D01*
X161472513Y-87563546D02*
X165635501Y-83400558D01*
X165635501Y-83400558D02*
X166552513Y-83400557D01*
X143862512Y-98530556D02*
X146715403Y-101383447D01*
X155902798Y-101383446D02*
X161472514Y-95813732D01*
X146715403Y-101383447D02*
X155902798Y-101383446D01*
X161472514Y-95813732D02*
X161472513Y-87563546D01*
X168418512Y-87150259D02*
X169059592Y-86509179D01*
%TO.N,L30*%
X186142513Y-83430558D02*
X185061502Y-83430558D01*
X180927526Y-97542474D02*
X177086553Y-101383447D01*
X187874513Y-87679547D02*
X187874513Y-87031264D01*
X187874513Y-87031264D02*
X188567892Y-86337886D01*
X180927527Y-87564534D02*
X180927526Y-97542474D01*
X177086553Y-101383447D02*
X165283446Y-101383446D01*
X185061502Y-83430558D02*
X180927527Y-87564534D01*
X165283446Y-101383446D02*
X163318512Y-99418512D01*
X163318512Y-99418512D02*
X163318512Y-89179547D01*
%TO.N,L31*%
X196506553Y-101383447D02*
X200383527Y-97506473D01*
X204452513Y-83320557D02*
X205592513Y-83320558D01*
X200383527Y-97506473D02*
X200383526Y-87389545D01*
X207330513Y-87679608D02*
X207330513Y-87150258D01*
X182774513Y-89179546D02*
X182774513Y-98436632D01*
X200383526Y-87389545D02*
X204452513Y-83320557D01*
X185721328Y-101383447D02*
X196506553Y-101383447D01*
X207330513Y-87150258D02*
X207971593Y-86509179D01*
X182774513Y-98436632D02*
X185721328Y-101383447D01*
%TO.N,L32*%
X226786514Y-87679547D02*
X226786513Y-87031265D01*
X219839526Y-86053481D02*
X219839526Y-97133921D01*
X202230513Y-98436632D02*
X202230513Y-89179609D01*
X219881260Y-86011747D02*
X219839526Y-86053481D01*
X226786513Y-87031265D02*
X227479893Y-86337886D01*
X205177328Y-101383447D02*
X202230513Y-98436632D01*
X219839526Y-97133921D02*
X215590000Y-101383447D01*
X215590000Y-101383447D02*
X205177328Y-101383447D01*
%TO.N,L33*%
X246242513Y-87679547D02*
X246242513Y-87031265D01*
X221686513Y-89179547D02*
X221686513Y-98963613D01*
X239295526Y-87564535D02*
X243519502Y-83340558D01*
X243519502Y-83340558D02*
X244532513Y-83340559D01*
X221686513Y-98963613D02*
X224106347Y-101383447D01*
X239295526Y-97404474D02*
X239295526Y-87564535D01*
X224106347Y-101383447D02*
X235316553Y-101383447D01*
X246242513Y-87031265D02*
X246935892Y-86337887D01*
X235316553Y-101383447D02*
X239295526Y-97404474D01*
%TO.N,L34*%
X265698513Y-87679608D02*
X265698513Y-87031265D01*
X258160000Y-90120000D02*
X258160000Y-96406246D01*
X243314414Y-101383447D02*
X241142513Y-99211546D01*
X258751526Y-89528474D02*
X258160000Y-90120000D01*
X264002513Y-83360559D02*
X262955563Y-83360558D01*
X253182799Y-101383447D02*
X243314414Y-101383447D01*
X258160000Y-96406246D02*
X253182799Y-101383447D01*
X241142513Y-99211546D02*
X241142515Y-89179547D01*
X265698513Y-87031265D02*
X266391892Y-86337887D01*
X262955563Y-83360558D02*
X258751526Y-87564595D01*
X258751526Y-87564595D02*
X258751526Y-89528474D01*
%TO.N,L35*%
X260598513Y-89179608D02*
X260598513Y-99596558D01*
X265698512Y-107135547D02*
X265698512Y-106487266D01*
X265698512Y-106487266D02*
X266391892Y-105793886D01*
X260598513Y-99596558D02*
X263852513Y-102850558D01*
%TO.N,L36*%
X246242514Y-106487265D02*
X246935892Y-105793886D01*
X260598512Y-108635547D02*
X260136512Y-108635547D01*
X258751526Y-107250561D02*
X258751526Y-105696634D01*
X258751526Y-105696634D02*
X255565374Y-102510482D01*
X255565374Y-102510482D02*
X244812589Y-102510481D01*
X260136512Y-108635547D02*
X258751526Y-107250561D01*
X244812589Y-102510481D02*
X244492513Y-102830558D01*
X246242513Y-107135608D02*
X246242514Y-106487265D01*
%TO.N,L37*%
X239295527Y-107228621D02*
X239295526Y-105696634D01*
X226786514Y-107135547D02*
X226786513Y-106586187D01*
X241142513Y-108635608D02*
X240702513Y-108635608D01*
X225502513Y-102460558D02*
X225132513Y-102830558D01*
X240702513Y-108635608D02*
X239295527Y-107228621D01*
X226786513Y-106586187D02*
X227444137Y-105928562D01*
X236059450Y-102460558D02*
X225502513Y-102460558D01*
X239295526Y-105696634D02*
X236059450Y-102460558D01*
%TO.N,L38*%
X207330512Y-107135547D02*
X207330512Y-106487267D01*
X219586445Y-105443555D02*
X219839526Y-105696635D01*
X206132589Y-102510482D02*
X216653374Y-102510483D01*
X205832513Y-102810557D02*
X206132589Y-102510482D01*
X207330512Y-106487267D02*
X208023892Y-105793886D01*
X220375977Y-106619143D02*
X220375977Y-107774023D01*
X219839526Y-106082692D02*
X220375977Y-106619143D01*
X221237502Y-108635547D02*
X221686513Y-108635547D01*
X220375977Y-107774023D02*
X221237502Y-108635547D01*
X219839526Y-105696635D02*
X219839526Y-106082692D01*
X216653374Y-102510483D02*
X219586445Y-105443555D01*
%TO.N,L39*%
X200383526Y-107281571D02*
X200383526Y-105696633D01*
X187874513Y-106487265D02*
X188567894Y-105793886D01*
X186442589Y-102510483D02*
X186052513Y-102900558D01*
X202230512Y-108635548D02*
X201737502Y-108635546D01*
X201737502Y-108635546D02*
X200383526Y-107281571D01*
X197197374Y-102510483D02*
X186442589Y-102510483D01*
X200383526Y-105696633D02*
X197197374Y-102510483D01*
X187874513Y-107135547D02*
X187874513Y-106487265D01*
%TO.N,L40*%
X167202513Y-102460558D02*
X177691450Y-102460558D01*
X182505547Y-108635547D02*
X182774513Y-108635547D01*
X168418513Y-107135608D02*
X168418513Y-106487265D01*
X168418513Y-106487265D02*
X169111892Y-105793886D01*
X166822513Y-102840558D02*
X167202513Y-102460558D01*
X177691450Y-102460558D02*
X180927526Y-105696634D01*
X180927526Y-105696634D02*
X180927526Y-107057526D01*
X180927526Y-107057526D02*
X182505547Y-108635547D01*
%TO.N,L41*%
X161471527Y-107250621D02*
X161471527Y-105696634D01*
X162856513Y-108635608D02*
X161471527Y-107250621D01*
X147602589Y-102510482D02*
X147212514Y-102900558D01*
X158285374Y-102510482D02*
X147602589Y-102510482D01*
X148962513Y-107135608D02*
X148962513Y-106635000D01*
X163318513Y-108635608D02*
X162856513Y-108635608D01*
X161471527Y-105696634D02*
X158285374Y-102510482D01*
X148962513Y-106635000D02*
X149559741Y-106037773D01*
%TO.N,L42*%
X142015526Y-107228622D02*
X142015526Y-105696634D01*
X129506513Y-107135547D02*
X129506513Y-106487265D01*
X129506513Y-106487265D02*
X130199893Y-105793886D01*
X138819450Y-102500558D02*
X128122513Y-102500558D01*
X128122513Y-102500558D02*
X127762513Y-102860557D01*
X143422513Y-108635608D02*
X142015526Y-107228622D01*
X142015526Y-105696634D02*
X138819450Y-102500558D01*
X143862514Y-108635608D02*
X143422513Y-108635608D01*
%TO.N,L43*%
X110050513Y-107135608D02*
X110050513Y-106522558D01*
X123042513Y-107711547D02*
X123042513Y-106179621D01*
X110050513Y-106522558D02*
X110752513Y-105820558D01*
X124406513Y-108635547D02*
X123966513Y-108635547D01*
X123042513Y-106179621D02*
X119373374Y-102510482D01*
X119373374Y-102510482D02*
X108732589Y-102510482D01*
X123966513Y-108635547D02*
X123042513Y-107711547D01*
X108732589Y-102510482D02*
X108432514Y-102810557D01*
%TO.N,L44*%
X90594513Y-107135609D02*
X90594513Y-106515687D01*
X89352589Y-102510482D02*
X88982514Y-102880558D01*
X104950513Y-108635608D02*
X104510514Y-108635608D01*
X103103526Y-107228621D02*
X103103527Y-105696634D01*
X99917374Y-102510482D02*
X89352589Y-102510482D01*
X104510514Y-108635608D02*
X103103526Y-107228621D01*
X103103527Y-105696634D02*
X99917374Y-102510482D01*
X90594513Y-106515687D02*
X91280836Y-105829363D01*
%TO.N,L45*%
X85032514Y-108635608D02*
X83647526Y-107250621D01*
X83647526Y-105696634D02*
X81336982Y-103386089D01*
X71138513Y-107135547D02*
X71138512Y-106487266D01*
X71138512Y-106487266D02*
X71831892Y-105793886D01*
X80461374Y-102510482D02*
X69812589Y-102510482D01*
X69812589Y-102510482D02*
X69462513Y-102860558D01*
X83647526Y-107250621D02*
X83647526Y-105696634D01*
X81336982Y-103386089D02*
X80461374Y-102510482D01*
X85494513Y-108635608D02*
X85032514Y-108635608D01*
%TO.N,L46*%
X61005374Y-102510482D02*
X50332590Y-102510482D01*
X65576512Y-108635547D02*
X64191526Y-107250561D01*
X64191526Y-107250561D02*
X64191526Y-105696634D01*
X64191526Y-105696634D02*
X61005374Y-102510482D01*
X51682513Y-107135558D02*
X51682513Y-106487266D01*
X51682513Y-106487266D02*
X52375892Y-105793886D01*
X66038512Y-108635547D02*
X65576512Y-108635547D01*
X50332590Y-102510482D02*
X49962514Y-102880558D01*
%TO.N,I+*%
X41860000Y-46590000D02*
X41780000Y-46590000D01*
X41662513Y-58150558D02*
X42760013Y-58150558D01*
X39722513Y-50940558D02*
X39722514Y-56240558D01*
X39722513Y-48647487D02*
X39722513Y-50940558D01*
X42022514Y-54150558D02*
X42760013Y-54150558D01*
X41882508Y-46225551D02*
X41860000Y-46248059D01*
X41780000Y-46590000D02*
X39722513Y-48647487D01*
X40067513Y-56555558D02*
X41662513Y-58150558D01*
X40037513Y-56555559D02*
X40067513Y-56555558D01*
X40037513Y-56555559D02*
X39722514Y-56240558D01*
X39722513Y-50940558D02*
X39722513Y-51850557D01*
X41860000Y-46248059D02*
X41860000Y-46590000D01*
X39722513Y-51850557D02*
X42022514Y-54150558D01*
%TO.N,O-*%
X37217529Y-100770592D02*
X37217529Y-94510593D01*
X42142514Y-52380559D02*
X42430013Y-52380558D01*
X42430013Y-52380558D02*
X42760013Y-52050558D01*
%TO.N,I-*%
X42760013Y-60050558D02*
X41962513Y-60848058D01*
X41962513Y-60848058D02*
X41962513Y-65280558D01*
D32*
%TO.N,PU*%
X44454029Y-54610000D02*
X44454029Y-54949042D01*
X44454029Y-55600000D02*
X44454029Y-54610000D01*
X43946263Y-52440000D02*
X43946263Y-53042234D01*
X40885013Y-55100558D02*
X44302513Y-55100558D01*
X43946263Y-52440000D02*
X43946263Y-51656263D01*
X43123799Y-66298589D02*
X43123799Y-61568715D01*
X44454029Y-60238485D02*
X44454029Y-57110000D01*
X44454029Y-55252074D02*
X44454029Y-55600000D01*
X43946263Y-53042234D02*
X44454029Y-53550001D01*
X44454029Y-53550001D02*
X44454029Y-54610000D01*
X43946263Y-52440000D02*
X43946263Y-52658744D01*
X42890000Y-50280545D02*
X42760013Y-50150558D01*
X43946263Y-51656263D02*
X42890000Y-50600000D01*
X43123799Y-61568715D02*
X44454029Y-60238485D01*
X44454029Y-57110000D02*
X44454029Y-55600000D01*
X42890000Y-50600000D02*
X42890000Y-50280545D01*
%TD*%
M02*
