M48
; DRILL file {KiCad 9.0.2+dfsg-1} date 2025-11-03T11:46:03-0500
; FORMAT={-:-/ absolute / metric / decimal}
; #@! TF.CreationDate,2025-11-03T11:46:03-05:00
; #@! TF.GenerationSoftware,Kicad,Pcbnew,9.0.2+dfsg-1
; #@! TF.FileFunction,NonPlated,1,2,NPTH
FMAT,2
METRIC
; #@! TA.AperFunction,NonPlated,NPTH,ComponentDrill
T1C0.800
; #@! TA.AperFunction,NonPlated,NPTH,ComponentDrill
T2C1.600
; #@! TA.AperFunction,NonPlated,NPTH,ComponentDrill
T3C1.750
; #@! TA.AperFunction,NonPlated,NPTH,ComponentDrill
T4C2.200
; #@! TA.AperFunction,NonPlated,NPTH,ComponentDrill
T5C3.050
; #@! TA.AperFunction,NonPlated,NPTH,ComponentDrill
T6C4.000
; #@! TA.AperFunction,NonPlated,NPTH,ComponentDrill
T7C5.050
%
G90
G05
T1
X40.983Y-43.476
X47.783Y-43.476
T2
X49.19Y-57.382
X49.19Y-76.882
X49.191Y-96.382
X49.191Y-115.838
X68.646Y-57.382
X68.646Y-76.882
X68.647Y-115.838
X68.647Y-96.382
X88.102Y-57.382
X88.102Y-76.882
X88.103Y-96.382
X88.103Y-115.838
X107.558Y-57.382
X107.558Y-76.882
X107.559Y-96.382
X107.559Y-115.838
X127.014Y-57.382
X127.014Y-76.882
X127.015Y-96.382
X127.015Y-115.838
X146.47Y-57.382
X146.47Y-76.882
X146.471Y-96.382
X146.471Y-115.838
X165.926Y-57.382
X165.926Y-76.882
X165.927Y-96.382
X165.927Y-115.838
X185.382Y-57.382
X185.382Y-76.882
X185.383Y-96.382
X185.383Y-115.838
X204.838Y-57.382
X204.838Y-76.882
X204.839Y-96.382
X204.839Y-115.838
X224.294Y-57.382
X224.294Y-76.882
X224.295Y-96.382
X224.295Y-115.838
X243.75Y-57.382
X243.75Y-76.882
X243.751Y-96.382
X243.751Y-115.838
X263.206Y-57.382
X263.206Y-76.882
X263.207Y-96.382
X263.207Y-115.838
T3
X49.11Y-52.232
X49.11Y-71.732
X49.111Y-91.232
X49.111Y-110.688
X59.27Y-52.231
X59.27Y-71.731
X59.271Y-91.231
X59.271Y-110.687
X68.566Y-52.232
X68.566Y-71.732
X68.567Y-110.688
X68.567Y-91.232
X78.726Y-52.231
X78.726Y-71.731
X78.727Y-110.687
X78.727Y-91.231
X88.022Y-52.232
X88.022Y-71.732
X88.023Y-91.232
X88.023Y-110.688
X98.182Y-52.231
X98.182Y-71.731
X98.183Y-91.231
X98.183Y-110.687
X107.478Y-52.232
X107.478Y-71.732
X107.479Y-91.232
X107.479Y-110.688
X117.638Y-52.231
X117.638Y-71.731
X117.639Y-91.231
X117.639Y-110.687
X126.934Y-52.232
X126.934Y-71.732
X126.935Y-91.232
X126.935Y-110.688
X137.094Y-52.231
X137.094Y-71.731
X137.095Y-91.231
X137.095Y-110.687
X146.39Y-52.232
X146.39Y-71.732
X146.391Y-91.232
X146.391Y-110.688
X156.55Y-52.231
X156.55Y-71.731
X156.551Y-91.231
X156.551Y-110.687
X165.846Y-52.232
X165.846Y-71.732
X165.847Y-91.232
X165.847Y-110.688
X176.006Y-52.231
X176.006Y-71.731
X176.007Y-91.231
X176.007Y-110.687
X185.302Y-52.232
X185.302Y-71.732
X185.303Y-91.232
X185.303Y-110.688
X195.462Y-52.231
X195.462Y-71.731
X195.463Y-91.231
X195.463Y-110.687
X204.758Y-52.232
X204.758Y-71.732
X204.759Y-91.232
X204.759Y-110.688
X214.918Y-52.231
X214.918Y-71.731
X214.919Y-91.231
X214.919Y-110.687
X224.214Y-52.232
X224.214Y-71.732
X224.215Y-91.232
X224.215Y-110.688
X234.374Y-52.231
X234.374Y-71.731
X234.375Y-91.231
X234.375Y-110.687
X243.67Y-52.232
X243.67Y-71.732
X243.671Y-91.232
X243.671Y-110.688
X253.83Y-52.231
X253.83Y-71.731
X253.831Y-91.231
X253.831Y-110.687
X263.126Y-52.232
X263.126Y-71.732
X263.127Y-91.232
X263.127Y-110.688
X273.286Y-52.231
X273.286Y-71.731
X273.287Y-91.231
X273.287Y-110.687
T4
X19.623Y-118.041
X30.783Y-73.361
X63.923Y-61.981
X64.033Y-101.261
X161.203Y-81.501
X239.203Y-101.171
X258.493Y-62.011
T5
X51.65Y-57.312
X51.65Y-76.812
X51.651Y-96.312
X51.651Y-115.768
X54.19Y-46.332
X54.19Y-65.831
X54.19Y-85.331
X54.19Y-104.787
X58.0Y-54.771
X58.0Y-74.271
X58.001Y-93.771
X58.001Y-113.227
X59.19Y-48.431
X59.19Y-67.931
X59.191Y-87.431
X59.191Y-106.887
X71.106Y-57.312
X71.106Y-76.812
X71.107Y-115.768
X71.107Y-96.312
X73.646Y-46.332
X73.646Y-65.831
X73.646Y-104.787
X73.646Y-85.331
X77.456Y-54.771
X77.456Y-74.271
X77.457Y-113.227
X77.457Y-93.771
X78.646Y-48.431
X78.646Y-67.931
X78.647Y-106.887
X78.647Y-87.431
X90.562Y-57.312
X90.562Y-76.812
X90.563Y-96.312
X90.563Y-115.768
X93.102Y-46.332
X93.102Y-65.831
X93.102Y-85.331
X93.102Y-104.787
X96.912Y-54.771
X96.912Y-74.271
X96.913Y-93.771
X96.913Y-113.227
X98.102Y-48.431
X98.102Y-67.931
X98.103Y-87.431
X98.103Y-106.887
X110.018Y-57.312
X110.018Y-76.812
X110.019Y-96.312
X110.019Y-115.768
X112.558Y-46.332
X112.558Y-65.831
X112.558Y-85.331
X112.558Y-104.787
X116.368Y-54.771
X116.368Y-74.271
X116.369Y-93.771
X116.369Y-113.227
X117.558Y-48.431
X117.558Y-67.931
X117.559Y-87.431
X117.559Y-106.887
X129.474Y-57.312
X129.474Y-76.812
X129.475Y-96.312
X129.475Y-115.768
X132.014Y-46.332
X132.014Y-65.831
X132.014Y-85.331
X132.014Y-104.787
X135.824Y-54.771
X135.824Y-74.271
X135.825Y-93.771
X135.825Y-113.227
X137.014Y-48.431
X137.014Y-67.931
X137.015Y-87.431
X137.015Y-106.887
X148.93Y-57.312
X148.93Y-76.812
X148.931Y-96.312
X148.931Y-115.768
X151.47Y-46.332
X151.47Y-65.831
X151.47Y-85.331
X151.47Y-104.787
X155.28Y-54.771
X155.28Y-74.271
X155.281Y-93.771
X155.281Y-113.227
X156.47Y-48.431
X156.47Y-67.931
X156.471Y-87.431
X156.471Y-106.887
X168.386Y-57.312
X168.386Y-76.812
X168.387Y-96.312
X168.387Y-115.768
X170.926Y-46.332
X170.926Y-65.831
X170.926Y-85.331
X170.926Y-104.787
X174.736Y-54.771
X174.736Y-74.271
X174.737Y-93.771
X174.737Y-113.227
X175.926Y-48.431
X175.926Y-67.931
X175.927Y-87.431
X175.927Y-106.887
X187.842Y-57.312
X187.842Y-76.812
X187.843Y-96.312
X187.843Y-115.768
X190.382Y-46.332
X190.382Y-65.831
X190.382Y-85.331
X190.382Y-104.787
X194.192Y-54.771
X194.192Y-74.271
X194.193Y-93.771
X194.193Y-113.227
X195.382Y-48.431
X195.382Y-67.931
X195.383Y-87.431
X195.383Y-106.887
X207.298Y-57.312
X207.298Y-76.812
X207.299Y-96.312
X207.299Y-115.768
X209.838Y-46.332
X209.838Y-65.831
X209.838Y-85.331
X209.838Y-104.787
X213.648Y-54.771
X213.648Y-74.271
X213.649Y-93.771
X213.649Y-113.227
X214.838Y-48.431
X214.838Y-67.931
X214.839Y-87.431
X214.839Y-106.887
X226.754Y-57.312
X226.754Y-76.812
X226.755Y-96.312
X226.755Y-115.768
X229.294Y-46.332
X229.294Y-65.831
X229.294Y-85.331
X229.294Y-104.787
X233.104Y-54.771
X233.104Y-74.271
X233.105Y-93.771
X233.105Y-113.227
X234.294Y-48.431
X234.294Y-67.931
X234.295Y-87.431
X234.295Y-106.887
X246.21Y-57.312
X246.21Y-76.812
X246.211Y-96.312
X246.211Y-115.768
X248.75Y-46.332
X248.75Y-65.831
X248.75Y-85.331
X248.75Y-104.787
X252.56Y-54.771
X252.56Y-74.271
X252.561Y-93.771
X252.561Y-113.227
X253.75Y-48.431
X253.75Y-67.931
X253.751Y-87.431
X253.751Y-106.887
X265.666Y-57.312
X265.666Y-76.812
X265.667Y-96.312
X265.667Y-115.768
X268.206Y-46.332
X268.206Y-65.831
X268.206Y-85.331
X268.206Y-104.787
X272.016Y-54.771
X272.016Y-74.271
X272.017Y-93.771
X272.017Y-113.227
X273.206Y-48.431
X273.206Y-67.931
X273.207Y-87.431
X273.207Y-106.887
T6
X54.19Y-52.232
X54.19Y-71.731
X54.191Y-91.231
X54.191Y-110.687
X73.646Y-52.232
X73.646Y-71.731
X73.647Y-110.687
X73.647Y-91.231
X93.102Y-52.232
X93.102Y-71.731
X93.103Y-91.231
X93.103Y-110.687
X112.558Y-52.232
X112.558Y-71.731
X112.559Y-91.231
X112.559Y-110.687
X132.014Y-52.232
X132.014Y-71.731
X132.015Y-91.231
X132.015Y-110.687
X151.47Y-52.232
X151.47Y-71.731
X151.471Y-91.231
X151.471Y-110.687
X170.926Y-52.232
X170.926Y-71.731
X170.927Y-91.231
X170.927Y-110.687
X190.382Y-52.232
X190.382Y-71.731
X190.383Y-91.231
X190.383Y-110.687
X209.838Y-52.232
X209.838Y-71.731
X209.839Y-91.231
X209.839Y-110.687
X229.294Y-52.232
X229.294Y-71.731
X229.295Y-91.231
X229.295Y-110.687
X248.75Y-52.232
X248.75Y-71.731
X248.751Y-91.231
X248.751Y-110.687
X268.206Y-52.232
X268.206Y-71.731
X268.207Y-91.231
X268.207Y-110.687
T7
X54.19Y-52.232
X54.19Y-71.731
X54.191Y-91.231
X54.191Y-110.687
X73.646Y-52.232
X73.646Y-71.731
X73.647Y-110.687
X73.647Y-91.231
X93.102Y-52.232
X93.102Y-71.731
X93.103Y-91.231
X93.103Y-110.687
X112.558Y-52.232
X112.558Y-71.731
X112.559Y-91.231
X112.559Y-110.687
X132.014Y-52.232
X132.014Y-71.731
X132.015Y-91.231
X132.015Y-110.687
X151.47Y-52.232
X151.47Y-71.731
X151.471Y-91.231
X151.471Y-110.687
X170.926Y-52.232
X170.926Y-71.731
X170.927Y-91.231
X170.927Y-110.687
X190.382Y-52.232
X190.382Y-71.731
X190.383Y-91.231
X190.383Y-110.687
X209.838Y-52.232
X209.838Y-71.731
X209.839Y-91.231
X209.839Y-110.687
X229.294Y-52.232
X229.294Y-71.731
X229.295Y-91.231
X229.295Y-110.687
X248.75Y-52.232
X248.75Y-71.731
X248.751Y-91.231
X248.751Y-110.687
X268.206Y-52.232
X268.206Y-71.731
X268.207Y-91.231
X268.207Y-110.687
M30
