%TF.GenerationSoftware,KiCad,Pcbnew,9.0.2+dfsg-1*%
%TF.CreationDate,2025-11-03T11:46:04-05:00*%
%TF.ProjectId,4x12,34783132-2e6b-4696-9361-645f70636258,rev?*%
%TF.SameCoordinates,Original*%
%TF.FileFunction,Paste,Bot*%
%TF.FilePolarity,Positive*%
%FSLAX46Y46*%
G04 Gerber Fmt 4.6, Leading zero omitted, Abs format (unit mm)*
G04 Created by KiCad (PCBNEW 9.0.2+dfsg-1) date 2025-11-03 11:46:04*
%MOMM*%
%LPD*%
G01*
G04 APERTURE LIST*
G04 Aperture macros list*
%AMRoundRect*
0 Rectangle with rounded corners*
0 $1 Rounding radius*
0 $2 $3 $4 $5 $6 $7 $8 $9 X,Y pos of 4 corners*
0 Add a 4 corners polygon primitive as box body*
4,1,4,$2,$3,$4,$5,$6,$7,$8,$9,$2,$3,0*
0 Add four circle primitives for the rounded corners*
1,1,$1+$1,$2,$3*
1,1,$1+$1,$4,$5*
1,1,$1+$1,$6,$7*
1,1,$1+$1,$8,$9*
0 Add four rect primitives between the rounded corners*
20,1,$1+$1,$2,$3,$4,$5,0*
20,1,$1+$1,$4,$5,$6,$7,0*
20,1,$1+$1,$6,$7,$8,$9,0*
20,1,$1+$1,$8,$9,$2,$3,0*%
%AMOutline5P*
0 Free polygon, 5 corners , with rotation*
0 The origin of the aperture is its center*
0 number of corners: always 5*
0 $1 to $10 corner X, Y*
0 $11 Rotation angle, in degrees counterclockwise*
0 create outline with 5 corners*
4,1,5,$1,$2,$3,$4,$5,$6,$7,$8,$9,$10,$1,$2,$11*%
%AMOutline6P*
0 Free polygon, 6 corners , with rotation*
0 The origin of the aperture is its center*
0 number of corners: always 6*
0 $1 to $12 corner X, Y*
0 $13 Rotation angle, in degrees counterclockwise*
0 create outline with 6 corners*
4,1,6,$1,$2,$3,$4,$5,$6,$7,$8,$9,$10,$11,$12,$1,$2,$13*%
%AMOutline7P*
0 Free polygon, 7 corners , with rotation*
0 The origin of the aperture is its center*
0 number of corners: always 7*
0 $1 to $14 corner X, Y*
0 $15 Rotation angle, in degrees counterclockwise*
0 create outline with 7 corners*
4,1,7,$1,$2,$3,$4,$5,$6,$7,$8,$9,$10,$11,$12,$13,$14,$1,$2,$15*%
%AMOutline8P*
0 Free polygon, 8 corners , with rotation*
0 The origin of the aperture is its center*
0 number of corners: always 8*
0 $1 to $16 corner X, Y*
0 $17 Rotation angle, in degrees counterclockwise*
0 create outline with 8 corners*
4,1,8,$1,$2,$3,$4,$5,$6,$7,$8,$9,$10,$11,$12,$13,$14,$15,$16,$1,$2,$17*%
G04 Aperture macros list end*
%ADD10RoundRect,0.240000X-0.959988X-0.960012X0.960012X-0.959988X0.959988X0.960012X-0.960012X0.959988X0*%
%ADD11RoundRect,0.240000X0.959988X0.960012X-0.960012X0.959988X-0.959988X-0.960012X0.960012X-0.959988X0*%
%ADD12RoundRect,0.225000X-0.225002X-0.374999X0.224998X-0.375001X0.225002X0.374999X-0.224998X0.375001X0*%
%ADD13R,1.700000X0.820000*%
%ADD14Outline5P,-0.850000X0.410000X0.850000X0.410000X0.850000X0.000000X0.440000X-0.410000X-0.850000X-0.410000X0.000000*%
%ADD15Outline5P,-0.850000X0.410000X0.440000X0.410000X0.850000X0.000000X0.850000X-0.410000X-0.850000X-0.410000X0.000000*%
%ADD16RoundRect,0.150000X0.587500X0.150000X-0.587500X0.150000X-0.587500X-0.150000X0.587500X-0.150000X0*%
%ADD17RoundRect,0.200000X-0.300000X-0.925000X0.300000X-0.925000X0.300000X0.925000X-0.300000X0.925000X0*%
%ADD18RoundRect,0.250000X0.092760X0.512642X-0.400578X0.333081X-0.092760X-0.512642X0.400578X-0.333081X0*%
%ADD19RoundRect,0.250000X0.262500X0.450000X-0.262500X0.450000X-0.262500X-0.450000X0.262500X-0.450000X0*%
%ADD20RoundRect,0.250000X-0.450000X0.262500X-0.450000X-0.262500X0.450000X-0.262500X0.450000X0.262500X0*%
G04 APERTURE END LIST*
D10*
%TO.C,REF\u002A\u002A*%
X147970228Y-65731522D03*
X159970245Y-67931352D03*
%TD*%
D11*
%TO.C,REF\u002A\u002A*%
X61275602Y-93771395D03*
X48348626Y-96311533D03*
%TD*%
%TO.C,REF\u002A\u002A*%
X255835118Y-54771425D03*
X242908142Y-57311563D03*
%TD*%
D10*
%TO.C,REF\u002A\u002A*%
X225794013Y-46231560D03*
X237794030Y-48431390D03*
%TD*%
D11*
%TO.C,REF\u002A\u002A*%
X119643333Y-74271387D03*
X106716357Y-76811525D03*
%TD*%
%TO.C,REF\u002A\u002A*%
X61275118Y-54771425D03*
X48348142Y-57311563D03*
%TD*%
D10*
%TO.C,REF\u002A\u002A*%
X186882013Y-46231561D03*
X198882030Y-48431391D03*
%TD*%
D12*
%TO.C,D14*%
X169276433Y-80381490D03*
X172576441Y-80381460D03*
%TD*%
D11*
%TO.C,REF\u002A\u002A*%
X197467118Y-54771426D03*
X184540142Y-57311564D03*
%TD*%
%TO.C,REF\u002A\u002A*%
X158555118Y-54771425D03*
X145628142Y-57311563D03*
%TD*%
D10*
%TO.C,REF\u002A\u002A*%
X70146229Y-65731522D03*
X82146246Y-67931352D03*
%TD*%
D12*
%TO.C,D14*%
X71996194Y-60881489D03*
X75296202Y-60881459D03*
%TD*%
%TO.C,D14*%
X149820194Y-60881489D03*
X153120202Y-60881459D03*
%TD*%
D11*
%TO.C,REF\u002A\u002A*%
X275291602Y-113227395D03*
X262364626Y-115767533D03*
%TD*%
D10*
%TO.C,REF\u002A\u002A*%
X264706014Y-46231559D03*
X276706031Y-48431389D03*
%TD*%
%TO.C,REF\u002A\u002A*%
X225794497Y-85231530D03*
X237794514Y-87431360D03*
%TD*%
%TO.C,REF\u002A\u002A*%
X206338013Y-46231559D03*
X218338030Y-48431389D03*
%TD*%
D11*
%TO.C,REF\u002A\u002A*%
X158555333Y-74271387D03*
X145628357Y-76811525D03*
%TD*%
%TO.C,REF\u002A\u002A*%
X80731334Y-74271387D03*
X67804358Y-76811525D03*
%TD*%
D10*
%TO.C,REF\u002A\u002A*%
X167426013Y-46231561D03*
X179426030Y-48431391D03*
%TD*%
D12*
%TO.C,D14*%
X130364194Y-60881489D03*
X133664202Y-60881459D03*
%TD*%
D10*
%TO.C,REF\u002A\u002A*%
X147970497Y-85231530D03*
X159970514Y-87431360D03*
%TD*%
D11*
%TO.C,REF\u002A\u002A*%
X216923333Y-74271387D03*
X203996357Y-76811525D03*
%TD*%
%TO.C,REF\u002A\u002A*%
X275291119Y-54771424D03*
X262364143Y-57311562D03*
%TD*%
D12*
%TO.C,D14*%
X188732433Y-80381488D03*
X192032441Y-80381458D03*
%TD*%
D11*
%TO.C,REF\u002A\u002A*%
X139099118Y-54771425D03*
X126172142Y-57311563D03*
%TD*%
D10*
%TO.C,REF\u002A\u002A*%
X206338497Y-85231530D03*
X218338514Y-87431360D03*
%TD*%
D12*
%TO.C,D14*%
X52540433Y-80381489D03*
X55840441Y-80381459D03*
%TD*%
%TO.C,D14*%
X169276647Y-119337495D03*
X172576655Y-119337465D03*
%TD*%
D10*
%TO.C,REF\u002A\u002A*%
X50690497Y-104687530D03*
X62690514Y-106887360D03*
%TD*%
%TO.C,REF\u002A\u002A*%
X147970497Y-104687530D03*
X159970514Y-106887360D03*
%TD*%
D12*
%TO.C,D14*%
X227644194Y-60881489D03*
X230944202Y-60881459D03*
%TD*%
D10*
%TO.C,REF\u002A\u002A*%
X50690228Y-65731522D03*
X62690245Y-67931352D03*
%TD*%
D11*
%TO.C,REF\u002A\u002A*%
X119643602Y-113227395D03*
X106716626Y-115767533D03*
%TD*%
D12*
%TO.C,D14*%
X110908646Y-119337495D03*
X114208654Y-119337465D03*
%TD*%
D10*
%TO.C,REF\u002A\u002A*%
X167426229Y-65731522D03*
X179426246Y-67931352D03*
%TD*%
%TO.C,REF\u002A\u002A*%
X206338497Y-104687531D03*
X218338514Y-106887361D03*
%TD*%
%TO.C,REF\u002A\u002A*%
X206338228Y-65731522D03*
X218338245Y-67931352D03*
%TD*%
%TO.C,REF\u002A\u002A*%
X245250228Y-65731522D03*
X257250245Y-67931352D03*
%TD*%
D12*
%TO.C,D14*%
X149820434Y-80381489D03*
X153120442Y-80381459D03*
%TD*%
%TO.C,D14*%
X71996647Y-119337496D03*
X75296655Y-119337466D03*
%TD*%
%TO.C,D14*%
X110908195Y-60881489D03*
X114208203Y-60881459D03*
%TD*%
D11*
%TO.C,REF\u002A\u002A*%
X100187602Y-113227395D03*
X87260626Y-115767533D03*
%TD*%
%TO.C,REF\u002A\u002A*%
X216923602Y-93771395D03*
X203996626Y-96311533D03*
%TD*%
D12*
%TO.C,D14*%
X266556433Y-80381489D03*
X269856441Y-80381459D03*
%TD*%
%TO.C,D14*%
X110908646Y-99881494D03*
X114208654Y-99881464D03*
%TD*%
D10*
%TO.C,REF\u002A\u002A*%
X264706228Y-65731522D03*
X276706245Y-67931352D03*
%TD*%
%TO.C,REF\u002A\u002A*%
X89602228Y-65731522D03*
X101602245Y-67931352D03*
%TD*%
D11*
%TO.C,REF\u002A\u002A*%
X178011118Y-54771426D03*
X165084142Y-57311564D03*
%TD*%
%TO.C,REF\u002A\u002A*%
X275291602Y-93771395D03*
X262364626Y-96311533D03*
%TD*%
D10*
%TO.C,REF\u002A\u002A*%
X186882498Y-85231530D03*
X198882515Y-87431360D03*
%TD*%
D11*
%TO.C,REF\u002A\u002A*%
X178011602Y-93771395D03*
X165084626Y-96311533D03*
%TD*%
D10*
%TO.C,REF\u002A\u002A*%
X70146497Y-104687530D03*
X82146514Y-106887360D03*
%TD*%
%TO.C,REF\u002A\u002A*%
X128514497Y-85231529D03*
X140514514Y-87431359D03*
%TD*%
D12*
%TO.C,D14*%
X247100433Y-80381489D03*
X250400441Y-80381459D03*
%TD*%
D10*
%TO.C,REF\u002A\u002A*%
X89602013Y-46231560D03*
X101602030Y-48431390D03*
%TD*%
D12*
%TO.C,D14*%
X149820646Y-119337495D03*
X153120654Y-119337465D03*
%TD*%
D11*
%TO.C,REF\u002A\u002A*%
X216923602Y-113227396D03*
X203996626Y-115767534D03*
%TD*%
D10*
%TO.C,REF\u002A\u002A*%
X186882228Y-65731522D03*
X198882245Y-67931352D03*
%TD*%
D12*
%TO.C,D14*%
X169276194Y-60881490D03*
X172576202Y-60881460D03*
%TD*%
%TO.C,D14*%
X52540647Y-99881495D03*
X55840655Y-99881465D03*
%TD*%
D11*
%TO.C,REF\u002A\u002A*%
X158555602Y-93771395D03*
X145628626Y-96311533D03*
%TD*%
D10*
%TO.C,REF\u002A\u002A*%
X50690013Y-46231560D03*
X62690030Y-48431390D03*
%TD*%
D11*
%TO.C,REF\u002A\u002A*%
X100187333Y-74271387D03*
X87260357Y-76811525D03*
%TD*%
D12*
%TO.C,D14*%
X227644433Y-80381489D03*
X230944441Y-80381459D03*
%TD*%
%TO.C,D14*%
X91452194Y-60881489D03*
X94752202Y-60881459D03*
%TD*%
%TO.C,D14*%
X130364646Y-119337495D03*
X133664654Y-119337465D03*
%TD*%
D10*
%TO.C,REF\u002A\u002A*%
X70146498Y-85231530D03*
X82146515Y-87431360D03*
%TD*%
D12*
%TO.C,D14*%
X208188646Y-99881495D03*
X211488654Y-99881465D03*
%TD*%
D11*
%TO.C,REF\u002A\u002A*%
X178011602Y-113227395D03*
X165084626Y-115767533D03*
%TD*%
%TO.C,REF\u002A\u002A*%
X61275333Y-74271387D03*
X48348357Y-76811525D03*
%TD*%
D10*
%TO.C,REF\u002A\u002A*%
X167426497Y-104687530D03*
X179426514Y-106887360D03*
%TD*%
D12*
%TO.C,D14*%
X169276647Y-99881495D03*
X172576655Y-99881465D03*
%TD*%
D10*
%TO.C,REF\u002A\u002A*%
X264706497Y-104687530D03*
X276706514Y-106887360D03*
%TD*%
D12*
%TO.C,D14*%
X91452646Y-119337495D03*
X94752654Y-119337465D03*
%TD*%
D11*
%TO.C,REF\u002A\u002A*%
X139099602Y-113227395D03*
X126172626Y-115767533D03*
%TD*%
D12*
%TO.C,D14*%
X130364646Y-99881495D03*
X133664654Y-99881465D03*
%TD*%
%TO.C,D14*%
X52540646Y-119337495D03*
X55840654Y-119337465D03*
%TD*%
D11*
%TO.C,REF\u002A\u002A*%
X178011334Y-74271387D03*
X165084358Y-76811525D03*
%TD*%
D10*
%TO.C,REF\u002A\u002A*%
X186882498Y-104687530D03*
X198882515Y-106887360D03*
%TD*%
%TO.C,REF\u002A\u002A*%
X70146013Y-46231560D03*
X82146030Y-48431390D03*
%TD*%
D12*
%TO.C,D14*%
X91452646Y-99881495D03*
X94752654Y-99881465D03*
%TD*%
D11*
%TO.C,REF\u002A\u002A*%
X119643119Y-54771425D03*
X106716143Y-57311563D03*
%TD*%
D12*
%TO.C,D14*%
X247100646Y-119337495D03*
X250400654Y-119337465D03*
%TD*%
D11*
%TO.C,REF\u002A\u002A*%
X139099333Y-74271388D03*
X126172357Y-76811526D03*
%TD*%
%TO.C,REF\u002A\u002A*%
X100187602Y-93771396D03*
X87260626Y-96311534D03*
%TD*%
D12*
%TO.C,D14*%
X227644646Y-119337495D03*
X230944654Y-119337465D03*
%TD*%
%TO.C,D14*%
X208188646Y-119337495D03*
X211488654Y-119337465D03*
%TD*%
%TO.C,D14*%
X188732646Y-119337496D03*
X192032654Y-119337466D03*
%TD*%
%TO.C,D14*%
X266556194Y-60881489D03*
X269856202Y-60881459D03*
%TD*%
%TO.C,D14*%
X130364433Y-80381489D03*
X133664441Y-80381459D03*
%TD*%
D11*
%TO.C,REF\u002A\u002A*%
X197467603Y-113227395D03*
X184540627Y-115767533D03*
%TD*%
%TO.C,REF\u002A\u002A*%
X80731118Y-54771425D03*
X67804142Y-57311563D03*
%TD*%
%TO.C,REF\u002A\u002A*%
X255835602Y-113227394D03*
X242908626Y-115767532D03*
%TD*%
D10*
%TO.C,REF\u002A\u002A*%
X128514497Y-104687530D03*
X140514514Y-106887360D03*
%TD*%
D11*
%TO.C,REF\u002A\u002A*%
X236379118Y-54771425D03*
X223452142Y-57311563D03*
%TD*%
%TO.C,REF\u002A\u002A*%
X100187118Y-54771425D03*
X87260142Y-57311563D03*
%TD*%
D10*
%TO.C,REF\u002A\u002A*%
X167426497Y-85231530D03*
X179426514Y-87431360D03*
%TD*%
%TO.C,REF\u002A\u002A*%
X109058014Y-46231560D03*
X121058031Y-48431390D03*
%TD*%
D11*
%TO.C,REF\u002A\u002A*%
X119643602Y-93771395D03*
X106716626Y-96311533D03*
%TD*%
%TO.C,REF\u002A\u002A*%
X139099602Y-93771394D03*
X126172626Y-96311532D03*
%TD*%
%TO.C,REF\u002A\u002A*%
X275291333Y-74271387D03*
X262364357Y-76811525D03*
%TD*%
D10*
%TO.C,REF\u002A\u002A*%
X50690497Y-85231530D03*
X62690514Y-87431360D03*
%TD*%
D11*
%TO.C,REF\u002A\u002A*%
X197467603Y-93771395D03*
X184540627Y-96311533D03*
%TD*%
D10*
%TO.C,REF\u002A\u002A*%
X89602497Y-85231531D03*
X101602514Y-87431361D03*
%TD*%
D11*
%TO.C,REF\u002A\u002A*%
X80731603Y-93771395D03*
X67804627Y-96311533D03*
%TD*%
D12*
%TO.C,D14*%
X110908433Y-80381489D03*
X114208441Y-80381459D03*
%TD*%
D10*
%TO.C,REF\u002A\u002A*%
X245250497Y-104687529D03*
X257250514Y-106887359D03*
%TD*%
D12*
%TO.C,D14*%
X208188194Y-60881489D03*
X211488202Y-60881459D03*
%TD*%
D11*
%TO.C,REF\u002A\u002A*%
X61275602Y-113227395D03*
X48348626Y-115767533D03*
%TD*%
D10*
%TO.C,REF\u002A\u002A*%
X128514228Y-65731523D03*
X140514245Y-67931353D03*
%TD*%
D12*
%TO.C,D14*%
X266556646Y-119337495D03*
X269856654Y-119337465D03*
%TD*%
D10*
%TO.C,REF\u002A\u002A*%
X245250013Y-46231560D03*
X257250030Y-48431390D03*
%TD*%
D11*
%TO.C,REF\u002A\u002A*%
X255835602Y-93771395D03*
X242908626Y-96311533D03*
%TD*%
D12*
%TO.C,D14*%
X266556647Y-99881495D03*
X269856655Y-99881465D03*
%TD*%
D10*
%TO.C,REF\u002A\u002A*%
X225794497Y-104687531D03*
X237794514Y-106887361D03*
%TD*%
D11*
%TO.C,REF\u002A\u002A*%
X158555602Y-113227395D03*
X145628626Y-115767533D03*
%TD*%
D12*
%TO.C,D14*%
X188732646Y-99881495D03*
X192032654Y-99881465D03*
%TD*%
D10*
%TO.C,REF\u002A\u002A*%
X264706497Y-85231530D03*
X276706514Y-87431360D03*
%TD*%
D12*
%TO.C,D14*%
X71996433Y-80381489D03*
X75296441Y-80381459D03*
%TD*%
D10*
%TO.C,REF\u002A\u002A*%
X147970013Y-46231560D03*
X159970030Y-48431390D03*
%TD*%
D12*
%TO.C,D14*%
X227644646Y-99881495D03*
X230944654Y-99881465D03*
%TD*%
D10*
%TO.C,REF\u002A\u002A*%
X89602497Y-104687530D03*
X101602514Y-106887360D03*
%TD*%
D11*
%TO.C,REF\u002A\u002A*%
X255835333Y-74271387D03*
X242908357Y-76811525D03*
%TD*%
D12*
%TO.C,D14*%
X188732194Y-60881490D03*
X192032202Y-60881460D03*
%TD*%
D11*
%TO.C,REF\u002A\u002A*%
X216923118Y-54771424D03*
X203996142Y-57311562D03*
%TD*%
%TO.C,REF\u002A\u002A*%
X236379335Y-74271387D03*
X223452359Y-76811525D03*
%TD*%
%TO.C,REF\u002A\u002A*%
X197467333Y-74271387D03*
X184540357Y-76811525D03*
%TD*%
D12*
%TO.C,D14*%
X149820646Y-99881495D03*
X153120654Y-99881465D03*
%TD*%
%TO.C,D14*%
X208188434Y-80381488D03*
X211488442Y-80381458D03*
%TD*%
%TO.C,D14*%
X247100646Y-99881495D03*
X250400654Y-99881465D03*
%TD*%
D11*
%TO.C,REF\u002A\u002A*%
X236379602Y-113227396D03*
X223452626Y-115767534D03*
%TD*%
D12*
%TO.C,D14*%
X71996646Y-99881496D03*
X75296654Y-99881466D03*
%TD*%
D10*
%TO.C,REF\u002A\u002A*%
X109058497Y-85231530D03*
X121058514Y-87431360D03*
%TD*%
%TO.C,REF\u002A\u002A*%
X225794230Y-65731522D03*
X237794247Y-67931352D03*
%TD*%
%TO.C,REF\u002A\u002A*%
X109058228Y-65731522D03*
X121058245Y-67931352D03*
%TD*%
%TO.C,REF\u002A\u002A*%
X128514013Y-46231560D03*
X140514030Y-48431390D03*
%TD*%
D11*
%TO.C,REF\u002A\u002A*%
X236379602Y-93771395D03*
X223452626Y-96311533D03*
%TD*%
D12*
%TO.C,D14*%
X91452433Y-80381489D03*
X94752441Y-80381459D03*
%TD*%
D10*
%TO.C,REF\u002A\u002A*%
X109058497Y-104687530D03*
X121058514Y-106887360D03*
%TD*%
D11*
%TO.C,REF\u002A\u002A*%
X80731602Y-113227395D03*
X67804626Y-115767533D03*
%TD*%
D12*
%TO.C,D14*%
X247100194Y-60881489D03*
X250400202Y-60881459D03*
%TD*%
D10*
%TO.C,REF\u002A\u002A*%
X245250497Y-85231530D03*
X257250514Y-87431360D03*
%TD*%
D12*
%TO.C,D14*%
X52540194Y-60881489D03*
X55840202Y-60881459D03*
%TD*%
D13*
%TO.C,REF\u002A\u002A*%
X241142513Y-87679547D03*
X241142513Y-89179547D03*
D14*
X246242513Y-89179547D03*
D15*
X246242513Y-87679547D03*
%TD*%
D13*
%TO.C,REF\u002A\u002A*%
X202230030Y-48679608D03*
X202230030Y-50179608D03*
D14*
X207330030Y-50179608D03*
D15*
X207330030Y-48679608D03*
%TD*%
D16*
%TO.C,REF\u002A\u002A*%
X42760013Y-50150558D03*
X42760013Y-52050558D03*
X40885013Y-51100558D03*
%TD*%
D13*
%TO.C,REF\u002A\u002A*%
X260598028Y-48679577D03*
X260598028Y-50179577D03*
D14*
X265698028Y-50179577D03*
D15*
X265698028Y-48679577D03*
%TD*%
D17*
%TO.C,REF\u002A\u002A*%
X41882508Y-46225551D03*
X44382518Y-46225544D03*
X46882501Y-46225555D03*
%TD*%
D13*
%TO.C,REF\u002A\u002A*%
X85494246Y-68179539D03*
X85494246Y-69679539D03*
D14*
X90594246Y-69679539D03*
D15*
X90594246Y-68179539D03*
%TD*%
D13*
%TO.C,REF\u002A\u002A*%
X143862513Y-107135608D03*
X143862513Y-108635608D03*
D14*
X148962513Y-108635608D03*
D15*
X148962513Y-107135608D03*
%TD*%
D13*
%TO.C,REF\u002A\u002A*%
X241142513Y-107135608D03*
X241142513Y-108635608D03*
D14*
X246242513Y-108635608D03*
D15*
X246242513Y-107135608D03*
%TD*%
D13*
%TO.C,REF\u002A\u002A*%
X104950029Y-48679577D03*
X104950029Y-50179577D03*
D14*
X110050029Y-50179577D03*
D15*
X110050029Y-48679577D03*
%TD*%
D13*
%TO.C,REF\u002A\u002A*%
X66038513Y-87679608D03*
X66038513Y-89179608D03*
D14*
X71138513Y-89179608D03*
D15*
X71138513Y-87679608D03*
%TD*%
D13*
%TO.C,REF\u002A\u002A*%
X260598513Y-87679607D03*
X260598513Y-89179607D03*
D14*
X265698513Y-89179607D03*
D15*
X265698513Y-87679607D03*
%TD*%
D13*
%TO.C,REF\u002A\u002A*%
X124406513Y-107135547D03*
X124406513Y-108635547D03*
D14*
X129506513Y-108635547D03*
D15*
X129506513Y-107135547D03*
%TD*%
D13*
%TO.C,REF\u002A\u002A*%
X241142244Y-68179508D03*
X241142244Y-69679508D03*
D14*
X246242244Y-69679508D03*
D15*
X246242244Y-68179508D03*
%TD*%
D18*
%TO.C,REF\u002A\u002A*%
X20442513Y-54640559D03*
X18727573Y-55264743D03*
%TD*%
D13*
%TO.C,REF\u002A\u002A*%
X182774244Y-68179509D03*
X182774244Y-69679509D03*
D14*
X187874244Y-69679509D03*
D15*
X187874244Y-68179509D03*
%TD*%
D13*
%TO.C,REF\u002A\u002A*%
X202230244Y-68179508D03*
X202230244Y-69679508D03*
D14*
X207330244Y-69679508D03*
D15*
X207330244Y-68179508D03*
%TD*%
D13*
%TO.C,REF\u002A\u002A*%
X124406029Y-48679608D03*
X124406029Y-50179608D03*
D14*
X129506029Y-50179608D03*
D15*
X129506029Y-48679608D03*
%TD*%
D13*
%TO.C,REF\u002A\u002A*%
X46582514Y-87679547D03*
X46582514Y-89179547D03*
D14*
X51682514Y-89179547D03*
D15*
X51682514Y-87679547D03*
%TD*%
D13*
%TO.C,REF\u002A\u002A*%
X124406513Y-87679547D03*
X124406513Y-89179547D03*
D14*
X129506513Y-89179547D03*
D15*
X129506513Y-87679547D03*
%TD*%
D18*
%TO.C,REF\u002A\u002A*%
X20442513Y-57180559D03*
X18727573Y-57804743D03*
%TD*%
D13*
%TO.C,REF\u002A\u002A*%
X163318513Y-107135607D03*
X163318513Y-108635607D03*
D14*
X168418513Y-108635607D03*
D15*
X168418513Y-107135607D03*
%TD*%
D13*
%TO.C,REF\u002A\u002A*%
X182774513Y-107135547D03*
X182774513Y-108635547D03*
D14*
X187874513Y-108635547D03*
D15*
X187874513Y-107135547D03*
%TD*%
D13*
%TO.C,REF\u002A\u002A*%
X104950244Y-68179508D03*
X104950244Y-69679508D03*
D14*
X110050244Y-69679508D03*
D15*
X110050244Y-68179508D03*
%TD*%
D13*
%TO.C,REF\u002A\u002A*%
X221686513Y-107135547D03*
X221686513Y-108635547D03*
D14*
X226786513Y-108635547D03*
D15*
X226786513Y-107135547D03*
%TD*%
D18*
%TO.C,REF\u002A\u002A*%
X20442513Y-47020559D03*
X18727573Y-47644743D03*
%TD*%
D13*
%TO.C,REF\u002A\u002A*%
X221686244Y-68179507D03*
X221686244Y-69679507D03*
D14*
X226786244Y-69679507D03*
D15*
X226786244Y-68179507D03*
%TD*%
D13*
%TO.C,REF\u002A\u002A*%
X260598244Y-68179508D03*
X260598244Y-69679508D03*
D14*
X265698244Y-69679508D03*
D15*
X265698244Y-68179508D03*
%TD*%
D13*
%TO.C,REF\u002A\u002A*%
X163318029Y-48679608D03*
X163318029Y-50179608D03*
D14*
X168418029Y-50179608D03*
D15*
X168418029Y-48679608D03*
%TD*%
D18*
%TO.C,REF\u002A\u002A*%
X20442513Y-49560559D03*
X18727573Y-50184743D03*
%TD*%
D13*
%TO.C,REF\u002A\u002A*%
X163318512Y-87679547D03*
X163318512Y-89179547D03*
D14*
X168418512Y-89179547D03*
D15*
X168418512Y-87679547D03*
%TD*%
D18*
%TO.C,REF\u002A\u002A*%
X20442512Y-59720559D03*
X18727572Y-60344743D03*
%TD*%
D13*
%TO.C,REF\u002A\u002A*%
X182774513Y-87679547D03*
X182774513Y-89179547D03*
D14*
X187874513Y-89179547D03*
D15*
X187874513Y-87679547D03*
%TD*%
D19*
%TO.C,REF\u002A\u002A*%
X31336300Y-67211088D03*
X29511300Y-67211090D03*
%TD*%
D13*
%TO.C,REF\u002A\u002A*%
X85494029Y-48679577D03*
X85494029Y-50179577D03*
D14*
X90594029Y-50179577D03*
D15*
X90594029Y-48679577D03*
%TD*%
D13*
%TO.C,REF\u002A\u002A*%
X104950514Y-107135608D03*
X104950514Y-108635608D03*
D14*
X110050514Y-108635608D03*
D15*
X110050514Y-107135608D03*
%TD*%
D13*
%TO.C,REF\u002A\u002A*%
X221686513Y-87679547D03*
X221686513Y-89179547D03*
D14*
X226786513Y-89179547D03*
D15*
X226786513Y-87679547D03*
%TD*%
D13*
%TO.C,REF\u002A\u002A*%
X221686029Y-48679608D03*
X221686029Y-50179608D03*
D14*
X226786029Y-50179608D03*
D15*
X226786029Y-48679608D03*
%TD*%
D13*
%TO.C,REF\u002A\u002A*%
X124406244Y-68179539D03*
X124406244Y-69679539D03*
D14*
X129506244Y-69679539D03*
D15*
X129506244Y-68179539D03*
%TD*%
D13*
%TO.C,REF\u002A\u002A*%
X46582513Y-107135558D03*
X46582513Y-108635558D03*
D14*
X51682513Y-108635558D03*
D15*
X51682513Y-107135558D03*
%TD*%
D13*
%TO.C,REF\u002A\u002A*%
X202230513Y-107135547D03*
X202230513Y-108635547D03*
D14*
X207330513Y-108635547D03*
D15*
X207330513Y-107135547D03*
%TD*%
D13*
%TO.C,REF\u002A\u002A*%
X202230514Y-87679608D03*
X202230514Y-89179608D03*
D14*
X207330514Y-89179608D03*
D15*
X207330514Y-87679608D03*
%TD*%
D13*
%TO.C,REF\u002A\u002A*%
X260598512Y-107135547D03*
X260598512Y-108635547D03*
D14*
X265698512Y-108635547D03*
D15*
X265698512Y-107135547D03*
%TD*%
D13*
%TO.C,REF\u002A\u002A*%
X85494513Y-87679547D03*
X85494513Y-89179547D03*
D14*
X90594513Y-89179547D03*
D15*
X90594513Y-87679547D03*
%TD*%
D13*
%TO.C,REF\u002A\u002A*%
X182774029Y-48679608D03*
X182774029Y-50179608D03*
D14*
X187874029Y-50179608D03*
D15*
X187874029Y-48679608D03*
%TD*%
D13*
%TO.C,REF\u002A\u002A*%
X143862244Y-68179508D03*
X143862244Y-69679508D03*
D14*
X148962244Y-69679508D03*
D15*
X148962244Y-68179508D03*
%TD*%
D13*
%TO.C,REF\u002A\u002A*%
X66038512Y-107135547D03*
X66038512Y-108635547D03*
D14*
X71138512Y-108635547D03*
D15*
X71138512Y-107135547D03*
%TD*%
D18*
%TO.C,REF\u002A\u002A*%
X20442513Y-52100559D03*
X18727573Y-52724743D03*
%TD*%
D13*
%TO.C,REF\u002A\u002A*%
X143862512Y-87679547D03*
X143862512Y-89179547D03*
D14*
X148962512Y-89179547D03*
D15*
X148962512Y-87679547D03*
%TD*%
D13*
%TO.C,REF\u002A\u002A*%
X143862029Y-48679577D03*
X143862029Y-50179577D03*
D14*
X148962029Y-50179577D03*
D15*
X148962029Y-48679577D03*
%TD*%
D13*
%TO.C,REF\u002A\u002A*%
X104950514Y-87679608D03*
X104950514Y-89179608D03*
D14*
X110050514Y-89179608D03*
D15*
X110050514Y-87679608D03*
%TD*%
D16*
%TO.C,REF\u002A\u002A*%
X42760013Y-54150558D03*
X42760013Y-56050558D03*
X40885013Y-55100558D03*
%TD*%
D20*
%TO.C,REF\u002A\u002A*%
X43123799Y-66298589D03*
X43123801Y-68123589D03*
%TD*%
D13*
%TO.C,REF\u002A\u002A*%
X163318244Y-68179539D03*
X163318244Y-69679539D03*
D14*
X168418244Y-69679539D03*
D15*
X168418244Y-68179539D03*
%TD*%
D13*
%TO.C,REF\u002A\u002A*%
X46582029Y-48679577D03*
X46582029Y-50179577D03*
D14*
X51682029Y-50179577D03*
D15*
X51682029Y-48679577D03*
%TD*%
D16*
%TO.C,REF\u002A\u002A*%
X42760014Y-58150559D03*
X42760014Y-60050559D03*
X40885014Y-59100559D03*
%TD*%
D13*
%TO.C,REF\u002A\u002A*%
X66038244Y-68179539D03*
X66038244Y-69679539D03*
D14*
X71138244Y-69679539D03*
D15*
X71138244Y-68179539D03*
%TD*%
D13*
%TO.C,REF\u002A\u002A*%
X66038029Y-48679576D03*
X66038029Y-50179576D03*
D14*
X71138029Y-50179576D03*
D15*
X71138029Y-48679576D03*
%TD*%
D18*
%TO.C,REF\u002A\u002A*%
X20442513Y-62260559D03*
X18727573Y-62884743D03*
%TD*%
D13*
%TO.C,REF\u002A\u002A*%
X85494513Y-107135608D03*
X85494513Y-108635608D03*
D14*
X90594513Y-108635608D03*
D15*
X90594513Y-107135608D03*
%TD*%
D13*
%TO.C,REF\u002A\u002A*%
X241142029Y-48679578D03*
X241142029Y-50179578D03*
D14*
X246242029Y-50179578D03*
D15*
X246242029Y-48679578D03*
%TD*%
D13*
%TO.C,REF\u002A\u002A*%
X46582244Y-68179508D03*
X46582244Y-69679508D03*
D14*
X51682244Y-69679508D03*
D15*
X51682244Y-68179508D03*
%TD*%
M02*
