M48
; DRILL file {KiCad 9.0.2+dfsg-1} date 2025-11-03T11:46:03-0500
; FORMAT={-:-/ absolute / metric / decimal}
; #@! TF.CreationDate,2025-11-03T11:46:03-05:00
; #@! TF.GenerationSoftware,Kicad,Pcbnew,9.0.2+dfsg-1
; #@! TF.FileFunction,Plated,1,2,PTH
FMAT,2
METRIC
; #@! TA.AperFunction,Plated,PTH,ViaDrill
T1C0.300
; #@! TA.AperFunction,Plated,PTH,ComponentDrill
T2C0.991
; #@! TA.AperFunction,Plated,PTH,ComponentDrill
T3C1.000
; #@! TA.AperFunction,Plated,PTH,ComponentDrill
T4C1.092
; #@! TA.AperFunction,Plated,PTH,ComponentDrill
T5C1.100
%
G90
G05
T1
X18.053Y-56.58
X18.053Y-59.192
X18.053Y-61.66
X20.68Y-65.466
X23.753Y-65.466
X26.593Y-65.466
X30.19Y-90.9
X30.573Y-68.621
X31.95Y-63.06
X32.092Y-60.118
X33.071Y-60.881
X35.572Y-64.833
X37.973Y-69.221
X39.279Y-66.104
X39.723Y-56.241
X40.88Y-48.98
X41.963Y-65.281
X42.143Y-52.381
X43.18Y-53.05
X43.76Y-55.97
X43.967Y-43.855
X45.71Y-63.81
X48.04Y-117.76
X49.929Y-44.532
X49.943Y-63.841
X49.963Y-83.381
X49.963Y-102.881
X50.97Y-52.58
X50.98Y-90.94
X52.324Y-86.509
X52.375Y-47.338
X52.376Y-105.794
X52.862Y-68.003
X55.09Y-48.7
X57.1Y-103.91
X58.39Y-65.405
X59.4Y-89.71
X62.673Y-66.07
X62.74Y-105.093
X62.777Y-96.301
X62.777Y-115.3
X64.521Y-65.605
X66.288Y-47.401
X66.846Y-60.086
X69.355Y-44.532
X69.463Y-63.951
X69.463Y-102.861
X69.52Y-53.86
X69.533Y-83.311
X69.94Y-92.45
X71.831Y-47.338
X71.832Y-66.838
X71.832Y-86.338
X71.832Y-105.794
X76.28Y-103.88
X77.32Y-50.53
X77.85Y-64.29
X79.0Y-89.73
X80.396Y-99.125
X80.402Y-103.3
X82.232Y-69.93
X85.86Y-47.28
X88.783Y-83.401
X88.863Y-63.861
X88.906Y-44.532
X88.97Y-53.72
X88.983Y-102.881
X89.5Y-92.49
X91.281Y-105.829
X91.287Y-47.338
X91.288Y-66.838
X91.288Y-86.338
X96.208Y-103.561
X96.66Y-50.7
X96.66Y-64.603
X99.205Y-79.645
X99.319Y-89.25
X99.62Y-60.279
X99.621Y-64.53
X101.689Y-116.119
X105.341Y-47.241
X105.55Y-55.5
X106.408Y-118.783
X108.273Y-83.421
X108.388Y-44.532
X108.433Y-64.032
X108.433Y-102.811
X108.74Y-53.62
X109.14Y-91.75
X109.16Y-71.7
X110.691Y-47.509
X110.744Y-66.838
X110.753Y-105.821
X110.757Y-86.361
X116.15Y-103.96
X116.37Y-84.259
X118.01Y-50.67
X118.16Y-89.69
X118.22Y-109.11
X118.35Y-70.24
X118.736Y-100.255
X118.771Y-103.23
X121.145Y-95.29
X125.048Y-47.157
X127.41Y-93.0
X127.63Y-73.32
X127.723Y-83.401
X127.763Y-102.861
X127.853Y-63.911
X127.88Y-53.69
X127.956Y-44.532
X128.55Y-111.33
X130.199Y-47.338
X130.2Y-86.338
X130.2Y-105.794
X130.253Y-66.929
X137.39Y-89.69
X137.49Y-70.13
X137.53Y-50.6
X138.051Y-100.28
X138.461Y-103.61
X138.636Y-64.21
X138.926Y-59.655
X144.462Y-55.1
X144.71Y-47.02
X147.193Y-83.361
X147.2Y-73.43
X147.213Y-102.901
X147.243Y-63.861
X147.26Y-53.62
X147.26Y-44.532
X147.28Y-92.94
X149.56Y-106.038
X149.603Y-47.509
X149.653Y-86.352
X149.655Y-66.839
X152.64Y-97.3
X156.76Y-89.66
X157.0Y-70.24
X157.09Y-50.74
X157.13Y-109.1
X158.021Y-64.4
X160.056Y-57.06
X160.057Y-116.119
X164.36Y-47.05
X164.776Y-99.0
X164.776Y-99.0
X166.32Y-53.83
X166.39Y-73.38
X166.552Y-44.532
X166.553Y-83.401
X166.73Y-92.73
X166.753Y-63.931
X166.823Y-102.841
X167.842Y-110.138
X169.059Y-47.509
X169.06Y-86.509
X169.112Y-66.838
X169.112Y-105.794
X174.601Y-103.559
X176.46Y-70.19
X176.58Y-50.74
X176.8Y-89.69
X176.855Y-61.735
X177.38Y-103.21
X177.385Y-100.205
X177.59Y-64.4
X183.91Y-46.88
X184.07Y-113.78
X185.99Y-92.82
X186.053Y-102.901
X186.143Y-64.001
X186.143Y-83.431
X186.243Y-44.532
X186.38Y-73.38
X186.55Y-53.34
X188.565Y-47.35
X188.568Y-66.838
X188.568Y-86.338
X188.568Y-105.794
X193.6Y-69.95
X196.03Y-50.81
X196.13Y-100.49
X196.17Y-89.69
X196.49Y-109.1
X196.67Y-103.4
X198.883Y-81.616
X198.968Y-77.163
X203.45Y-46.88
X205.4Y-73.46
X205.593Y-83.321
X205.633Y-63.971
X205.638Y-44.532
X205.72Y-53.79
X205.833Y-102.811
X205.85Y-92.88
X206.54Y-110.19
X207.972Y-86.509
X208.023Y-47.338
X208.024Y-66.838
X208.024Y-105.794
X212.89Y-69.75
X215.95Y-89.72
X216.0Y-109.18
X216.095Y-60.685
X216.14Y-64.39
X216.15Y-50.49
X218.425Y-97.685
X219.881Y-86.012
X222.35Y-94.21
X222.556Y-46.766
X223.143Y-60.327
X224.87Y-112.37
X225.019Y-44.532
X225.1Y-53.79
X225.133Y-102.831
X225.153Y-63.971
X225.38Y-73.29
X225.4Y-92.85
X227.444Y-105.929
X227.454Y-66.946
X227.479Y-47.338
X227.48Y-86.338
X231.87Y-64.22
X232.61Y-103.561
X234.26Y-50.67
X234.415Y-100.575
X235.44Y-103.54
X237.02Y-65.47
X240.8Y-111.63
X242.599Y-60.327
X242.67Y-46.56
X243.691Y-119.938
X244.384Y-64.032
X244.463Y-44.521
X244.48Y-53.86
X244.493Y-102.831
X244.533Y-83.341
X245.51Y-71.86
X246.935Y-47.338
X246.936Y-86.338
X246.936Y-105.794
X246.991Y-66.933
X249.14Y-107.39
X252.346Y-83.85
X252.4Y-64.43
X254.03Y-50.63
X257.337Y-89.7
X261.89Y-46.76
X263.853Y-102.851
X263.913Y-44.501
X264.003Y-83.361
X264.033Y-64.032
X264.67Y-53.48
X264.998Y-110.171
X265.04Y-72.51
X265.16Y-90.667
X266.383Y-47.378
X266.392Y-86.338
X266.392Y-105.794
X266.402Y-66.856
X270.9Y-104.18
X271.22Y-84.77
X271.24Y-66.36
T2
X50.38Y-60.882
X50.38Y-80.382
X50.381Y-119.338
X50.381Y-99.882
X58.0Y-60.881
X58.0Y-80.381
X58.001Y-119.337
X58.001Y-99.881
X69.836Y-60.882
X69.836Y-80.382
X69.837Y-99.882
X69.837Y-119.338
X77.456Y-60.881
X77.456Y-80.381
X77.457Y-99.881
X77.457Y-119.337
X89.292Y-60.882
X89.292Y-80.382
X89.293Y-99.882
X89.293Y-119.338
X96.912Y-60.881
X96.912Y-80.381
X96.913Y-99.881
X96.913Y-119.337
X108.748Y-60.882
X108.748Y-80.382
X108.749Y-99.882
X108.749Y-119.338
X116.368Y-60.881
X116.368Y-80.381
X116.369Y-99.881
X116.369Y-119.337
X128.204Y-60.882
X128.204Y-80.382
X128.205Y-99.882
X128.205Y-119.338
X135.824Y-60.881
X135.824Y-80.381
X135.825Y-99.881
X135.825Y-119.337
X147.66Y-60.882
X147.66Y-80.382
X147.661Y-99.882
X147.661Y-119.338
X155.28Y-60.881
X155.28Y-80.381
X155.281Y-99.881
X155.281Y-119.337
X167.116Y-60.882
X167.116Y-80.382
X167.117Y-99.882
X167.117Y-119.338
X174.736Y-60.881
X174.736Y-80.381
X174.737Y-99.881
X174.737Y-119.337
X186.572Y-60.882
X186.572Y-80.382
X186.573Y-99.882
X186.573Y-119.338
X194.192Y-60.881
X194.192Y-80.381
X194.193Y-99.881
X194.193Y-119.337
X206.028Y-60.882
X206.028Y-80.382
X206.029Y-99.882
X206.029Y-119.338
X213.648Y-60.881
X213.648Y-80.381
X213.649Y-99.881
X213.649Y-119.337
X225.484Y-60.882
X225.484Y-80.382
X225.485Y-99.882
X225.485Y-119.338
X233.104Y-60.881
X233.104Y-80.381
X233.105Y-99.881
X233.105Y-119.337
X244.94Y-60.882
X244.94Y-80.382
X244.941Y-99.882
X244.941Y-119.338
X252.56Y-60.881
X252.56Y-80.381
X252.561Y-99.881
X252.561Y-119.337
X264.396Y-60.882
X264.396Y-80.382
X264.397Y-119.338
X264.397Y-99.882
X272.016Y-60.881
X272.016Y-80.381
X272.017Y-119.337
X272.017Y-99.881
T3
X26.614Y-46.241
X29.154Y-46.241
X31.694Y-46.241
X34.234Y-46.241
T4
X22.804Y-43.701
X22.804Y-46.241
X22.804Y-51.321
X22.804Y-53.861
X22.804Y-56.401
X22.804Y-58.941
X22.804Y-48.781
X22.804Y-61.481
X38.044Y-43.701
X38.044Y-46.241
X38.044Y-48.781
X38.044Y-51.321
X38.044Y-58.941
X38.044Y-61.481
X38.044Y-53.861
X38.044Y-56.401
T5
X23.718Y-94.51
X23.718Y-100.771
X23.718Y-79.28
X26.723Y-94.511
X26.723Y-100.771
X26.728Y-107.836
X34.213Y-94.511
X34.213Y-100.771
X34.218Y-107.836
X37.218Y-94.511
X37.218Y-100.771
X37.218Y-79.281
M30
