%TF.GenerationSoftware,KiCad,Pcbnew,9.0.2+dfsg-1*%
%TF.CreationDate,2025-11-03T11:46:04-05:00*%
%TF.ProjectId,4x12,34783132-2e6b-4696-9361-645f70636258,rev?*%
%TF.SameCoordinates,Original*%
%TF.FileFunction,Soldermask,Bot*%
%TF.FilePolarity,Negative*%
%FSLAX46Y46*%
G04 Gerber Fmt 4.6, Leading zero omitted, Abs format (unit mm)*
G04 Created by KiCad (PCBNEW 9.0.2+dfsg-1) date 2025-11-03 11:46:04*
%MOMM*%
%LPD*%
G01*
G04 APERTURE LIST*
G04 Aperture macros list*
%AMRoundRect*
0 Rectangle with rounded corners*
0 $1 Rounding radius*
0 $2 $3 $4 $5 $6 $7 $8 $9 X,Y pos of 4 corners*
0 Add a 4 corners polygon primitive as box body*
4,1,4,$2,$3,$4,$5,$6,$7,$8,$9,$2,$3,0*
0 Add four circle primitives for the rounded corners*
1,1,$1+$1,$2,$3*
1,1,$1+$1,$4,$5*
1,1,$1+$1,$6,$7*
1,1,$1+$1,$8,$9*
0 Add four rect primitives between the rounded corners*
20,1,$1+$1,$2,$3,$4,$5,0*
20,1,$1+$1,$4,$5,$6,$7,0*
20,1,$1+$1,$6,$7,$8,$9,0*
20,1,$1+$1,$8,$9,$2,$3,0*%
%AMOutline5P*
0 Free polygon, 5 corners , with rotation*
0 The origin of the aperture is its center*
0 number of corners: always 5*
0 $1 to $10 corner X, Y*
0 $11 Rotation angle, in degrees counterclockwise*
0 create outline with 5 corners*
4,1,5,$1,$2,$3,$4,$5,$6,$7,$8,$9,$10,$1,$2,$11*%
%AMOutline6P*
0 Free polygon, 6 corners , with rotation*
0 The origin of the aperture is its center*
0 number of corners: always 6*
0 $1 to $12 corner X, Y*
0 $13 Rotation angle, in degrees counterclockwise*
0 create outline with 6 corners*
4,1,6,$1,$2,$3,$4,$5,$6,$7,$8,$9,$10,$11,$12,$1,$2,$13*%
%AMOutline7P*
0 Free polygon, 7 corners , with rotation*
0 The origin of the aperture is its center*
0 number of corners: always 7*
0 $1 to $14 corner X, Y*
0 $15 Rotation angle, in degrees counterclockwise*
0 create outline with 7 corners*
4,1,7,$1,$2,$3,$4,$5,$6,$7,$8,$9,$10,$11,$12,$13,$14,$1,$2,$15*%
%AMOutline8P*
0 Free polygon, 8 corners , with rotation*
0 The origin of the aperture is its center*
0 number of corners: always 8*
0 $1 to $16 corner X, Y*
0 $17 Rotation angle, in degrees counterclockwise*
0 create outline with 8 corners*
4,1,8,$1,$2,$3,$4,$5,$6,$7,$8,$9,$10,$11,$12,$13,$14,$15,$16,$1,$2,$17*%
%AMFreePoly0*
4,1,23,0.500000,-0.750000,0.000000,-0.750000,0.000000,-0.745722,-0.065263,-0.745722,-0.191342,-0.711940,-0.304381,-0.646677,-0.396677,-0.554381,-0.461940,-0.441342,-0.495722,-0.315263,-0.495722,-0.250000,-0.500000,-0.250000,-0.500000,0.250000,-0.495722,0.250000,-0.495722,0.315263,-0.461940,0.441342,-0.396677,0.554381,-0.304381,0.646677,-0.191342,0.711940,-0.065263,0.745722,0.000000,0.745722,
0.000000,0.750000,0.500000,0.750000,0.500000,-0.750000,0.500000,-0.750000,$1*%
%AMFreePoly1*
4,1,23,0.000000,0.745722,0.065263,0.745722,0.191342,0.711940,0.304381,0.646677,0.396677,0.554381,0.461940,0.441342,0.495722,0.315263,0.495722,0.250000,0.500000,0.250000,0.500000,-0.250000,0.495722,-0.250000,0.495722,-0.315263,0.461940,-0.441342,0.396677,-0.554381,0.304381,-0.646677,0.191342,-0.711940,0.065263,-0.745722,0.000000,-0.745722,0.000000,-0.750000,-0.500000,-0.750000,
-0.500000,0.750000,0.000000,0.750000,0.000000,0.745722,0.000000,0.745722,$1*%
G04 Aperture macros list end*
%ADD10C,0.000000*%
%ADD11C,1.600000*%
%ADD12C,3.050000*%
%ADD13C,5.050000*%
%ADD14RoundRect,0.240000X-0.959988X-0.960012X0.960012X-0.959988X0.959988X0.960012X-0.960012X0.959988X0*%
%ADD15C,1.750000*%
%ADD16C,4.000000*%
%ADD17RoundRect,0.240000X0.959988X0.960012X-0.960012X0.959988X-0.959988X-0.960012X0.960012X-0.959988X0*%
%ADD18C,2.200000*%
%ADD19RoundRect,0.250000X-0.500003X-0.499997X0.499997X-0.500003X0.500003X0.499997X-0.499997X0.500003X0*%
%ADD20RoundRect,0.225000X-0.225002X-0.374999X0.224998X-0.375001X0.225002X0.374999X-0.224998X0.375001X0*%
%ADD21R,1.700000X1.700000*%
%ADD22C,1.700000*%
%ADD23C,1.752600*%
%ADD24R,1.752600X1.752600*%
%ADD25R,1.700000X0.820000*%
%ADD26Outline5P,-0.850000X0.410000X0.850000X0.410000X0.850000X0.000000X0.440000X-0.410000X-0.850000X-0.410000X0.000000*%
%ADD27Outline5P,-0.850000X0.410000X0.440000X0.410000X0.850000X0.000000X0.850000X-0.410000X-0.850000X-0.410000X0.000000*%
%ADD28RoundRect,0.150000X0.587500X0.150000X-0.587500X0.150000X-0.587500X-0.150000X0.587500X-0.150000X0*%
%ADD29C,0.800000*%
%ADD30RoundRect,0.200000X-0.300000X-0.925000X0.300000X-0.925000X0.300000X0.925000X-0.300000X0.925000X0*%
%ADD31RoundRect,0.228261X-0.821745X-0.821733X0.821733X-0.821745X0.821745X0.821733X-0.821733X0.821745X0*%
%ADD32RoundRect,0.250000X0.092760X0.512642X-0.400578X0.333081X-0.092760X-0.512642X0.400578X-0.333081X0*%
%ADD33RoundRect,0.250000X0.900006X0.899994X-0.899994X0.900006X-0.900006X-0.899994X0.899994X-0.900006X0*%
%ADD34FreePoly0,270.000000*%
%ADD35FreePoly1,270.000000*%
%ADD36RoundRect,0.250000X0.262500X0.450000X-0.262500X0.450000X-0.262500X-0.450000X0.262500X-0.450000X0*%
%ADD37RoundRect,0.250000X-0.450000X0.262500X-0.450000X-0.262500X0.450000X-0.262500X0.450000X0.262500X0*%
G04 APERTURE END LIST*
D10*
%TO.C,REF\u002A\u002A*%
G36*
X38793800Y-67361088D02*
G01*
X37293801Y-67361088D01*
X37293800Y-67061088D01*
X38793799Y-67061088D01*
X38793800Y-67361088D01*
G37*
G36*
X23553800Y-67361089D02*
G01*
X22053801Y-67361089D01*
X22053800Y-67061089D01*
X23553799Y-67061089D01*
X23553800Y-67361089D01*
G37*
G36*
X41333800Y-67361090D02*
G01*
X39833801Y-67361090D01*
X39833800Y-67061090D01*
X41333799Y-67061090D01*
X41333800Y-67361090D01*
G37*
G36*
X21013800Y-67361089D02*
G01*
X19513801Y-67361089D01*
X19513800Y-67061089D01*
X21013799Y-67061089D01*
X21013800Y-67361089D01*
G37*
G36*
X36253802Y-67361089D02*
G01*
X34753803Y-67361089D01*
X34753802Y-67061089D01*
X36253801Y-67061089D01*
X36253802Y-67361089D01*
G37*
G36*
X26093801Y-67361089D02*
G01*
X24593802Y-67361089D01*
X24593801Y-67061089D01*
X26093800Y-67061089D01*
X26093801Y-67361089D01*
G37*
%TD*%
D11*
%TO.C,REF\u002A\u002A*%
X146470370Y-76881528D03*
D12*
X151470223Y-65831474D03*
D13*
X151470302Y-71731468D03*
D12*
X156470244Y-67931397D03*
D14*
X147970228Y-65731522D03*
X159970245Y-67931352D03*
%TD*%
D15*
%TO.C,REF\u002A\u002A*%
X59270574Y-91231405D03*
D12*
X58000601Y-93771438D03*
D16*
X54190571Y-91231476D03*
D12*
X51650632Y-96311521D03*
D15*
X49110568Y-91231547D03*
D17*
X61275602Y-93771395D03*
X48348626Y-96311533D03*
%TD*%
D15*
%TO.C,REF\u002A\u002A*%
X253830090Y-52231435D03*
D12*
X252560117Y-54771468D03*
D16*
X248750087Y-52231506D03*
D12*
X246210148Y-57311551D03*
D15*
X243670084Y-52231577D03*
D17*
X255835118Y-54771425D03*
X242908142Y-57311563D03*
%TD*%
D11*
%TO.C,REF\u002A\u002A*%
X224294155Y-57381566D03*
D12*
X229294008Y-46331512D03*
D13*
X229294087Y-52231506D03*
D12*
X234294029Y-48431435D03*
D14*
X225794013Y-46231560D03*
X237794030Y-48431390D03*
%TD*%
D15*
%TO.C,REF\u002A\u002A*%
X117638305Y-71731397D03*
D12*
X116368332Y-74271430D03*
D16*
X112558302Y-71731468D03*
D12*
X110018363Y-76811513D03*
D15*
X107478299Y-71731539D03*
D17*
X119643333Y-74271387D03*
X106716357Y-76811525D03*
%TD*%
D18*
%TO.C,CiHole1*%
X161202513Y-81500559D03*
%TD*%
D15*
%TO.C,REF\u002A\u002A*%
X59270090Y-52231435D03*
D12*
X58000117Y-54771468D03*
D16*
X54190087Y-52231506D03*
D12*
X51650148Y-57311551D03*
D15*
X49110084Y-52231577D03*
D17*
X61275118Y-54771425D03*
X48348142Y-57311563D03*
%TD*%
D11*
%TO.C,REF\u002A\u002A*%
X185382155Y-57381567D03*
D12*
X190382008Y-46331513D03*
D13*
X190382087Y-52231507D03*
D12*
X195382029Y-48431436D03*
D14*
X186882013Y-46231561D03*
X198882030Y-48431391D03*
%TD*%
D19*
%TO.C,D14*%
X167116439Y-80381508D03*
D20*
X169276433Y-80381490D03*
X172576441Y-80381460D03*
D11*
X174736435Y-80381442D03*
%TD*%
D21*
%TO.C,REF\u002A\u002A*%
X26613801Y-46241089D03*
D22*
X29153801Y-46241089D03*
X31693801Y-46241089D03*
X34233801Y-46241088D03*
%TD*%
D15*
%TO.C,REF\u002A\u002A*%
X195462090Y-52231436D03*
D12*
X194192117Y-54771469D03*
D16*
X190382087Y-52231507D03*
D12*
X187842148Y-57311552D03*
D15*
X185302084Y-52231578D03*
D17*
X197467118Y-54771426D03*
X184540142Y-57311564D03*
%TD*%
D15*
%TO.C,REF\u002A\u002A*%
X156550090Y-52231435D03*
D12*
X155280117Y-54771468D03*
D16*
X151470087Y-52231506D03*
D12*
X148930148Y-57311551D03*
D15*
X146390084Y-52231577D03*
D17*
X158555118Y-54771425D03*
X145628142Y-57311563D03*
%TD*%
D11*
%TO.C,REF\u002A\u002A*%
X68646371Y-76881528D03*
D12*
X73646224Y-65831474D03*
D13*
X73646303Y-71731468D03*
D12*
X78646245Y-67931397D03*
D14*
X70146229Y-65731522D03*
X82146246Y-67931352D03*
%TD*%
D19*
%TO.C,D14*%
X69836200Y-60881507D03*
D20*
X71996194Y-60881489D03*
X75296202Y-60881459D03*
D11*
X77456196Y-60881441D03*
%TD*%
D19*
%TO.C,D14*%
X147660200Y-60881507D03*
D20*
X149820194Y-60881489D03*
X153120202Y-60881459D03*
D11*
X155280196Y-60881441D03*
%TD*%
D15*
%TO.C,REF\u002A\u002A*%
X273286574Y-110687405D03*
D12*
X272016601Y-113227438D03*
D16*
X268206571Y-110687476D03*
D12*
X265666632Y-115767521D03*
D15*
X263126568Y-110687547D03*
D17*
X275291602Y-113227395D03*
X262364626Y-115767533D03*
%TD*%
D11*
%TO.C,REF\u002A\u002A*%
X263206156Y-57381565D03*
D12*
X268206009Y-46331511D03*
D13*
X268206088Y-52231505D03*
D12*
X273206030Y-48431434D03*
D14*
X264706014Y-46231559D03*
X276706031Y-48431389D03*
%TD*%
D11*
%TO.C,REF\u002A\u002A*%
X224294639Y-96381536D03*
D12*
X229294492Y-85331482D03*
D13*
X229294571Y-91231476D03*
D12*
X234294513Y-87431405D03*
D14*
X225794497Y-85231530D03*
X237794514Y-87431360D03*
%TD*%
D18*
%TO.C,CiHole1*%
X63922513Y-61980558D03*
%TD*%
D23*
%TO.C,*%
X38043800Y-48781089D03*
%TD*%
D11*
%TO.C,REF\u002A\u002A*%
X204838155Y-57381565D03*
D12*
X209838008Y-46331511D03*
D13*
X209838087Y-52231505D03*
D12*
X214838029Y-48431434D03*
D14*
X206338013Y-46231559D03*
X218338030Y-48431389D03*
%TD*%
D23*
%TO.C,*%
X38043800Y-46241089D03*
%TD*%
D15*
%TO.C,REF\u002A\u002A*%
X156550305Y-71731397D03*
D12*
X155280332Y-74271430D03*
D16*
X151470302Y-71731468D03*
D12*
X148930363Y-76811513D03*
D15*
X146390299Y-71731539D03*
D17*
X158555333Y-74271387D03*
X145628357Y-76811525D03*
%TD*%
D15*
%TO.C,REF\u002A\u002A*%
X78726306Y-71731397D03*
D12*
X77456333Y-74271430D03*
D16*
X73646303Y-71731468D03*
D12*
X71106364Y-76811513D03*
D15*
X68566300Y-71731539D03*
D17*
X80731334Y-74271387D03*
X67804358Y-76811525D03*
%TD*%
D11*
%TO.C,REF\u002A\u002A*%
X165926155Y-57381567D03*
D12*
X170926008Y-46331513D03*
D13*
X170926087Y-52231507D03*
D12*
X175926029Y-48431436D03*
D14*
X167426013Y-46231561D03*
X179426030Y-48431391D03*
%TD*%
D19*
%TO.C,D14*%
X128204200Y-60881507D03*
D20*
X130364194Y-60881489D03*
X133664202Y-60881459D03*
D11*
X135824196Y-60881441D03*
%TD*%
%TO.C,REF\u002A\u002A*%
X146470639Y-96381536D03*
D12*
X151470492Y-85331482D03*
D13*
X151470571Y-91231476D03*
D12*
X156470513Y-87431405D03*
D14*
X147970497Y-85231530D03*
X159970514Y-87431360D03*
%TD*%
D15*
%TO.C,REF\u002A\u002A*%
X214918305Y-71731397D03*
D12*
X213648332Y-74271430D03*
D16*
X209838302Y-71731468D03*
D12*
X207298363Y-76811513D03*
D15*
X204758299Y-71731539D03*
D17*
X216923333Y-74271387D03*
X203996357Y-76811525D03*
%TD*%
D15*
%TO.C,REF\u002A\u002A*%
X273286091Y-52231434D03*
D12*
X272016118Y-54771467D03*
D16*
X268206088Y-52231505D03*
D12*
X265666149Y-57311550D03*
D15*
X263126085Y-52231576D03*
D17*
X275291119Y-54771424D03*
X262364143Y-57311562D03*
%TD*%
D19*
%TO.C,D14*%
X186572439Y-80381506D03*
D20*
X188732433Y-80381488D03*
X192032441Y-80381458D03*
D11*
X194192435Y-80381440D03*
%TD*%
D15*
%TO.C,REF\u002A\u002A*%
X137094090Y-52231435D03*
D12*
X135824117Y-54771468D03*
D16*
X132014087Y-52231506D03*
D12*
X129474148Y-57311551D03*
D15*
X126934084Y-52231577D03*
D17*
X139099118Y-54771425D03*
X126172142Y-57311563D03*
%TD*%
D11*
%TO.C,REF\u002A\u002A*%
X204838639Y-96381536D03*
D12*
X209838492Y-85331482D03*
D13*
X209838571Y-91231476D03*
D12*
X214838513Y-87431405D03*
D14*
X206338497Y-85231530D03*
X218338514Y-87431360D03*
%TD*%
D19*
%TO.C,D14*%
X50380439Y-80381507D03*
D20*
X52540433Y-80381489D03*
X55840441Y-80381459D03*
D11*
X58000435Y-80381441D03*
%TD*%
D19*
%TO.C,D14*%
X167116653Y-119337513D03*
D20*
X169276647Y-119337495D03*
X172576655Y-119337465D03*
D11*
X174736649Y-119337447D03*
%TD*%
%TO.C,REF\u002A\u002A*%
X49190639Y-115837536D03*
D12*
X54190492Y-104787482D03*
D13*
X54190571Y-110687476D03*
D12*
X59190513Y-106887405D03*
D14*
X50690497Y-104687530D03*
X62690514Y-106887360D03*
%TD*%
D11*
%TO.C,REF\u002A\u002A*%
X146470639Y-115837536D03*
D12*
X151470492Y-104787482D03*
D13*
X151470571Y-110687476D03*
D12*
X156470513Y-106887405D03*
D14*
X147970497Y-104687530D03*
X159970514Y-106887360D03*
%TD*%
D19*
%TO.C,D14*%
X225484200Y-60881507D03*
D20*
X227644194Y-60881489D03*
X230944202Y-60881459D03*
D11*
X233104196Y-60881441D03*
%TD*%
D23*
%TO.C,*%
X38043801Y-56401088D03*
%TD*%
D11*
%TO.C,REF\u002A\u002A*%
X49190370Y-76881528D03*
D12*
X54190223Y-65831474D03*
D13*
X54190302Y-71731468D03*
D12*
X59190244Y-67931397D03*
D14*
X50690228Y-65731522D03*
X62690245Y-67931352D03*
%TD*%
D15*
%TO.C,REF\u002A\u002A*%
X117638574Y-110687405D03*
D12*
X116368601Y-113227438D03*
D16*
X112558571Y-110687476D03*
D12*
X110018632Y-115767521D03*
D15*
X107478568Y-110687547D03*
D17*
X119643602Y-113227395D03*
X106716626Y-115767533D03*
%TD*%
D23*
%TO.C,*%
X38043801Y-53861089D03*
%TD*%
D18*
%TO.C,CiHole1*%
X19622513Y-118040558D03*
%TD*%
D19*
%TO.C,D14*%
X108748652Y-119337513D03*
D20*
X110908646Y-119337495D03*
X114208654Y-119337465D03*
D11*
X116368648Y-119337447D03*
%TD*%
D18*
%TO.C,CiHole1*%
X239202515Y-101170558D03*
%TD*%
D11*
%TO.C,REF\u002A\u002A*%
X165926371Y-76881528D03*
D12*
X170926224Y-65831474D03*
D13*
X170926303Y-71731468D03*
D12*
X175926245Y-67931397D03*
D14*
X167426229Y-65731522D03*
X179426246Y-67931352D03*
%TD*%
D11*
%TO.C,REF\u002A\u002A*%
X204838639Y-115837537D03*
D12*
X209838492Y-104787483D03*
D13*
X209838571Y-110687477D03*
D12*
X214838513Y-106887406D03*
D14*
X206338497Y-104687531D03*
X218338514Y-106887361D03*
%TD*%
D11*
%TO.C,REF\u002A\u002A*%
X204838370Y-76881528D03*
D12*
X209838223Y-65831474D03*
D13*
X209838302Y-71731468D03*
D12*
X214838244Y-67931397D03*
D14*
X206338228Y-65731522D03*
X218338245Y-67931352D03*
%TD*%
D11*
%TO.C,REF\u002A\u002A*%
X243750370Y-76881528D03*
D12*
X248750223Y-65831474D03*
D13*
X248750302Y-71731468D03*
D12*
X253750244Y-67931397D03*
D14*
X245250228Y-65731522D03*
X257250245Y-67931352D03*
%TD*%
D19*
%TO.C,D14*%
X147660440Y-80381507D03*
D20*
X149820434Y-80381489D03*
X153120442Y-80381459D03*
D11*
X155280436Y-80381441D03*
%TD*%
D19*
%TO.C,D14*%
X69836653Y-119337514D03*
D20*
X71996647Y-119337496D03*
X75296655Y-119337466D03*
D11*
X77456649Y-119337448D03*
%TD*%
D24*
%TO.C,*%
X22803800Y-43701089D03*
%TD*%
D23*
%TO.C,*%
X22803801Y-48781088D03*
%TD*%
D19*
%TO.C,D14*%
X108748201Y-60881507D03*
D20*
X110908195Y-60881489D03*
X114208203Y-60881459D03*
D11*
X116368197Y-60881441D03*
%TD*%
D15*
%TO.C,REF\u002A\u002A*%
X98182574Y-110687405D03*
D12*
X96912601Y-113227438D03*
D16*
X93102571Y-110687476D03*
D12*
X90562632Y-115767521D03*
D15*
X88022568Y-110687547D03*
D17*
X100187602Y-113227395D03*
X87260626Y-115767533D03*
%TD*%
D15*
%TO.C,REF\u002A\u002A*%
X214918574Y-91231405D03*
D12*
X213648601Y-93771438D03*
D16*
X209838571Y-91231476D03*
D12*
X207298632Y-96311521D03*
D15*
X204758568Y-91231547D03*
D17*
X216923602Y-93771395D03*
X203996626Y-96311533D03*
%TD*%
D19*
%TO.C,D14*%
X264396439Y-80381507D03*
D20*
X266556433Y-80381489D03*
X269856441Y-80381459D03*
D11*
X272016435Y-80381441D03*
%TD*%
D19*
%TO.C,D14*%
X108748652Y-99881512D03*
D20*
X110908646Y-99881494D03*
X114208654Y-99881464D03*
D11*
X116368648Y-99881446D03*
%TD*%
%TO.C,REF\u002A\u002A*%
X263206370Y-76881528D03*
D12*
X268206223Y-65831474D03*
D13*
X268206302Y-71731468D03*
D12*
X273206244Y-67931397D03*
D14*
X264706228Y-65731522D03*
X276706245Y-67931352D03*
%TD*%
D23*
%TO.C,*%
X22803800Y-53861089D03*
%TD*%
D11*
%TO.C,REF\u002A\u002A*%
X88102370Y-76881528D03*
D12*
X93102223Y-65831474D03*
D13*
X93102302Y-71731468D03*
D12*
X98102244Y-67931397D03*
D14*
X89602228Y-65731522D03*
X101602245Y-67931352D03*
%TD*%
D15*
%TO.C,REF\u002A\u002A*%
X176006090Y-52231436D03*
D12*
X174736117Y-54771469D03*
D16*
X170926087Y-52231507D03*
D12*
X168386148Y-57311552D03*
D15*
X165846084Y-52231578D03*
D17*
X178011118Y-54771426D03*
X165084142Y-57311564D03*
%TD*%
D15*
%TO.C,REF\u002A\u002A*%
X273286574Y-91231405D03*
D12*
X272016601Y-93771438D03*
D16*
X268206571Y-91231476D03*
D12*
X265666632Y-96311521D03*
D15*
X263126568Y-91231547D03*
D17*
X275291602Y-93771395D03*
X262364626Y-96311533D03*
%TD*%
D11*
%TO.C,REF\u002A\u002A*%
X185382640Y-96381536D03*
D12*
X190382493Y-85331482D03*
D13*
X190382572Y-91231476D03*
D12*
X195382514Y-87431405D03*
D14*
X186882498Y-85231530D03*
X198882515Y-87431360D03*
%TD*%
D15*
%TO.C,REF\u002A\u002A*%
X176006574Y-91231405D03*
D12*
X174736601Y-93771438D03*
D16*
X170926571Y-91231476D03*
D12*
X168386632Y-96311521D03*
D15*
X165846568Y-91231547D03*
D17*
X178011602Y-93771395D03*
X165084626Y-96311533D03*
%TD*%
D11*
%TO.C,REF\u002A\u002A*%
X68646639Y-115837536D03*
D12*
X73646492Y-104787482D03*
D13*
X73646571Y-110687476D03*
D12*
X78646513Y-106887405D03*
D14*
X70146497Y-104687530D03*
X82146514Y-106887360D03*
%TD*%
D11*
%TO.C,REF\u002A\u002A*%
X127014639Y-96381535D03*
D12*
X132014492Y-85331481D03*
D13*
X132014571Y-91231475D03*
D12*
X137014513Y-87431404D03*
D14*
X128514497Y-85231529D03*
X140514514Y-87431359D03*
%TD*%
D19*
%TO.C,D14*%
X244940439Y-80381507D03*
D20*
X247100433Y-80381489D03*
X250400441Y-80381459D03*
D11*
X252560435Y-80381441D03*
%TD*%
%TO.C,REF\u002A\u002A*%
X88102155Y-57381566D03*
D12*
X93102008Y-46331512D03*
D13*
X93102087Y-52231506D03*
D12*
X98102029Y-48431435D03*
D14*
X89602013Y-46231560D03*
X101602030Y-48431390D03*
%TD*%
D19*
%TO.C,D14*%
X147660652Y-119337513D03*
D20*
X149820646Y-119337495D03*
X153120654Y-119337465D03*
D11*
X155280648Y-119337447D03*
%TD*%
D15*
%TO.C,REF\u002A\u002A*%
X214918574Y-110687406D03*
D12*
X213648601Y-113227439D03*
D16*
X209838571Y-110687477D03*
D12*
X207298632Y-115767522D03*
D15*
X204758568Y-110687548D03*
D17*
X216923602Y-113227396D03*
X203996626Y-115767534D03*
%TD*%
D11*
%TO.C,REF\u002A\u002A*%
X185382370Y-76881528D03*
D12*
X190382223Y-65831474D03*
D13*
X190382302Y-71731468D03*
D12*
X195382244Y-67931397D03*
D14*
X186882228Y-65731522D03*
X198882245Y-67931352D03*
%TD*%
D19*
%TO.C,D14*%
X167116200Y-60881508D03*
D20*
X169276194Y-60881490D03*
X172576202Y-60881460D03*
D11*
X174736196Y-60881442D03*
%TD*%
D19*
%TO.C,D14*%
X50380653Y-99881513D03*
D20*
X52540647Y-99881495D03*
X55840655Y-99881465D03*
D11*
X58000649Y-99881447D03*
%TD*%
D15*
%TO.C,REF\u002A\u002A*%
X156550574Y-91231405D03*
D12*
X155280601Y-93771438D03*
D16*
X151470571Y-91231476D03*
D12*
X148930632Y-96311521D03*
D15*
X146390568Y-91231547D03*
D17*
X158555602Y-93771395D03*
X145628626Y-96311533D03*
%TD*%
D11*
%TO.C,REF\u002A\u002A*%
X49190155Y-57381566D03*
D12*
X54190008Y-46331512D03*
D13*
X54190087Y-52231506D03*
D12*
X59190029Y-48431435D03*
D14*
X50690013Y-46231560D03*
X62690030Y-48431390D03*
%TD*%
D15*
%TO.C,REF\u002A\u002A*%
X98182305Y-71731397D03*
D12*
X96912332Y-74271430D03*
D16*
X93102302Y-71731468D03*
D12*
X90562363Y-76811513D03*
D15*
X88022299Y-71731539D03*
D17*
X100187333Y-74271387D03*
X87260357Y-76811525D03*
%TD*%
D19*
%TO.C,D14*%
X225484439Y-80381507D03*
D20*
X227644433Y-80381489D03*
X230944441Y-80381459D03*
D11*
X233104435Y-80381441D03*
%TD*%
D19*
%TO.C,D14*%
X89292200Y-60881507D03*
D20*
X91452194Y-60881489D03*
X94752202Y-60881459D03*
D11*
X96912196Y-60881441D03*
%TD*%
D19*
%TO.C,D14*%
X128204652Y-119337513D03*
D20*
X130364646Y-119337495D03*
X133664654Y-119337465D03*
D11*
X135824648Y-119337447D03*
%TD*%
%TO.C,REF\u002A\u002A*%
X68646640Y-96381536D03*
D12*
X73646493Y-85331482D03*
D13*
X73646572Y-91231476D03*
D12*
X78646514Y-87431405D03*
D14*
X70146498Y-85231530D03*
X82146515Y-87431360D03*
%TD*%
D19*
%TO.C,D14*%
X206028652Y-99881513D03*
D20*
X208188646Y-99881495D03*
X211488654Y-99881465D03*
D11*
X213648648Y-99881447D03*
%TD*%
D15*
%TO.C,REF\u002A\u002A*%
X176006574Y-110687405D03*
D12*
X174736601Y-113227438D03*
D16*
X170926571Y-110687476D03*
D12*
X168386632Y-115767521D03*
D15*
X165846568Y-110687547D03*
D17*
X178011602Y-113227395D03*
X165084626Y-115767533D03*
%TD*%
D15*
%TO.C,REF\u002A\u002A*%
X59270305Y-71731397D03*
D12*
X58000332Y-74271430D03*
D16*
X54190302Y-71731468D03*
D12*
X51650363Y-76811513D03*
D15*
X49110299Y-71731539D03*
D17*
X61275333Y-74271387D03*
X48348357Y-76811525D03*
%TD*%
D23*
%TO.C,*%
X22803800Y-51321090D03*
%TD*%
%TO.C,*%
X38043800Y-43701089D03*
%TD*%
D11*
%TO.C,REF\u002A\u002A*%
X165926639Y-115837536D03*
D12*
X170926492Y-104787482D03*
D13*
X170926571Y-110687476D03*
D12*
X175926513Y-106887405D03*
D14*
X167426497Y-104687530D03*
X179426514Y-106887360D03*
%TD*%
D19*
%TO.C,D14*%
X167116653Y-99881513D03*
D20*
X169276647Y-99881495D03*
X172576655Y-99881465D03*
D11*
X174736649Y-99881447D03*
%TD*%
D23*
%TO.C,*%
X22803800Y-58941088D03*
%TD*%
D11*
%TO.C,REF\u002A\u002A*%
X263206639Y-115837536D03*
D12*
X268206492Y-104787482D03*
D13*
X268206571Y-110687476D03*
D12*
X273206513Y-106887405D03*
D14*
X264706497Y-104687530D03*
X276706514Y-106887360D03*
%TD*%
D19*
%TO.C,D14*%
X89292652Y-119337513D03*
D20*
X91452646Y-119337495D03*
X94752654Y-119337465D03*
D11*
X96912648Y-119337447D03*
%TD*%
D15*
%TO.C,REF\u002A\u002A*%
X137094574Y-110687405D03*
D12*
X135824601Y-113227438D03*
D16*
X132014571Y-110687476D03*
D12*
X129474632Y-115767521D03*
D15*
X126934568Y-110687547D03*
D17*
X139099602Y-113227395D03*
X126172626Y-115767533D03*
%TD*%
D19*
%TO.C,D14*%
X128204652Y-99881513D03*
D20*
X130364646Y-99881495D03*
X133664654Y-99881465D03*
D11*
X135824648Y-99881447D03*
%TD*%
D19*
%TO.C,D14*%
X50380652Y-119337513D03*
D20*
X52540646Y-119337495D03*
X55840654Y-119337465D03*
D11*
X58000648Y-119337447D03*
%TD*%
D15*
%TO.C,REF\u002A\u002A*%
X176006306Y-71731397D03*
D12*
X174736333Y-74271430D03*
D16*
X170926303Y-71731468D03*
D12*
X168386364Y-76811513D03*
D15*
X165846300Y-71731539D03*
D17*
X178011334Y-74271387D03*
X165084358Y-76811525D03*
%TD*%
D11*
%TO.C,REF\u002A\u002A*%
X185382640Y-115837536D03*
D12*
X190382493Y-104787482D03*
D13*
X190382572Y-110687476D03*
D12*
X195382514Y-106887405D03*
D14*
X186882498Y-104687530D03*
X198882515Y-106887360D03*
%TD*%
D11*
%TO.C,REF\u002A\u002A*%
X68646155Y-57381566D03*
D12*
X73646008Y-46331512D03*
D13*
X73646087Y-52231506D03*
D12*
X78646029Y-48431435D03*
D14*
X70146013Y-46231560D03*
X82146030Y-48431390D03*
%TD*%
D19*
%TO.C,D14*%
X89292652Y-99881513D03*
D20*
X91452646Y-99881495D03*
X94752654Y-99881465D03*
D11*
X96912648Y-99881447D03*
%TD*%
D15*
%TO.C,REF\u002A\u002A*%
X117638091Y-52231435D03*
D12*
X116368118Y-54771468D03*
D16*
X112558088Y-52231506D03*
D12*
X110018149Y-57311551D03*
D15*
X107478085Y-52231577D03*
D17*
X119643119Y-54771425D03*
X106716143Y-57311563D03*
%TD*%
D19*
%TO.C,D14*%
X244940652Y-119337513D03*
D20*
X247100646Y-119337495D03*
X250400654Y-119337465D03*
D11*
X252560648Y-119337447D03*
%TD*%
D15*
%TO.C,REF\u002A\u002A*%
X137094305Y-71731398D03*
D12*
X135824332Y-74271431D03*
D16*
X132014302Y-71731469D03*
D12*
X129474363Y-76811514D03*
D15*
X126934299Y-71731540D03*
D17*
X139099333Y-74271388D03*
X126172357Y-76811526D03*
%TD*%
D15*
%TO.C,REF\u002A\u002A*%
X98182574Y-91231406D03*
D12*
X96912601Y-93771439D03*
D16*
X93102571Y-91231477D03*
D12*
X90562632Y-96311522D03*
D15*
X88022568Y-91231548D03*
D17*
X100187602Y-93771396D03*
X87260626Y-96311534D03*
%TD*%
D19*
%TO.C,D14*%
X225484652Y-119337513D03*
D20*
X227644646Y-119337495D03*
X230944654Y-119337465D03*
D11*
X233104648Y-119337447D03*
%TD*%
D19*
%TO.C,D14*%
X206028652Y-119337513D03*
D20*
X208188646Y-119337495D03*
X211488654Y-119337465D03*
D11*
X213648648Y-119337447D03*
%TD*%
D19*
%TO.C,D14*%
X186572652Y-119337514D03*
D20*
X188732646Y-119337496D03*
X192032654Y-119337466D03*
D11*
X194192648Y-119337448D03*
%TD*%
D19*
%TO.C,D14*%
X264396200Y-60881507D03*
D20*
X266556194Y-60881489D03*
X269856202Y-60881459D03*
D11*
X272016196Y-60881441D03*
%TD*%
D19*
%TO.C,D14*%
X128204439Y-80381507D03*
D20*
X130364433Y-80381489D03*
X133664441Y-80381459D03*
D11*
X135824435Y-80381441D03*
%TD*%
D23*
%TO.C,*%
X22803800Y-56401089D03*
%TD*%
D15*
%TO.C,REF\u002A\u002A*%
X195462575Y-110687405D03*
D12*
X194192602Y-113227438D03*
D16*
X190382572Y-110687476D03*
D12*
X187842633Y-115767521D03*
D15*
X185302569Y-110687547D03*
D17*
X197467603Y-113227395D03*
X184540627Y-115767533D03*
%TD*%
D15*
%TO.C,REF\u002A\u002A*%
X78726090Y-52231435D03*
D12*
X77456117Y-54771468D03*
D16*
X73646087Y-52231506D03*
D12*
X71106148Y-57311551D03*
D15*
X68566084Y-52231577D03*
D17*
X80731118Y-54771425D03*
X67804142Y-57311563D03*
%TD*%
D15*
%TO.C,REF\u002A\u002A*%
X253830574Y-110687404D03*
D12*
X252560601Y-113227437D03*
D16*
X248750571Y-110687475D03*
D12*
X246210632Y-115767520D03*
D15*
X243670568Y-110687546D03*
D17*
X255835602Y-113227394D03*
X242908626Y-115767532D03*
%TD*%
D11*
%TO.C,REF\u002A\u002A*%
X127014639Y-115837536D03*
D12*
X132014492Y-104787482D03*
D13*
X132014571Y-110687476D03*
D12*
X137014513Y-106887405D03*
D14*
X128514497Y-104687530D03*
X140514514Y-106887360D03*
%TD*%
D15*
%TO.C,REF\u002A\u002A*%
X234374090Y-52231435D03*
D12*
X233104117Y-54771468D03*
D16*
X229294087Y-52231506D03*
D12*
X226754148Y-57311551D03*
D15*
X224214084Y-52231577D03*
D17*
X236379118Y-54771425D03*
X223452142Y-57311563D03*
%TD*%
D15*
%TO.C,REF\u002A\u002A*%
X98182090Y-52231435D03*
D12*
X96912117Y-54771468D03*
D16*
X93102087Y-52231506D03*
D12*
X90562148Y-57311551D03*
D15*
X88022084Y-52231577D03*
D17*
X100187118Y-54771425D03*
X87260142Y-57311563D03*
%TD*%
D11*
%TO.C,REF\u002A\u002A*%
X165926639Y-96381536D03*
D12*
X170926492Y-85331482D03*
D13*
X170926571Y-91231476D03*
D12*
X175926513Y-87431405D03*
D14*
X167426497Y-85231530D03*
X179426514Y-87431360D03*
%TD*%
D11*
%TO.C,REF\u002A\u002A*%
X107558156Y-57381566D03*
D12*
X112558009Y-46331512D03*
D13*
X112558088Y-52231506D03*
D12*
X117558030Y-48431435D03*
D14*
X109058014Y-46231560D03*
X121058031Y-48431390D03*
%TD*%
D15*
%TO.C,REF\u002A\u002A*%
X117638574Y-91231405D03*
D12*
X116368601Y-93771438D03*
D16*
X112558571Y-91231476D03*
D12*
X110018632Y-96311521D03*
D15*
X107478568Y-91231547D03*
D17*
X119643602Y-93771395D03*
X106716626Y-96311533D03*
%TD*%
D23*
%TO.C,*%
X38043800Y-58941089D03*
%TD*%
D15*
%TO.C,REF\u002A\u002A*%
X137094574Y-91231404D03*
D12*
X135824601Y-93771437D03*
D16*
X132014571Y-91231475D03*
D12*
X129474632Y-96311520D03*
D15*
X126934568Y-91231546D03*
D17*
X139099602Y-93771394D03*
X126172626Y-96311532D03*
%TD*%
D15*
%TO.C,REF\u002A\u002A*%
X273286305Y-71731397D03*
D12*
X272016332Y-74271430D03*
D16*
X268206302Y-71731468D03*
D12*
X265666363Y-76811513D03*
D15*
X263126299Y-71731539D03*
D17*
X275291333Y-74271387D03*
X262364357Y-76811525D03*
%TD*%
D11*
%TO.C,REF\u002A\u002A*%
X49190639Y-96381536D03*
D12*
X54190492Y-85331482D03*
D13*
X54190571Y-91231476D03*
D12*
X59190513Y-87431405D03*
D14*
X50690497Y-85231530D03*
X62690514Y-87431360D03*
%TD*%
D23*
%TO.C,*%
X38043800Y-61481090D03*
%TD*%
%TO.C,*%
X22803801Y-61481089D03*
%TD*%
D15*
%TO.C,REF\u002A\u002A*%
X195462575Y-91231405D03*
D12*
X194192602Y-93771438D03*
D16*
X190382572Y-91231476D03*
D12*
X187842633Y-96311521D03*
D15*
X185302569Y-91231547D03*
D17*
X197467603Y-93771395D03*
X184540627Y-96311533D03*
%TD*%
D11*
%TO.C,REF\u002A\u002A*%
X88102639Y-96381537D03*
D12*
X93102492Y-85331483D03*
D13*
X93102571Y-91231477D03*
D12*
X98102513Y-87431406D03*
D14*
X89602497Y-85231531D03*
X101602514Y-87431361D03*
%TD*%
D15*
%TO.C,REF\u002A\u002A*%
X78726575Y-91231405D03*
D12*
X77456602Y-93771438D03*
D16*
X73646572Y-91231476D03*
D12*
X71106633Y-96311521D03*
D15*
X68566569Y-91231547D03*
D17*
X80731603Y-93771395D03*
X67804627Y-96311533D03*
%TD*%
D19*
%TO.C,D14*%
X108748439Y-80381507D03*
D20*
X110908433Y-80381489D03*
X114208441Y-80381459D03*
D11*
X116368435Y-80381441D03*
%TD*%
%TO.C,REF\u002A\u002A*%
X243750639Y-115837535D03*
D12*
X248750492Y-104787481D03*
D13*
X248750571Y-110687475D03*
D12*
X253750513Y-106887404D03*
D14*
X245250497Y-104687529D03*
X257250514Y-106887359D03*
%TD*%
D19*
%TO.C,D14*%
X206028200Y-60881507D03*
D20*
X208188194Y-60881489D03*
X211488202Y-60881459D03*
D11*
X213648196Y-60881441D03*
%TD*%
D18*
%TO.C,CiHole1*%
X64032513Y-101260558D03*
%TD*%
%TO.C,CiHole1*%
X30782514Y-73360558D03*
%TD*%
D15*
%TO.C,REF\u002A\u002A*%
X59270574Y-110687405D03*
D12*
X58000601Y-113227438D03*
D16*
X54190571Y-110687476D03*
D12*
X51650632Y-115767521D03*
D15*
X49110568Y-110687547D03*
D17*
X61275602Y-113227395D03*
X48348626Y-115767533D03*
%TD*%
D11*
%TO.C,REF\u002A\u002A*%
X127014370Y-76881529D03*
D12*
X132014223Y-65831475D03*
D13*
X132014302Y-71731469D03*
D12*
X137014244Y-67931398D03*
D14*
X128514228Y-65731523D03*
X140514245Y-67931353D03*
%TD*%
D19*
%TO.C,D14*%
X264396652Y-119337513D03*
D20*
X266556646Y-119337495D03*
X269856654Y-119337465D03*
D11*
X272016648Y-119337447D03*
%TD*%
%TO.C,REF\u002A\u002A*%
X243750155Y-57381566D03*
D12*
X248750008Y-46331512D03*
D13*
X248750087Y-52231506D03*
D12*
X253750029Y-48431435D03*
D14*
X245250013Y-46231560D03*
X257250030Y-48431390D03*
%TD*%
D15*
%TO.C,REF\u002A\u002A*%
X253830574Y-91231405D03*
D12*
X252560601Y-93771438D03*
D16*
X248750571Y-91231476D03*
D12*
X246210632Y-96311521D03*
D15*
X243670568Y-91231547D03*
D17*
X255835602Y-93771395D03*
X242908626Y-96311533D03*
%TD*%
D19*
%TO.C,D14*%
X264396653Y-99881513D03*
D20*
X266556647Y-99881495D03*
X269856655Y-99881465D03*
D11*
X272016649Y-99881447D03*
%TD*%
%TO.C,REF\u002A\u002A*%
X224294639Y-115837537D03*
D12*
X229294492Y-104787483D03*
D13*
X229294571Y-110687477D03*
D12*
X234294513Y-106887406D03*
D14*
X225794497Y-104687531D03*
X237794514Y-106887361D03*
%TD*%
D15*
%TO.C,REF\u002A\u002A*%
X156550574Y-110687405D03*
D12*
X155280601Y-113227438D03*
D16*
X151470571Y-110687476D03*
D12*
X148930632Y-115767521D03*
D15*
X146390568Y-110687547D03*
D17*
X158555602Y-113227395D03*
X145628626Y-115767533D03*
%TD*%
D19*
%TO.C,D14*%
X186572652Y-99881513D03*
D20*
X188732646Y-99881495D03*
X192032654Y-99881465D03*
D11*
X194192648Y-99881447D03*
%TD*%
%TO.C,REF\u002A\u002A*%
X263206639Y-96381536D03*
D12*
X268206492Y-85331482D03*
D13*
X268206571Y-91231476D03*
D12*
X273206513Y-87431405D03*
D14*
X264706497Y-85231530D03*
X276706514Y-87431360D03*
%TD*%
D19*
%TO.C,D14*%
X69836439Y-80381507D03*
D20*
X71996433Y-80381489D03*
X75296441Y-80381459D03*
D11*
X77456435Y-80381441D03*
%TD*%
%TO.C,REF\u002A\u002A*%
X146470155Y-57381566D03*
D12*
X151470008Y-46331512D03*
D13*
X151470087Y-52231506D03*
D12*
X156470029Y-48431435D03*
D14*
X147970013Y-46231560D03*
X159970030Y-48431390D03*
%TD*%
D19*
%TO.C,D14*%
X225484652Y-99881513D03*
D20*
X227644646Y-99881495D03*
X230944654Y-99881465D03*
D11*
X233104648Y-99881447D03*
%TD*%
%TO.C,REF\u002A\u002A*%
X88102639Y-115837536D03*
D12*
X93102492Y-104787482D03*
D13*
X93102571Y-110687476D03*
D12*
X98102513Y-106887405D03*
D14*
X89602497Y-104687530D03*
X101602514Y-106887360D03*
%TD*%
D15*
%TO.C,REF\u002A\u002A*%
X253830305Y-71731397D03*
D12*
X252560332Y-74271430D03*
D16*
X248750302Y-71731468D03*
D12*
X246210363Y-76811513D03*
D15*
X243670299Y-71731539D03*
D17*
X255835333Y-74271387D03*
X242908357Y-76811525D03*
%TD*%
D19*
%TO.C,D14*%
X186572200Y-60881508D03*
D20*
X188732194Y-60881490D03*
X192032202Y-60881460D03*
D11*
X194192196Y-60881442D03*
%TD*%
D15*
%TO.C,REF\u002A\u002A*%
X214918090Y-52231434D03*
D12*
X213648117Y-54771467D03*
D16*
X209838087Y-52231505D03*
D12*
X207298148Y-57311550D03*
D15*
X204758084Y-52231576D03*
D17*
X216923118Y-54771424D03*
X203996142Y-57311562D03*
%TD*%
D15*
%TO.C,REF\u002A\u002A*%
X234374307Y-71731397D03*
D12*
X233104334Y-74271430D03*
D16*
X229294304Y-71731468D03*
D12*
X226754365Y-76811513D03*
D15*
X224214301Y-71731539D03*
D17*
X236379335Y-74271387D03*
X223452359Y-76811525D03*
%TD*%
D23*
%TO.C,*%
X22803800Y-46241089D03*
%TD*%
D15*
%TO.C,REF\u002A\u002A*%
X195462305Y-71731397D03*
D12*
X194192332Y-74271430D03*
D16*
X190382302Y-71731468D03*
D12*
X187842363Y-76811513D03*
D15*
X185302299Y-71731539D03*
D17*
X197467333Y-74271387D03*
X184540357Y-76811525D03*
%TD*%
D19*
%TO.C,D14*%
X147660652Y-99881513D03*
D20*
X149820646Y-99881495D03*
X153120654Y-99881465D03*
D11*
X155280648Y-99881447D03*
%TD*%
D19*
%TO.C,D14*%
X206028440Y-80381506D03*
D20*
X208188434Y-80381488D03*
X211488442Y-80381458D03*
D11*
X213648436Y-80381440D03*
%TD*%
D23*
%TO.C,*%
X38043800Y-51321089D03*
%TD*%
D19*
%TO.C,D14*%
X244940652Y-99881513D03*
D20*
X247100646Y-99881495D03*
X250400654Y-99881465D03*
D11*
X252560648Y-99881447D03*
%TD*%
D15*
%TO.C,REF\u002A\u002A*%
X234374574Y-110687406D03*
D12*
X233104601Y-113227439D03*
D16*
X229294571Y-110687477D03*
D12*
X226754632Y-115767522D03*
D15*
X224214568Y-110687548D03*
D17*
X236379602Y-113227396D03*
X223452626Y-115767534D03*
%TD*%
D19*
%TO.C,D14*%
X69836652Y-99881514D03*
D20*
X71996646Y-99881496D03*
X75296654Y-99881466D03*
D11*
X77456648Y-99881448D03*
%TD*%
%TO.C,REF\u002A\u002A*%
X107558639Y-96381536D03*
D12*
X112558492Y-85331482D03*
D13*
X112558571Y-91231476D03*
D12*
X117558513Y-87431405D03*
D14*
X109058497Y-85231530D03*
X121058514Y-87431360D03*
%TD*%
D11*
%TO.C,REF\u002A\u002A*%
X224294372Y-76881528D03*
D12*
X229294225Y-65831474D03*
D13*
X229294304Y-71731468D03*
D12*
X234294246Y-67931397D03*
D14*
X225794230Y-65731522D03*
X237794247Y-67931352D03*
%TD*%
D11*
%TO.C,REF\u002A\u002A*%
X107558370Y-76881528D03*
D12*
X112558223Y-65831474D03*
D13*
X112558302Y-71731468D03*
D12*
X117558244Y-67931397D03*
D14*
X109058228Y-65731522D03*
X121058245Y-67931352D03*
%TD*%
D11*
%TO.C,REF\u002A\u002A*%
X127014155Y-57381566D03*
D12*
X132014008Y-46331512D03*
D13*
X132014087Y-52231506D03*
D12*
X137014029Y-48431435D03*
D14*
X128514013Y-46231560D03*
X140514030Y-48431390D03*
%TD*%
D15*
%TO.C,REF\u002A\u002A*%
X234374574Y-91231405D03*
D12*
X233104601Y-93771438D03*
D16*
X229294571Y-91231476D03*
D12*
X226754632Y-96311521D03*
D15*
X224214568Y-91231547D03*
D17*
X236379602Y-93771395D03*
X223452626Y-96311533D03*
%TD*%
D19*
%TO.C,D14*%
X89292439Y-80381507D03*
D20*
X91452433Y-80381489D03*
X94752441Y-80381459D03*
D11*
X96912435Y-80381441D03*
%TD*%
%TO.C,REF\u002A\u002A*%
X107558639Y-115837536D03*
D12*
X112558492Y-104787482D03*
D13*
X112558571Y-110687476D03*
D12*
X117558513Y-106887405D03*
D14*
X109058497Y-104687530D03*
X121058514Y-106887360D03*
%TD*%
D15*
%TO.C,REF\u002A\u002A*%
X78726574Y-110687405D03*
D12*
X77456601Y-113227438D03*
D16*
X73646571Y-110687476D03*
D12*
X71106632Y-115767521D03*
D15*
X68566568Y-110687547D03*
D17*
X80731602Y-113227395D03*
X67804626Y-115767533D03*
%TD*%
D19*
%TO.C,D14*%
X244940200Y-60881507D03*
D20*
X247100194Y-60881489D03*
X250400202Y-60881459D03*
D11*
X252560196Y-60881441D03*
%TD*%
%TO.C,REF\u002A\u002A*%
X243750639Y-96381536D03*
D12*
X248750492Y-85331482D03*
D13*
X248750571Y-91231476D03*
D12*
X253750513Y-87431405D03*
D14*
X245250497Y-85231530D03*
X257250514Y-87431360D03*
%TD*%
D18*
%TO.C,CiHole1*%
X258492513Y-62010558D03*
%TD*%
D19*
%TO.C,D14*%
X50380200Y-60881507D03*
D20*
X52540194Y-60881489D03*
X55840202Y-60881459D03*
D11*
X58000196Y-60881441D03*
%TD*%
D25*
%TO.C,REF\u002A\u002A*%
X241142513Y-87679547D03*
X241142513Y-89179547D03*
D26*
X246242513Y-89179547D03*
D27*
X246242513Y-87679547D03*
%TD*%
D25*
%TO.C,REF\u002A\u002A*%
X202230030Y-48679608D03*
X202230030Y-50179608D03*
D26*
X207330030Y-50179608D03*
D27*
X207330030Y-48679608D03*
%TD*%
D28*
%TO.C,REF\u002A\u002A*%
X42760013Y-50150558D03*
X42760013Y-52050558D03*
X40885013Y-51100558D03*
%TD*%
D25*
%TO.C,REF\u002A\u002A*%
X260598028Y-48679577D03*
X260598028Y-50179577D03*
D26*
X265698028Y-50179577D03*
D27*
X265698028Y-48679577D03*
%TD*%
D29*
%TO.C,REF\u002A\u002A*%
X40982517Y-43475549D03*
X47782509Y-43475557D03*
D30*
X41882508Y-46225551D03*
X44382518Y-46225544D03*
X46882501Y-46225555D03*
%TD*%
D25*
%TO.C,REF\u002A\u002A*%
X85494246Y-68179539D03*
X85494246Y-69679539D03*
D26*
X90594246Y-69679539D03*
D27*
X90594246Y-68179539D03*
%TD*%
D25*
%TO.C,REF\u002A\u002A*%
X143862513Y-107135608D03*
X143862513Y-108635608D03*
D26*
X148962513Y-108635608D03*
D27*
X148962513Y-107135608D03*
%TD*%
D25*
%TO.C,REF\u002A\u002A*%
X241142513Y-107135608D03*
X241142513Y-108635608D03*
D26*
X246242513Y-108635608D03*
D27*
X246242513Y-107135608D03*
%TD*%
D25*
%TO.C,REF\u002A\u002A*%
X104950029Y-48679577D03*
X104950029Y-50179577D03*
D26*
X110050029Y-50179577D03*
D27*
X110050029Y-48679577D03*
%TD*%
D25*
%TO.C,REF\u002A\u002A*%
X66038513Y-87679608D03*
X66038513Y-89179608D03*
D26*
X71138513Y-89179608D03*
D27*
X71138513Y-87679608D03*
%TD*%
D11*
%TO.C,*%
X23717525Y-100770501D03*
%TD*%
D31*
%TO.C,REF\u002A\u002A*%
X23717674Y-79280499D03*
%TD*%
D25*
%TO.C,REF\u002A\u002A*%
X260598513Y-87679607D03*
X260598513Y-89179607D03*
D26*
X265698513Y-89179607D03*
D27*
X265698513Y-87679607D03*
%TD*%
D25*
%TO.C,REF\u002A\u002A*%
X124406513Y-107135547D03*
X124406513Y-108635547D03*
D26*
X129506513Y-108635547D03*
D27*
X129506513Y-107135547D03*
%TD*%
D11*
%TO.C,*%
X34212513Y-100770558D03*
%TD*%
D25*
%TO.C,REF\u002A\u002A*%
X241142244Y-68179508D03*
X241142244Y-69679508D03*
D26*
X246242244Y-69679508D03*
D27*
X246242244Y-68179508D03*
%TD*%
D32*
%TO.C,REF\u002A\u002A*%
X20442513Y-54640559D03*
X18727573Y-55264743D03*
%TD*%
D33*
%TO.C,REF\u002A\u002A*%
X23717525Y-100770501D03*
%TD*%
D34*
%TO.C,REF\u002A\u002A*%
X38043800Y-66561088D03*
D35*
X38043800Y-67861088D03*
%TD*%
D33*
%TO.C,REF\u002A\u002A*%
X26722521Y-94510506D03*
%TD*%
%TO.C,REF\u002A\u002A*%
X26727634Y-107835508D03*
%TD*%
D25*
%TO.C,REF\u002A\u002A*%
X182774244Y-68179509D03*
X182774244Y-69679509D03*
D26*
X187874244Y-69679509D03*
D27*
X187874244Y-68179509D03*
%TD*%
D25*
%TO.C,REF\u002A\u002A*%
X202230244Y-68179508D03*
X202230244Y-69679508D03*
D26*
X207330244Y-69679508D03*
D27*
X207330244Y-68179508D03*
%TD*%
D11*
%TO.C,*%
X26722521Y-100770505D03*
%TD*%
D33*
%TO.C,REF\u002A\u002A*%
X23717525Y-94510500D03*
%TD*%
D34*
%TO.C,REF\u002A\u002A*%
X22803800Y-66561089D03*
D35*
X22803800Y-67861089D03*
%TD*%
D25*
%TO.C,REF\u002A\u002A*%
X124406029Y-48679608D03*
X124406029Y-50179608D03*
D26*
X129506029Y-50179608D03*
D27*
X129506029Y-48679608D03*
%TD*%
D25*
%TO.C,REF\u002A\u002A*%
X46582514Y-87679547D03*
X46582514Y-89179547D03*
D26*
X51682514Y-89179547D03*
D27*
X51682514Y-87679547D03*
%TD*%
D25*
%TO.C,REF\u002A\u002A*%
X124406513Y-87679547D03*
X124406513Y-89179547D03*
D26*
X129506513Y-89179547D03*
D27*
X129506513Y-87679547D03*
%TD*%
D32*
%TO.C,REF\u002A\u002A*%
X20442513Y-57180559D03*
X18727573Y-57804743D03*
%TD*%
D25*
%TO.C,REF\u002A\u002A*%
X163318513Y-107135607D03*
X163318513Y-108635607D03*
D26*
X168418513Y-108635607D03*
D27*
X168418513Y-107135607D03*
%TD*%
D33*
%TO.C,REF\u002A\u002A*%
X34212513Y-94510559D03*
%TD*%
D25*
%TO.C,REF\u002A\u002A*%
X182774513Y-107135547D03*
X182774513Y-108635547D03*
D26*
X187874513Y-108635547D03*
D27*
X187874513Y-107135547D03*
%TD*%
D25*
%TO.C,REF\u002A\u002A*%
X104950244Y-68179508D03*
X104950244Y-69679508D03*
D26*
X110050244Y-69679508D03*
D27*
X110050244Y-68179508D03*
%TD*%
D25*
%TO.C,REF\u002A\u002A*%
X221686513Y-107135547D03*
X221686513Y-108635547D03*
D26*
X226786513Y-108635547D03*
D27*
X226786513Y-107135547D03*
%TD*%
D11*
%TO.C,*%
X23717525Y-94510500D03*
%TD*%
%TO.C,*%
X37217529Y-100770592D03*
%TD*%
D32*
%TO.C,REF\u002A\u002A*%
X20442513Y-47020559D03*
X18727573Y-47644743D03*
%TD*%
D25*
%TO.C,REF\u002A\u002A*%
X221686244Y-68179507D03*
X221686244Y-69679507D03*
D26*
X226786244Y-69679507D03*
D27*
X226786244Y-68179507D03*
%TD*%
D33*
%TO.C,REF\u002A\u002A*%
X37217529Y-94510593D03*
%TD*%
D25*
%TO.C,REF\u002A\u002A*%
X260598244Y-68179508D03*
X260598244Y-69679508D03*
D26*
X265698244Y-69679508D03*
D27*
X265698244Y-68179508D03*
%TD*%
D25*
%TO.C,REF\u002A\u002A*%
X163318029Y-48679608D03*
X163318029Y-50179608D03*
D26*
X168418029Y-50179608D03*
D27*
X168418029Y-48679608D03*
%TD*%
D34*
%TO.C,REF\u002A\u002A*%
X40583800Y-66561090D03*
D35*
X40583800Y-67861090D03*
%TD*%
D32*
%TO.C,REF\u002A\u002A*%
X20442513Y-49560559D03*
X18727573Y-50184743D03*
%TD*%
D25*
%TO.C,REF\u002A\u002A*%
X163318512Y-87679547D03*
X163318512Y-89179547D03*
D26*
X168418512Y-89179547D03*
D27*
X168418512Y-87679547D03*
%TD*%
D31*
%TO.C,REF\u002A\u002A*%
X37217678Y-79280576D03*
%TD*%
D32*
%TO.C,REF\u002A\u002A*%
X20442512Y-59720559D03*
X18727572Y-60344743D03*
%TD*%
D25*
%TO.C,REF\u002A\u002A*%
X182774513Y-87679547D03*
X182774513Y-89179547D03*
D26*
X187874513Y-89179547D03*
D27*
X187874513Y-87679547D03*
%TD*%
D36*
%TO.C,REF\u002A\u002A*%
X31336300Y-67211088D03*
X29511300Y-67211090D03*
%TD*%
D25*
%TO.C,REF\u002A\u002A*%
X85494029Y-48679577D03*
X85494029Y-50179577D03*
D26*
X90594029Y-50179577D03*
D27*
X90594029Y-48679577D03*
%TD*%
D11*
%TO.C,*%
X26722521Y-94510506D03*
%TD*%
%TO.C,*%
X37217678Y-79280576D03*
%TD*%
D33*
%TO.C,REF\u002A\u002A*%
X34212513Y-100770558D03*
%TD*%
D25*
%TO.C,REF\u002A\u002A*%
X104950514Y-107135608D03*
X104950514Y-108635608D03*
D26*
X110050514Y-108635608D03*
D27*
X110050514Y-107135608D03*
%TD*%
D25*
%TO.C,REF\u002A\u002A*%
X221686513Y-87679547D03*
X221686513Y-89179547D03*
D26*
X226786513Y-89179547D03*
D27*
X226786513Y-87679547D03*
%TD*%
D25*
%TO.C,REF\u002A\u002A*%
X221686029Y-48679608D03*
X221686029Y-50179608D03*
D26*
X226786029Y-50179608D03*
D27*
X226786029Y-48679608D03*
%TD*%
D25*
%TO.C,REF\u002A\u002A*%
X124406244Y-68179539D03*
X124406244Y-69679539D03*
D26*
X129506244Y-69679539D03*
D27*
X129506244Y-68179539D03*
%TD*%
D34*
%TO.C,REF\u002A\u002A*%
X20263800Y-66561089D03*
D35*
X20263800Y-67861089D03*
%TD*%
D11*
%TO.C,*%
X26727634Y-107835508D03*
%TD*%
D34*
%TO.C,REF\u002A\u002A*%
X35503802Y-66561089D03*
D35*
X35503802Y-67861089D03*
%TD*%
D25*
%TO.C,REF\u002A\u002A*%
X46582513Y-107135558D03*
X46582513Y-108635558D03*
D26*
X51682513Y-108635558D03*
D27*
X51682513Y-107135558D03*
%TD*%
D25*
%TO.C,REF\u002A\u002A*%
X202230513Y-107135547D03*
X202230513Y-108635547D03*
D26*
X207330513Y-108635547D03*
D27*
X207330513Y-107135547D03*
%TD*%
D25*
%TO.C,REF\u002A\u002A*%
X202230514Y-87679608D03*
X202230514Y-89179608D03*
D26*
X207330514Y-89179608D03*
D27*
X207330514Y-87679608D03*
%TD*%
D25*
%TO.C,REF\u002A\u002A*%
X260598512Y-107135547D03*
X260598512Y-108635547D03*
D26*
X265698512Y-108635547D03*
D27*
X265698512Y-107135547D03*
%TD*%
D25*
%TO.C,REF\u002A\u002A*%
X85494513Y-87679547D03*
X85494513Y-89179547D03*
D26*
X90594513Y-89179547D03*
D27*
X90594513Y-87679547D03*
%TD*%
D25*
%TO.C,REF\u002A\u002A*%
X182774029Y-48679608D03*
X182774029Y-50179608D03*
D26*
X187874029Y-50179608D03*
D27*
X187874029Y-48679608D03*
%TD*%
D25*
%TO.C,REF\u002A\u002A*%
X143862244Y-68179508D03*
X143862244Y-69679508D03*
D26*
X148962244Y-69679508D03*
D27*
X148962244Y-68179508D03*
%TD*%
D11*
%TO.C,*%
X23717674Y-79280499D03*
%TD*%
D25*
%TO.C,REF\u002A\u002A*%
X66038512Y-107135547D03*
X66038512Y-108635547D03*
D26*
X71138512Y-108635547D03*
D27*
X71138512Y-107135547D03*
%TD*%
D32*
%TO.C,REF\u002A\u002A*%
X20442513Y-52100559D03*
X18727573Y-52724743D03*
%TD*%
D33*
%TO.C,REF\u002A\u002A*%
X37217529Y-100770592D03*
%TD*%
D25*
%TO.C,REF\u002A\u002A*%
X143862512Y-87679547D03*
X143862512Y-89179547D03*
D26*
X148962512Y-89179547D03*
D27*
X148962512Y-87679547D03*
%TD*%
D25*
%TO.C,REF\u002A\u002A*%
X143862029Y-48679577D03*
X143862029Y-50179577D03*
D26*
X148962029Y-50179577D03*
D27*
X148962029Y-48679577D03*
%TD*%
D11*
%TO.C,*%
X34217625Y-107835560D03*
%TD*%
D25*
%TO.C,REF\u002A\u002A*%
X104950514Y-87679608D03*
X104950514Y-89179608D03*
D26*
X110050514Y-89179608D03*
D27*
X110050514Y-87679608D03*
%TD*%
D28*
%TO.C,REF\u002A\u002A*%
X42760013Y-54150558D03*
X42760013Y-56050558D03*
X40885013Y-55100558D03*
%TD*%
D33*
%TO.C,REF\u002A\u002A*%
X34217625Y-107835560D03*
%TD*%
D11*
%TO.C,*%
X34212513Y-94510559D03*
%TD*%
D37*
%TO.C,REF\u002A\u002A*%
X43123799Y-66298589D03*
X43123801Y-68123589D03*
%TD*%
D25*
%TO.C,REF\u002A\u002A*%
X163318244Y-68179539D03*
X163318244Y-69679539D03*
D26*
X168418244Y-69679539D03*
D27*
X168418244Y-68179539D03*
%TD*%
D25*
%TO.C,REF\u002A\u002A*%
X46582029Y-48679577D03*
X46582029Y-50179577D03*
D26*
X51682029Y-50179577D03*
D27*
X51682029Y-48679577D03*
%TD*%
D11*
%TO.C,*%
X37217529Y-94510593D03*
%TD*%
D28*
%TO.C,REF\u002A\u002A*%
X42760014Y-58150559D03*
X42760014Y-60050559D03*
X40885014Y-59100559D03*
%TD*%
D25*
%TO.C,REF\u002A\u002A*%
X66038244Y-68179539D03*
X66038244Y-69679539D03*
D26*
X71138244Y-69679539D03*
D27*
X71138244Y-68179539D03*
%TD*%
D34*
%TO.C,REF\u002A\u002A*%
X25343801Y-66561089D03*
D35*
X25343801Y-67861089D03*
%TD*%
D25*
%TO.C,REF\u002A\u002A*%
X66038029Y-48679576D03*
X66038029Y-50179576D03*
D26*
X71138029Y-50179576D03*
D27*
X71138029Y-48679576D03*
%TD*%
D32*
%TO.C,REF\u002A\u002A*%
X20442513Y-62260559D03*
X18727573Y-62884743D03*
%TD*%
D33*
%TO.C,REF\u002A\u002A*%
X26722521Y-100770505D03*
%TD*%
D25*
%TO.C,REF\u002A\u002A*%
X85494513Y-107135608D03*
X85494513Y-108635608D03*
D26*
X90594513Y-108635608D03*
D27*
X90594513Y-107135608D03*
%TD*%
D25*
%TO.C,REF\u002A\u002A*%
X241142029Y-48679578D03*
X241142029Y-50179578D03*
D26*
X246242029Y-50179578D03*
D27*
X246242029Y-48679578D03*
%TD*%
D25*
%TO.C,REF\u002A\u002A*%
X46582244Y-68179508D03*
X46582244Y-69679508D03*
D26*
X51682244Y-69679508D03*
D27*
X51682244Y-68179508D03*
%TD*%
M02*
